<svg version="1.1" id="Layer_1" xmlns="http://www.w3.org/2000/svg" xmlns:xlink="http://www.w3.org/1999/xlink" x="0px" y="0px"
	 width="100%" viewBox="0 0 512 512" enable-background="new 0 0 512 512" xml:space="preserve">
<path fill="#FFFFFF" opacity="1.000000" stroke="none" 
	d="
M337.000000,513.000000 
	C224.693954,513.000000 112.887901,513.000000 1.040925,513.000000 
	C1.040925,342.402252 1.040925,171.804504 1.040925,1.103379 
	C171.556061,1.103379 342.112183,1.103379 512.834167,1.103379 
	C512.834167,171.666534 512.834167,342.333252 512.834167,513.000000 
	C454.471161,513.000000 395.985565,513.000000 337.000000,513.000000 
M310.342712,398.874390 
	C313.716766,397.515198 317.172211,396.327484 320.452118,394.769989 
	C349.381226,381.032654 371.934357,360.551331 388.257141,332.760345 
	C405.057739,304.155823 410.399078,273.256042 407.735657,240.929977 
	C405.928345,218.994614 398.591919,198.427139 387.200745,179.341599 
	C373.283539,156.023804 354.519592,137.740646 330.950623,124.565361 
	C299.234528,106.835777 265.157532,102.074562 229.543259,108.049637 
	C200.872559,112.859779 175.952118,125.767540 154.517029,145.135971 
	C137.951401,160.104446 125.813377,178.323486 116.937447,198.891907 
	C106.667252,222.691269 104.211472,247.647202 106.270172,272.929657 
	C108.057442,294.878754 115.359863,315.444794 126.734322,334.534332 
	C141.270020,358.929291 161.040482,377.730377 186.036545,390.947174 
	C208.376068,402.759277 232.152740,408.502747 257.633820,408.190094 
	C275.581543,407.969879 292.836548,405.339844 310.342712,398.874390 
z"/>
<path fill="#96F6D8" opacity="1.000000" stroke="none" 
	d="
M309.976196,399.008484 
	C292.836548,405.339844 275.581543,407.969879 257.633820,408.190094 
	C232.152740,408.502747 208.376068,402.759277 186.036545,390.947174 
	C161.040482,377.730377 141.270020,358.929291 126.734322,334.534332 
	C115.359863,315.444794 108.057442,294.878754 106.270172,272.929657 
	C104.211472,247.647202 106.667252,222.691269 116.937447,198.891907 
	C125.813377,178.323486 137.951401,160.104446 154.517029,145.135971 
	C175.952118,125.767540 200.872559,112.859779 229.543259,108.049637 
	C265.157532,102.074562 299.234528,106.835777 330.950623,124.565361 
	C354.519592,137.740646 373.283539,156.023804 387.200745,179.341599 
	C398.591919,198.427139 405.928345,218.994614 407.735657,240.929977 
	C410.399078,273.256042 405.057739,304.155823 388.257141,332.760345 
	C371.934357,360.551331 349.381226,381.032654 320.452118,394.769989 
	C317.172211,396.327484 313.716766,397.515198 309.976196,399.008484 
M175.303726,317.104492 
	C174.920502,317.771454 174.537277,318.438446 173.941711,319.707001 
	C173.352661,320.358856 172.763596,321.010712 172.382767,321.432159 
	C172.922852,322.210938 173.501862,323.045898 173.488052,324.080719 
	C173.994263,324.718628 174.500473,325.356567 175.049896,326.456055 
	C175.049896,326.456055 175.037811,326.919525 175.098633,327.628235 
	C176.396027,328.489594 177.693420,329.350952 178.990814,330.212341 
	C179.407272,329.736206 179.823715,329.260101 180.240173,328.783997 
	C179.147247,327.688354 178.054321,326.592712 176.251541,325.063110 
	C175.820145,325.380157 175.388763,325.697174 175.223465,325.958649 
	C175.380524,325.828735 175.427032,325.667267 176.084747,324.546173 
	C175.922653,322.699097 175.760544,320.851990 175.950867,318.744598 
	C176.182434,318.370422 176.414017,317.996216 177.190948,317.324158 
	C177.475861,316.827179 177.760757,316.330170 178.266510,315.467804 
	C178.463776,315.250305 178.704422,315.104248 179.302444,315.705200 
	C180.842239,315.489471 182.382019,315.273743 184.744751,315.025177 
	C185.842712,315.024139 186.940674,315.023102 188.650757,315.355011 
	C189.085876,316.841766 189.520996,318.328552 190.026093,320.463562 
	C189.952148,321.976929 189.878220,323.490326 189.133896,324.909210 
	C184.623154,323.225037 183.855087,325.987183 183.497253,328.770782 
	C186.304260,328.177826 188.998779,327.608612 191.985474,327.715454 
	C193.346512,328.102112 194.707535,328.488800 195.856369,328.815186 
	C195.056686,325.940186 194.218033,324.031921 194.037598,322.063263 
	C193.550049,316.743561 193.342529,311.398193 192.957535,305.754730 
	C192.313736,305.490204 191.669937,305.225677 191.057037,304.245728 
	C190.350327,303.845734 189.643616,303.445770 188.995697,303.007629 
	C188.995697,303.007629 188.980026,303.075958 188.567581,302.354065 
	C185.734924,302.609650 182.902267,302.865234 180.451889,303.821960 
	C183.454315,304.363373 186.456757,304.904816 189.711975,305.977112 
	C190.122513,306.351715 190.533051,306.726288 190.976166,307.628510 
	C191.004623,307.802460 191.033066,307.976379 190.559189,308.590942 
	C190.361649,309.708099 190.164108,310.825287 189.995316,312.000549 
	C189.995316,312.000549 189.983749,311.937256 189.235138,311.799255 
	C188.480637,311.921875 187.726120,312.044495 186.269196,312.051880 
	C185.150955,312.263977 184.032730,312.476074 182.084381,312.733337 
	C180.719025,312.820892 179.353683,312.908447 177.363754,313.033447 
	C176.532318,313.843781 172.675308,313.087769 175.898178,316.407562 
	C175.898178,316.407562 175.844284,316.846222 175.303726,317.104492 
M226.217697,310.301453 
	C225.206177,310.178314 223.854218,309.603668 223.268494,310.045288 
	C222.520905,310.608917 222.392151,311.993317 221.217728,313.059509 
	C220.180130,313.084259 219.142548,313.109009 218.006714,312.168274 
	C218.000931,310.033203 218.089035,307.892883 217.970062,305.764130 
	C217.712280,301.152222 217.348495,296.546173 217.134598,291.924988 
	C217.134598,291.924988 217.154877,291.819641 216.763748,291.163879 
	C215.872345,292.068298 214.220703,292.960175 214.205536,293.879059 
	C214.027649,304.663818 214.031113,315.453400 214.161804,326.239594 
	C214.183441,328.025879 214.865845,330.143677 217.772964,327.281219 
	C216.991455,321.875671 219.512039,317.436920 222.815948,312.968018 
	C223.099228,312.936127 223.382523,312.904205 223.752106,313.542877 
	C224.992188,314.469666 226.232269,315.396454 227.472336,316.323242 
	C227.632416,316.079529 227.792496,315.835815 227.952576,315.592102 
	C227.299942,314.024200 226.647308,312.456268 226.217697,310.301453 
M276.011047,179.707687 
	C274.595581,161.624893 264.157227,150.736069 245.998016,149.993652 
	C228.033157,149.259201 210.022598,149.638168 192.031952,149.562042 
	C191.601410,149.560211 191.169189,149.952347 190.785980,150.137436 
	C190.785980,194.672333 190.785980,239.100113 190.785980,283.568237 
	C199.864426,283.568237 208.620850,283.568237 217.968262,283.568237 
	C217.968262,264.595337 217.968262,245.892426 217.968262,227.031479 
	C223.380859,227.031479 228.206085,226.867218 233.016235,227.066635 
	C242.240906,227.449081 246.145706,231.625549 246.147873,240.858963 
	C246.157150,280.190186 246.151810,319.521423 246.151825,358.852661 
	C246.151825,360.611450 246.151825,362.370239 246.151825,364.236450 
	C255.548904,364.236450 264.295776,364.236450 273.533020,364.236450 
	C273.533020,352.822601 273.927643,341.679962 273.408142,330.580109 
	C272.992615,321.701752 279.356659,316.895416 283.253326,309.847992 
	C292.029083,327.365784 300.338409,344.025482 308.756592,360.630005 
	C309.504181,362.104553 310.926941,364.295227 312.093567,364.331970 
	C321.646851,364.633026 331.213776,364.501648 341.312897,364.501648 
	C340.415070,362.682220 339.934418,361.644348 339.400116,360.634888 
	C327.268860,337.715485 315.187775,314.769165 302.927826,291.918762 
	C301.317200,288.916870 301.394897,286.731537 303.234497,283.882263 
	C313.701111,267.670898 323.980682,251.338638 334.312164,235.040100 
	C335.236969,233.581146 336.078705,232.069550 337.213898,230.151825 
	C328.213745,230.151825 320.047424,230.287933 311.889771,230.081009 
	C308.866577,230.004349 307.105072,230.950378 305.487976,233.547684 
	C297.137329,246.959991 288.582825,260.245453 280.079803,273.562622 
	C279.332367,274.733246 278.443115,275.813354 277.619720,276.935486 
	C275.950043,266.705902 275.647614,256.742950 274.941956,246.808685 
	C274.545959,241.234055 274.317291,235.418365 272.522766,230.226456 
	C269.894653,222.622635 263.422913,218.872849 253.905869,217.497986 
	C265.603973,214.313904 272.244415,207.678055 274.526184,197.475082 
	C275.744324,192.028320 275.580444,186.272476 276.011047,179.707687 
M199.082657,325.901855 
	C199.809875,327.035309 200.537094,328.168793 201.264313,329.302246 
	C202.057358,324.203583 201.524612,319.539246 202.211624,315.062134 
	C202.860229,310.835297 204.791641,306.805298 205.665527,304.173981 
	C203.566635,302.738922 202.350235,301.907257 200.955017,300.953308 
	C200.500565,301.334015 199.590637,301.733856 199.577621,302.161011 
	C199.345749,309.775879 199.222687,317.394073 199.082657,325.901855 
M232.849960,324.293121 
	C232.083176,323.227783 231.316376,322.162445 230.549591,321.097107 
	C230.009506,321.599731 229.469406,322.102356 228.929321,322.604950 
	C230.184555,323.377655 231.439789,324.150391 232.849960,324.293121 
M230.692719,307.397522 
	C230.905746,306.627960 231.118790,305.858398 231.331833,305.088837 
	C230.729355,304.982361 230.126862,304.875885 229.524384,304.769409 
	C229.685440,305.546875 229.846512,306.324310 230.692719,307.397522 
z"/>
<path fill="#030504" opacity="1.000000" stroke="none" 
	d="
M276.025696,180.181915 
	C275.580444,186.272476 275.744324,192.028320 274.526184,197.475082 
	C272.244415,207.678055 265.603973,214.313904 253.905869,217.497986 
	C263.422913,218.872849 269.894653,222.622635 272.522766,230.226456 
	C274.317291,235.418365 274.545959,241.234055 274.941956,246.808685 
	C275.647614,256.742950 275.950043,266.705902 277.619720,276.935486 
	C278.443115,275.813354 279.332367,274.733246 280.079803,273.562622 
	C288.582825,260.245453 297.137329,246.959991 305.487976,233.547684 
	C307.105072,230.950378 308.866577,230.004349 311.889771,230.081009 
	C320.047424,230.287933 328.213745,230.151825 337.213898,230.151825 
	C336.078705,232.069550 335.236969,233.581146 334.312164,235.040100 
	C323.980682,251.338638 313.701111,267.670898 303.234497,283.882263 
	C301.394897,286.731537 301.317200,288.916870 302.927826,291.918762 
	C315.187775,314.769165 327.268860,337.715485 339.400116,360.634888 
	C339.934418,361.644348 340.415070,362.682220 341.312897,364.501648 
	C331.213776,364.501648 321.646851,364.633026 312.093567,364.331970 
	C310.926941,364.295227 309.504181,362.104553 308.756592,360.630005 
	C300.338409,344.025482 292.029083,327.365784 283.253326,309.847992 
	C279.356659,316.895416 272.992615,321.701752 273.408142,330.580109 
	C273.927643,341.679962 273.533020,352.822601 273.533020,364.236450 
	C264.295776,364.236450 255.548904,364.236450 246.151825,364.236450 
	C246.151825,362.370239 246.151825,360.611450 246.151825,358.852661 
	C246.151810,319.521423 246.157150,280.190186 246.147873,240.858963 
	C246.145706,231.625549 242.240906,227.449081 233.016235,227.066635 
	C228.206085,226.867218 223.380859,227.031479 217.968262,227.031479 
	C217.968262,245.892426 217.968262,264.595337 217.968262,283.568237 
	C208.620850,283.568237 199.864426,283.568237 190.785980,283.568237 
	C190.785980,239.100113 190.785980,194.672333 190.785980,150.137436 
	C191.169189,149.952347 191.601410,149.560211 192.031952,149.562042 
	C210.022598,149.638168 228.033157,149.259201 245.998016,149.993652 
	C264.157227,150.736069 274.595581,161.624893 276.025696,180.181915 
M248.902954,185.891800 
	C248.218796,178.511246 245.350220,172.282684 237.540527,170.815796 
	C231.175003,169.620178 224.524841,169.939896 218.174561,169.597061 
	C218.174561,182.997849 218.174561,195.379440 218.174561,207.994553 
	C221.475494,207.994553 224.448349,207.995361 227.421204,207.994415 
	C243.053024,207.989395 248.832153,202.298691 248.902954,185.891800 
z"/>
<path fill="#2C7856" opacity="1.000000" stroke="none" 
	d="
M199.079437,325.456696 
	C199.222687,317.394073 199.345749,309.775879 199.577621,302.161011 
	C199.590637,301.733856 200.500565,301.334015 200.955017,300.953308 
	C202.350235,301.907257 203.566635,302.738922 205.665527,304.173981 
	C204.791641,306.805298 202.860229,310.835297 202.211624,315.062134 
	C201.524612,319.539246 202.057358,324.203583 201.264313,329.302246 
	C200.537094,328.168793 199.809875,327.035309 199.079437,325.456696 
z"/>
<path fill="#2C7856" opacity="1.000000" stroke="none" 
	d="
M217.405197,327.967041 
	C214.865845,330.143677 214.183441,328.025879 214.161804,326.239594 
	C214.031113,315.453400 214.027649,304.663818 214.205536,293.879059 
	C214.220703,292.960175 215.872345,292.068298 216.647766,291.795532 
	C216.380997,303.641693 216.208450,314.856079 216.137146,326.071136 
	C216.133148,326.700378 216.963287,327.334961 217.405197,327.967041 
z"/>
<path fill="#30CA80" opacity="1.000000" stroke="none" 
	d="
M189.804291,325.003693 
	C189.878220,323.490326 189.952148,321.976929 190.263199,319.962341 
	C192.557632,317.472168 192.248520,315.677887 190.031952,313.775635 
	C190.004410,313.336731 189.999283,313.160828 190.045471,312.722504 
	C190.059128,312.285797 190.021439,312.111542 189.983749,311.937256 
	C189.983749,311.937256 189.995316,312.000549 190.307953,311.948120 
	C190.767578,310.647247 190.914551,309.398743 191.061523,308.150269 
	C191.033066,307.976379 191.004623,307.802460 191.055054,307.100037 
	C191.763947,306.402008 192.393921,306.232513 193.023911,306.062988 
	C193.342529,311.398193 193.550049,316.743561 194.037598,322.063263 
	C194.218033,324.031921 195.056686,325.940186 195.856369,328.815186 
	C194.707535,328.488800 193.346512,328.102112 191.780273,327.093567 
	C190.984833,325.982361 190.394562,325.493042 189.804291,325.003693 
z"/>
<path fill="#28A669" opacity="1.000000" stroke="none" 
	d="
M217.589081,327.624146 
	C216.963287,327.334961 216.133148,326.700378 216.137146,326.071136 
	C216.208450,314.856079 216.380997,303.641693 216.843323,292.123413 
	C217.154877,291.819641 217.134598,291.924988 217.068604,292.403748 
	C217.002625,300.414124 217.002625,307.945770 217.002625,315.477417 
	C217.370071,315.469299 217.737503,315.461182 218.104950,315.453064 
	C218.104950,314.679962 218.104950,313.906860 218.104950,313.133759 
	C219.142548,313.109009 220.180130,313.084259 221.610245,313.021423 
	C222.002762,312.983307 221.960846,312.977142 221.960846,312.977142 
	C219.512039,317.436920 216.991455,321.875671 217.589081,327.624146 
z"/>
<path fill="#223A32" opacity="1.000000" stroke="none" 
	d="
M218.055832,312.651001 
	C218.104950,313.906860 218.104950,314.679962 218.104950,315.453064 
	C217.737503,315.461182 217.370071,315.469299 217.002625,315.477417 
	C217.002625,307.945770 217.002625,300.414124 217.015350,292.410095 
	C217.348495,296.546173 217.712280,301.152222 217.970062,305.764130 
	C218.089035,307.892883 218.000931,310.033203 218.055832,312.651001 
z"/>
<path fill="#91EED1" opacity="1.000000" stroke="none" 
	d="
M189.469086,324.956451 
	C190.394562,325.493042 190.984833,325.982361 191.634186,326.755554 
	C188.998779,327.608612 186.304260,328.177826 183.497253,328.770782 
	C183.855087,325.987183 184.623154,323.225037 189.469086,324.956451 
z"/>
<path fill="#2C7856" opacity="1.000000" stroke="none" 
	d="
M225.994675,310.888367 
	C226.647308,312.456268 227.299942,314.024200 227.952576,315.592102 
	C227.792496,315.835815 227.632416,316.079529 227.472336,316.323242 
	C226.232269,315.396454 224.992188,314.469666 223.898132,313.038208 
	C224.694336,311.985138 225.344498,311.436768 225.994675,310.888367 
z"/>
<path fill="#91EED1" opacity="1.000000" stroke="none" 
	d="
M176.961395,325.497070 
	C178.054321,326.592712 179.147247,327.688354 180.240173,328.783997 
	C179.823715,329.260101 179.407272,329.736206 178.990814,330.212341 
	C177.693420,329.350952 176.396027,328.489594 175.347778,327.466309 
	C176.051743,326.701935 176.506577,326.099518 176.961395,325.497070 
z"/>
<path fill="#2C7856" opacity="1.000000" stroke="none" 
	d="
M232.772491,324.608093 
	C231.439789,324.150391 230.184555,323.377655 228.929321,322.604950 
	C229.469406,322.102356 230.009506,321.599731 230.549591,321.097107 
	C231.316376,322.162445 232.083176,323.227783 232.772491,324.608093 
z"/>
<path fill="#28A669" opacity="1.000000" stroke="none" 
	d="
M189.994156,312.984955 
	C189.999283,313.160828 190.004410,313.336731 189.732101,313.793671 
	C188.982666,314.390503 188.510651,314.706268 188.038635,315.022034 
	C186.940674,315.023102 185.842712,315.024139 184.349838,315.059326 
	C183.954926,315.093475 183.909256,315.111328 183.938416,314.845978 
	C183.978516,314.402954 183.989471,314.225311 183.893631,313.770447 
	C183.496063,313.224854 183.205276,312.956512 182.914490,312.688171 
	C184.032730,312.476074 185.150955,312.263977 186.831833,312.365173 
	C188.261032,312.780640 189.127594,312.882812 189.994156,312.984955 
z"/>
<path fill="#223A32" opacity="1.000000" stroke="none" 
	d="
M174.080872,323.880829 
	C173.501862,323.045898 172.922852,322.210938 172.382767,321.432159 
	C172.763596,321.010712 173.352661,320.358856 174.410126,319.396545 
	C175.118500,319.059021 175.358459,319.031982 175.598434,319.004913 
	C175.760544,320.851990 175.922653,322.699097 175.485703,324.544434 
	C174.618073,324.322113 174.349472,324.101471 174.080872,323.880829 
z"/>
<path fill="#91EED1" opacity="1.000000" stroke="none" 
	d="
M188.344696,315.188538 
	C188.510651,314.706268 188.982666,314.390503 189.754517,314.056671 
	C192.248520,315.677887 192.557632,317.472168 190.228210,319.638184 
	C189.520996,318.328552 189.085876,316.841766 188.344696,315.188538 
z"/>
<path fill="#30CA80" opacity="1.000000" stroke="none" 
	d="
M226.106186,310.594910 
	C225.344498,311.436768 224.694336,311.985138 223.854980,312.702942 
	C223.382523,312.904205 223.099228,312.936127 222.388397,312.972595 
	C221.960846,312.977142 222.002762,312.983307 221.999725,313.003632 
	C222.392151,311.993317 222.520905,310.608917 223.268494,310.045288 
	C223.854218,309.603668 225.206177,310.178314 226.106186,310.594910 
z"/>
<path fill="#223A32" opacity="1.000000" stroke="none" 
	d="
M189.459183,305.446228 
	C186.456757,304.904816 183.454315,304.363373 180.702026,303.410950 
	C183.628113,303.025269 186.304077,303.050598 188.980026,303.075928 
	C188.980026,303.075958 188.995697,303.007629 189.028793,303.309937 
	C189.368576,304.082214 189.675278,304.552185 189.849945,305.126526 
	C189.717926,305.230927 189.459183,305.446228 189.459183,305.446228 
z"/>
<path fill="#91EED1" opacity="1.000000" stroke="none" 
	d="
M178.988419,315.029602 
	C178.704422,315.104248 178.463776,315.250305 177.787689,315.590637 
	C176.820587,315.798645 176.332306,315.883820 175.844025,315.968994 
	C172.675308,313.087769 176.532318,313.843781 177.650391,313.313904 
	C178.245544,313.831146 178.554077,314.067871 178.907898,314.524475 
	C178.953171,314.744324 179.161484,315.142700 179.101929,315.139343 
	C179.042374,315.135986 178.988419,315.029602 178.988419,315.029602 
z"/>
<path fill="#30CA80" opacity="1.000000" stroke="none" 
	d="
M188.773804,302.714996 
	C186.304077,303.050598 183.628113,303.025269 180.510895,303.060364 
	C182.902267,302.865234 185.734924,302.609650 188.773804,302.714996 
z"/>
<path fill="#28A669" opacity="1.000000" stroke="none" 
	d="
M190.810364,308.370605 
	C190.914551,309.398743 190.767578,310.647247 190.293594,311.919067 
	C190.164108,310.825287 190.361649,309.708099 190.810364,308.370605 
z"/>
<path fill="#30CA80" opacity="1.000000" stroke="none" 
	d="
M230.350143,307.249634 
	C229.846512,306.324310 229.685440,305.546875 229.524384,304.769409 
	C230.126862,304.875885 230.729355,304.982361 231.331818,305.088837 
	C231.118790,305.858398 230.905746,306.627960 230.350143,307.249634 
z"/>
<path fill="#223A32" opacity="1.000000" stroke="none" 
	d="
M178.862625,314.304626 
	C178.554077,314.067871 178.245544,313.831146 177.962677,313.295197 
	C179.353683,312.908447 180.719025,312.820892 182.499435,312.710754 
	C183.205276,312.956512 183.496063,313.224854 183.465363,313.738525 
	C181.716797,314.090790 180.289703,314.197693 178.862625,314.304626 
z"/>
<path fill="#223A32" opacity="1.000000" stroke="none" 
	d="
M192.990723,305.908875 
	C192.393921,306.232513 191.763947,306.402008 191.038773,306.836182 
	C190.533051,306.726288 190.122513,306.351715 189.585571,305.711670 
	C189.459183,305.446228 189.717926,305.230927 190.111221,305.113495 
	C190.678406,304.984436 190.852280,304.972778 191.026138,304.961151 
	C191.669937,305.225677 192.313736,305.490204 192.990723,305.908875 
z"/>
<path fill="#030504" opacity="1.000000" stroke="none" 
	d="
M183.938370,315.075745 
	C182.382019,315.273743 180.842239,315.489471 179.145432,315.367401 
	C178.988419,315.029602 179.042374,315.135986 179.497925,315.129883 
	C181.272064,315.119629 182.590652,315.115479 183.909256,315.111328 
	C183.909256,315.111328 183.954926,315.093475 183.938370,315.075745 
z"/>
<path fill="#28A669" opacity="1.000000" stroke="none" 
	d="
M176.606476,325.280090 
	C176.506577,326.099518 176.051743,326.701935 175.317352,327.111938 
	C175.037811,326.919525 175.049896,326.456055 175.017914,326.231506 
	C174.985916,326.006958 174.957382,326.014221 174.957367,326.014221 
	C175.388763,325.697174 175.820145,325.380157 176.606476,325.280090 
z"/>
<path fill="#28A669" opacity="1.000000" stroke="none" 
	d="
M173.784454,323.980774 
	C174.349472,324.101471 174.618073,324.322113 175.124847,325.008484 
	C175.427032,325.667267 175.380524,325.828735 175.090424,325.986450 
	C174.957382,326.014221 174.985916,326.006958 174.996292,326.000732 
	C174.500473,325.356567 173.994263,324.718628 173.784454,323.980774 
z"/>
<path fill="#2C7856" opacity="1.000000" stroke="none" 
	d="
M175.774658,318.874756 
	C175.358459,319.031982 175.118500,319.059021 174.516296,319.095764 
	C174.537277,318.438446 174.920502,317.771454 175.764069,317.179932 
	C176.364822,317.377563 176.505219,317.499817 176.645599,317.622040 
	C176.414017,317.996216 176.182434,318.370422 175.774658,318.874756 
z"/>
<path fill="#223A32" opacity="1.000000" stroke="none" 
	d="
M190.045471,312.722504 
	C189.127594,312.882812 188.261032,312.780640 187.183044,312.422791 
	C187.726120,312.044495 188.480637,311.921875 189.609436,311.868256 
	C190.021439,312.111542 190.059128,312.285797 190.045471,312.722504 
z"/>
<path fill="#30CA80" opacity="1.000000" stroke="none" 
	d="
M191.041595,304.603455 
	C190.852280,304.972778 190.678406,304.984436 190.243256,305.009094 
	C189.675278,304.552185 189.368576,304.082214 188.999390,303.329041 
	C189.643616,303.445770 190.350327,303.845734 191.041595,304.603455 
z"/>
<path fill="#2C7856" opacity="1.000000" stroke="none" 
	d="
M175.871094,316.188263 
	C176.332306,315.883820 176.820587,315.798645 177.677277,315.773315 
	C177.760757,316.330170 177.475861,316.827179 176.918274,317.473083 
	C176.505219,317.499817 176.364822,317.377563 176.034348,317.050781 
	C175.844284,316.846222 175.898178,316.407562 175.871094,316.188263 
z"/>
<path fill="#95F4D6" opacity="1.000000" stroke="none" 
	d="
M248.944183,186.326324 
	C248.832153,202.298691 243.053024,207.989395 227.421204,207.994415 
	C224.448349,207.995361 221.475494,207.994553 218.174561,207.994553 
	C218.174561,195.379440 218.174561,182.997849 218.174561,169.597061 
	C224.524841,169.939896 231.175003,169.620178 237.540527,170.815796 
	C245.350220,172.282684 248.218796,178.511246 248.944183,186.326324 
z"/>
<path fill="#30CA80" opacity="1.000000" stroke="none" 
	d="
M183.938416,314.845978 
	C182.590652,315.115479 181.272064,315.119629 179.557465,315.133240 
	C179.161484,315.142700 178.953171,314.744324 178.907898,314.524475 
	C180.289703,314.197693 181.716797,314.090790 183.572144,314.015778 
	C183.989471,314.225311 183.978516,314.402954 183.938416,314.845978 
z"/>
</svg>