<svg version="1.1" id="Layer_1" xmlns="http://www.w3.org/2000/svg" xmlns:xlink="http://www.w3.org/1999/xlink" x="0px" y="0px"
	 width="100%" viewBox="0 0 1800 1200" enable-background="new 0 0 1800 1200" xml:space="preserve">
<path fill="#000000" opacity="1.000000" stroke="none" 
	d="
M1293.000000,1201.000000 
	C862.000061,1201.000000 431.500153,1201.000000 1.000173,1201.000000 
	C1.000116,801.000122 1.000116,401.000305 1.000058,1.000334 
	C600.999756,1.000223 1200.999512,1.000223 1800.999512,1.000111 
	C1800.999634,400.999664 1800.999634,800.999329 1800.999756,1200.999512 
	C1631.833374,1201.000000 1462.666626,1201.000000 1293.000000,1201.000000 
M1092.174194,663.014282 
	C1092.835083,663.072510 1093.495972,663.130676 1094.156860,663.188904 
	C1093.699463,662.594177 1093.242188,661.999451 1092.651245,660.565552 
	C1092.368896,659.973083 1092.086670,659.380554 1091.804321,658.788086 
	C1091.713379,660.037231 1091.622437,661.286377 1092.174194,663.014282 
M320.232269,483.052551 
	C318.810577,483.116638 317.388916,483.180695 315.197357,483.157745 
	C313.137848,483.483704 311.078339,483.809662 308.105957,483.979919 
	C303.493500,484.338623 298.881042,484.697357 294.268555,485.056061 
	C294.326111,485.644867 294.383667,486.233704 294.441193,486.822510 
	C299.300964,486.497955 304.160767,486.173401 309.811920,485.980652 
	C311.870178,485.623749 313.928436,485.266815 316.853180,485.079071 
	C318.903229,484.973358 320.953308,484.867645 323.828949,484.839142 
	C325.210663,484.409119 326.592377,483.979095 327.974121,483.549042 
	C327.829529,483.037506 327.684937,482.525970 327.540344,482.014404 
	C325.157288,482.597870 322.774261,483.181335 320.232269,483.052551 
M1115.687134,644.129761 
	C1115.687134,644.129761 1115.730347,644.071289 1116.301392,644.711121 
	C1121.824341,643.872803 1127.347412,643.034424 1132.870361,642.196106 
	C1132.815430,641.581360 1132.760498,640.966553 1132.705444,640.351746 
	C1127.149048,640.658936 1121.592529,640.966064 1115.130127,641.062256 
	C1112.817993,641.171509 1110.505859,641.280762 1108.193726,641.389954 
	C1108.216919,641.730713 1108.239990,642.071411 1108.263062,642.412170 
	C1110.130737,642.921082 1111.998413,643.429993 1112.926147,644.091003 
	C1112.878906,644.662842 1112.831787,645.234741 1112.784546,645.806580 
	C1113.733521,645.270264 1114.682373,644.733948 1115.687134,644.129761 
M1193.996582,628.997681 
	C1193.996582,628.997681 1193.963135,629.013855 1194.511353,629.630737 
	C1196.679810,627.408997 1198.848267,625.187256 1200.996460,622.997253 
	C1200.996460,622.997253 1200.962524,623.013550 1201.499268,623.633301 
	C1204.338989,620.742920 1207.178711,617.852539 1209.993164,614.997681 
	C1209.993164,614.997681 1209.953125,615.015564 1210.613281,615.522400 
	C1211.259399,615.016235 1211.905396,614.510010 1212.687378,613.838745 
	C1212.687378,613.838745 1213.002441,613.552673 1213.532837,613.080139 
	C1220.034546,606.049866 1226.536255,599.019653 1233.001465,592.001831 
	C1233.001465,592.001831 1232.992554,592.039429 1233.653809,591.884888 
	C1238.139038,586.392944 1242.829346,581.053284 1247.051514,575.366028 
	C1251.232666,569.733948 1254.941528,563.751282 1258.943359,557.359863 
	C1258.943359,556.553528 1258.943359,555.747192 1258.943359,553.653320 
	C1239.379639,564.820435 1224.045288,579.768677 1208.292725,595.231445 
	C1200.825928,604.351440 1193.019287,613.218872 1185.998169,622.669983 
	C1180.208740,630.462952 1175.349487,638.947021 1169.393066,647.220764 
	C1164.534790,650.436523 1159.676392,653.652283 1154.127075,657.027771 
	C1147.779785,659.795959 1141.586426,663.068970 1135.006958,665.075806 
	C1132.489624,665.843567 1128.419067,664.516418 1126.258057,662.708008 
	C1123.462891,660.368958 1125.831787,657.274780 1127.502441,654.777588 
	C1129.092407,652.401001 1130.701904,650.037476 1132.302856,647.668213 
	C1131.972656,647.231506 1131.642456,646.794800 1131.312256,646.358093 
	C1120.135010,654.601074 1108.956055,662.840332 1094.307007,663.075806 
	C1105.739380,665.160522 1114.860474,659.501221 1124.284912,654.100098 
	C1122.705200,666.258362 1128.023438,670.384521 1139.494629,665.975586 
	C1145.173340,663.792908 1150.469727,660.615234 1156.630859,657.795166 
	C1159.009155,656.299011 1161.318115,654.672119 1163.793701,653.359436 
	C1165.121094,652.655701 1166.735107,652.492371 1168.047729,652.896240 
	C1167.781250,653.841858 1167.481689,654.779480 1167.253540,655.734192 
	C1164.788086,666.050964 1172.635620,674.788574 1182.770752,671.955261 
	C1193.259888,669.022888 1203.335327,664.610718 1213.997681,661.824219 
	C1213.071289,664.428711 1212.145020,667.033203 1211.218628,669.637634 
	C1214.162964,669.737732 1217.515625,670.791992 1219.968018,669.742554 
	C1225.346924,667.440857 1230.269897,664.073792 1235.963623,661.843079 
	C1236.180664,662.056396 1236.397705,662.269775 1236.473389,663.171021 
	C1236.238037,667.025024 1238.369263,669.427002 1241.883667,669.359070 
	C1246.543823,669.268982 1251.302368,668.625549 1255.801270,667.413391 
	C1260.276978,666.207520 1264.483765,664.003540 1267.990234,662.571411 
	C1269.583374,665.038269 1270.817139,666.948547 1272.738403,669.215820 
	C1274.162476,669.291382 1275.628662,669.622498 1277.002930,669.395935 
	C1281.686157,668.623962 1286.337158,667.655701 1291.818970,666.787109 
	C1298.307373,665.422607 1304.428955,664.743896 1308.879883,671.529968 
	C1309.878174,673.051941 1313.047729,674.171265 1314.975098,673.878540 
	C1321.908325,672.825562 1328.763184,671.195679 1335.598755,669.577576 
	C1341.330078,668.220947 1346.940796,665.545166 1352.696533,665.251770 
	C1370.440918,664.347168 1388.229248,664.303833 1406.714233,664.321838 
	C1420.094849,664.802490 1433.475586,665.283142 1447.768311,665.965942 
	C1452.870117,665.537781 1457.971924,665.109680 1463.073730,664.681519 
	C1463.034180,664.532104 1462.994629,664.382751 1462.955078,664.233337 
	C1457.284302,664.233337 1451.613403,664.233337 1445.040161,664.146118 
	C1431.999756,663.816467 1418.959229,663.486816 1405.020508,663.077942 
	C1391.057983,662.763367 1377.096069,662.271606 1363.132690,662.225159 
	C1357.871826,662.207764 1352.463745,662.639709 1347.377197,663.896729 
	C1338.796753,666.017029 1330.514648,669.361816 1321.919189,671.398132 
	C1317.021606,672.558289 1311.399170,673.831848 1308.011597,667.493042 
	C1307.286621,666.136414 1304.749878,665.179749 1302.980103,665.062683 
	C1298.688232,664.778687 1294.356567,665.097595 1289.223511,665.043335 
	C1283.871948,665.997620 1278.520508,666.951965 1272.730469,667.231201 
	C1271.950073,665.019226 1271.169678,662.807251 1270.137329,659.881165 
	C1266.850952,661.209656 1263.649536,662.823669 1260.264160,663.799561 
	C1254.775146,665.382019 1249.223877,667.164307 1243.588867,667.694885 
	C1238.907959,668.135559 1237.655884,665.416321 1239.341553,660.993225 
	C1239.895996,659.538391 1240.151001,657.969421 1240.836060,655.317810 
	C1230.854126,660.385742 1223.944092,668.678833 1213.378906,669.018188 
	C1213.021118,668.620178 1212.663330,668.222107 1212.305542,667.824036 
	C1213.607910,666.157654 1214.910278,664.491333 1216.854004,662.459351 
	C1227.133301,657.555847 1237.412720,652.652283 1248.052856,647.576660 
	C1246.951416,647.660889 1246.044556,647.551025 1245.266113,647.816895 
	C1235.017822,651.317383 1224.772339,654.827087 1214.557129,658.422668 
	C1203.596558,662.280640 1192.817139,666.744934 1181.675903,669.966309 
	C1173.940063,672.203064 1167.159302,664.794250 1169.345825,656.967590 
	C1170.514160,652.785339 1173.083008,648.994324 1175.696411,644.898010 
	C1180.145386,641.263062 1184.594482,637.628113 1189.002441,634.002380 
	C1189.002441,634.002380 1188.988159,634.042114 1189.676636,633.927612 
	C1191.123291,632.273987 1192.570068,630.620300 1193.996582,628.997681 
M276.278625,484.006958 
	C273.635254,483.227570 270.991882,482.448181 268.348511,481.668762 
	C268.167969,482.181000 267.987427,482.693207 267.806885,483.205444 
	C270.550507,484.081512 273.294159,484.957611 276.848938,485.991669 
	C279.094421,486.234009 281.339935,486.476318 283.585419,486.718628 
	C283.642212,486.285065 283.699005,485.851501 283.755798,485.417908 
	C281.503174,485.022797 279.250549,484.627686 276.278625,484.006958 
M850.596375,435.369537 
	C851.073547,434.910339 851.550720,434.451172 852.001465,434.001038 
	C852.001465,434.001038 851.987976,434.025452 852.659180,433.917908 
	C856.342773,430.465027 860.170044,427.149261 863.650085,423.502167 
	C865.423584,421.643585 866.573425,419.189911 868.000000,417.000000 
	C868.000000,417.000000 868.005920,417.004761 868.681641,417.308990 
	C870.817139,414.633911 872.952576,411.958832 875.088074,409.283752 
	C874.672424,408.837463 874.256775,408.391174 873.841125,407.944855 
	C866.797668,410.234528 860.662292,414.232147 854.299927,419.225525 
	C851.187927,422.152649 848.075928,425.079773 844.996277,427.996185 
	C844.996277,427.996185 845.008911,427.964600 844.336975,428.062531 
	C838.843201,433.349182 833.349487,438.635834 827.469238,444.519073 
	C827.640991,444.682281 827.812744,444.845520 828.007446,445.000061 
	C828.007446,445.000061 828.022949,444.981079 827.470337,444.391418 
	C819.915710,451.545013 812.340637,458.677429 804.846863,465.894196 
	C804.275146,466.444763 804.279053,467.592957 803.940430,468.868073 
	C803.627136,469.402069 803.313904,469.936066 801.201599,470.330078 
	C800.718872,471.371033 800.236145,472.411987 799.578613,473.467590 
	C799.578613,473.467590 799.413513,473.636200 798.833984,473.707031 
	C798.765442,473.889130 798.696838,474.071259 797.977783,473.926819 
	C795.905273,475.860596 793.832825,477.794342 791.014954,479.796173 
	C777.260803,485.709778 762.773926,487.899506 747.938171,487.813629 
	C745.926880,487.801971 743.072937,486.088287 742.219788,484.365143 
	C741.638184,483.190460 743.355164,479.765076 744.924133,478.843140 
	C750.013550,475.852600 755.393494,473.261566 760.887268,471.087097 
	C764.591675,469.620911 768.677124,469.117462 772.966492,468.094025 
	C772.221313,467.309814 771.957275,466.807648 771.566345,466.672607 
	C770.967102,466.465607 770.268494,466.398529 769.632996,466.466949 
	C761.101562,467.385315 753.288879,470.123352 746.116089,474.987274 
	C741.625671,478.032288 736.842529,480.792450 731.869141,482.933197 
	C727.655457,484.746857 722.985291,485.447601 719.119690,481.740448 
	C720.351685,478.781250 721.448181,476.147552 723.145020,473.239014 
	C725.236633,471.388153 727.328308,469.537323 729.419922,467.686493 
	C729.132080,467.423248 728.844177,467.160034 728.556335,466.896790 
	C723.684753,469.564911 718.813232,472.233032 713.941650,474.901123 
	C714.127075,475.323639 714.312500,475.746155 714.497986,476.168671 
	C716.343323,475.397278 718.188660,474.625885 720.359924,474.573486 
	C719.712646,477.554260 715.098755,479.735687 717.979004,483.307526 
	C720.972656,487.019989 725.503723,486.701569 729.540649,485.672485 
	C733.004761,484.789398 736.208496,482.884583 739.531738,481.429688 
	C740.480713,487.610168 742.867188,489.967621 749.329346,489.910522 
	C754.441772,489.865387 759.601196,489.346863 764.643311,488.478333 
	C772.755127,487.081024 780.787354,485.221619 788.022888,484.311859 
	C786.744141,485.935669 785.465393,487.559448 784.186646,489.183258 
	C784.562805,489.521698 784.938965,489.860168 785.315125,490.198639 
	C788.286438,487.832733 791.257690,485.466827 794.138550,482.996613 
	C794.138550,482.996613 794.207764,483.107025 794.793152,483.433075 
	C795.510254,482.920013 796.227356,482.406952 797.630188,481.798004 
	C805.162170,476.621643 812.500183,471.068756 822.579956,468.536682 
	C821.634399,470.301727 821.280945,471.181885 820.743103,471.929352 
	C817.548950,476.368134 814.273926,480.748932 811.103760,485.204529 
	C809.118958,487.994110 810.387817,490.078461 813.116089,491.036499 
	C815.056580,491.717926 817.392090,491.998352 819.396057,491.624817 
	C823.576111,490.845581 827.653381,489.514648 831.863464,488.386078 
	C831.725586,492.811523 834.515076,494.047150 838.474976,494.139069 
	C846.318726,494.321136 852.209595,490.261322 857.737061,485.109497 
	C858.649048,490.703033 860.690430,492.281921 865.551941,490.704315 
	C872.315979,488.509308 878.138367,484.829102 882.083618,478.637024 
	C883.307190,476.716614 884.752075,474.937134 886.395874,472.680939 
	C890.331055,476.194794 893.855591,479.342072 897.526245,482.619690 
	C894.714722,484.456207 892.173767,485.749756 890.130127,487.594299 
	C888.984985,488.627930 888.663391,490.574005 887.970764,492.109009 
	C889.601501,492.717560 891.289246,493.940613 892.850098,493.795837 
	C895.426514,493.556885 897.955811,492.532959 900.439087,491.653717 
	C902.471436,490.934174 904.407715,489.943420 905.544983,489.443115 
	C906.132507,492.389252 906.582458,494.645569 907.597412,497.211670 
	C918.399048,496.279022 924.795227,487.845947 933.271179,481.147369 
	C933.138123,482.971649 933.197205,483.608154 933.033997,484.181366 
	C930.814514,491.975616 931.087585,492.840424 937.797668,497.214478 
	C939.871521,498.566345 942.005432,499.905426 944.276123,500.859680 
	C949.220764,502.937592 955.906616,502.768860 960.219482,499.908997 
	C951.167664,501.835510 944.249390,499.787415 937.969421,495.186768 
	C933.114075,491.629852 932.221863,489.566772 935.295532,484.364990 
	C939.578979,477.115936 944.169189,469.998840 949.202759,463.254089 
	C956.353882,453.671906 964.046326,444.494537 971.448425,435.097656 
	C972.186829,434.160217 972.517273,432.901398 973.037048,431.791718 
	C962.662598,442.718109 953.466064,454.254303 944.052551,465.610474 
	C941.239319,469.004181 938.256287,472.625214 934.567505,474.833160 
	C929.801453,477.685852 924.249329,479.225189 918.338928,481.468842 
	C908.767090,484.353455 900.757080,491.725281 890.267517,491.973328 
	C889.970825,491.461395 889.674194,490.949493 889.377502,490.437561 
	C892.870728,488.004456 896.364014,485.571320 900.215088,482.888947 
	C897.361938,480.271027 894.773438,477.739960 892.020691,475.402435 
	C886.118713,470.390656 885.205200,470.492004 881.069397,476.987640 
	C877.324585,482.869263 871.939026,486.550262 865.533875,488.755402 
	C864.028137,489.273804 862.077759,488.501007 860.331970,488.322235 
	C860.518311,486.605042 860.358276,484.750275 860.972656,483.203064 
	C861.881653,480.913757 863.472595,478.904755 864.526184,476.660461 
	C865.469543,474.650940 865.253357,473.451477 862.152405,474.257568 
	C861.922852,473.978424 861.693359,473.699280 862.122925,473.066711 
	C864.725342,472.130890 867.327820,471.195068 869.930298,470.259277 
	C868.592224,469.193909 867.480469,468.937622 866.441467,469.112762 
	C856.477295,470.792511 847.237427,474.260132 839.549805,480.994781 
	C833.576660,486.227448 826.325256,488.296875 818.868713,489.759155 
	C816.746338,490.175354 814.342773,489.157166 812.013245,488.788055 
	C814.289917,480.062805 822.843933,475.853455 824.429321,466.282227 
	C820.821106,467.280640 818.379028,468.073029 815.880615,468.596222 
	C814.713806,468.840546 813.437927,468.563965 813.013245,468.050232 
	C816.313965,465.526306 819.730774,463.137390 822.875916,460.432648 
	C825.103394,458.517151 826.963562,456.174561 829.005310,454.004272 
	C829.005310,454.004272 829.025940,453.989319 829.674255,454.396088 
	C831.780945,452.269043 833.887695,450.141968 836.002441,448.002167 
	C836.002441,448.002167 836.016052,447.995117 836.677917,448.352570 
	C841.122498,443.898651 845.567139,439.444702 849.998352,434.998810 
	C849.998352,434.998810 849.987366,435.009888 850.596375,435.369537 
M1031.731689,812.925903 
	C1038.427856,810.508118 1045.123901,808.090332 1052.600464,805.412781 
	C1053.168091,804.949585 1053.735718,804.486389 1054.303345,804.023132 
	C1053.041870,804.093811 1051.780396,804.164490 1049.818970,804.553711 
	C1042.791626,807.013306 1035.764404,809.472961 1028.515381,812.789307 
	C1029.329102,812.807800 1030.142944,812.826294 1031.731689,812.925903 
M1061.808472,800.084351 
	C1062.522705,800.330505 1063.237061,800.576660 1064.682129,800.801819 
	C1075.306030,796.062378 1085.929932,791.322876 1097.010620,786.337402 
	C1097.321899,786.190735 1097.633179,786.044128 1098.672974,785.879822 
	C1113.198608,779.346008 1127.724121,772.812256 1142.249756,766.278442 
	C1126.284180,770.501282 1111.373169,777.271423 1096.338135,784.909912 
	C1096.028809,784.938965 1095.753662,785.051697 1094.830078,785.537415 
	C1084.097778,790.293457 1073.365356,795.049438 1061.808472,800.084351 
M405.739624,892.956909 
	C405.739624,883.302856 405.739624,873.648804 405.739624,863.994751 
	C405.227112,864.011658 404.714630,864.028564 404.202118,864.045410 
	C404.202118,874.001343 404.202118,883.957214 404.006897,894.843506 
	C404.006897,927.214783 404.006897,959.586060 404.006897,991.957336 
	C404.824310,990.188171 404.801819,988.404663 404.827972,986.621826 
	C404.986542,975.816467 405.222290,965.011902 405.307739,954.205994 
	C405.466705,934.095093 405.540283,913.983398 405.739624,892.956909 
M710.982849,477.888245 
	C711.824402,477.274933 712.666016,476.661652 713.507568,476.048340 
	C713.239929,475.535980 712.972290,475.023590 712.704590,474.511230 
	C685.641235,491.658020 655.998535,497.542938 624.290405,494.409271 
	C624.387268,495.223694 624.484070,496.038147 624.580933,496.852570 
	C633.523499,496.852570 642.473755,497.091705 651.407104,496.804535 
	C672.209045,496.135834 691.143555,489.251801 709.520081,478.934967 
	C709.739624,478.650085 709.959106,478.365173 710.982849,477.888245 
M1140.577881,291.648071 
	C1147.856567,280.361664 1155.135254,269.075256 1162.414062,257.788849 
	C1161.846558,257.429321 1161.279175,257.069824 1160.711670,256.710297 
	C1153.411011,268.106354 1146.110352,279.502411 1138.226440,291.226593 
	C1066.000488,401.229523 1000.038757,514.875977 940.070862,632.448730 
	C928.267639,621.898743 914.225769,617.492737 899.158752,616.192383 
	C888.859680,615.303467 878.680176,616.647156 869.153748,620.987061 
	C860.620728,624.874451 855.756104,634.439087 857.953308,642.402039 
	C860.035645,649.948730 866.883240,655.029785 875.484314,654.988770 
	C888.613953,654.926147 901.393494,652.535889 913.816772,648.362671 
	C921.266357,645.859985 928.615479,643.058044 935.728027,640.492310 
	C922.231201,670.492493 908.452271,700.303040 895.354004,730.409607 
	C870.577393,787.358765 850.111389,845.812622 835.890259,906.334839 
	C832.129333,922.340576 829.206726,938.542236 825.766052,954.625488 
	C825.367004,956.490723 824.112244,958.172913 823.143555,960.167847 
	C825.634705,962.222534 827.020630,960.194092 827.617920,957.080750 
	C828.270691,953.678223 828.443970,950.181274 829.138306,946.789429 
	C837.730042,904.816895 848.858765,863.502441 862.582642,822.938171 
	C883.861267,760.043640 910.814697,699.502686 939.787415,639.832458 
	C940.177185,639.029663 940.803650,638.341736 941.552185,637.266235 
	C942.707336,638.512695 943.617737,639.430908 944.457031,640.410156 
	C956.812744,654.827026 960.101929,672.613953 961.731628,690.522034 
	C963.387634,708.719482 963.275085,727.076721 963.980286,745.362305 
	C964.473267,758.147156 966.434143,770.800598 972.179626,782.229004 
	C980.311401,798.404236 990.825378,812.513611 1010.558167,815.635010 
	C1016.065857,816.506348 1021.421204,816.070923 1026.375732,813.284302 
	C1025.599609,812.761902 1024.887573,812.733643 1024.210571,812.874268 
	C1013.472046,815.104919 1003.226379,813.505859 994.671143,806.755005 
	C985.648071,799.634949 978.492371,790.744080 973.919189,779.898865 
	C967.823425,765.442688 966.631775,750.221313 966.018616,734.846252 
	C965.409058,719.561096 965.177795,704.242432 963.953369,689.004883 
	C962.419495,669.916870 958.278381,651.538818 944.437195,636.519043 
	C946.225952,635.548706 947.633972,634.818115 949.010803,634.032776 
	C960.294189,627.596985 972.281189,622.121033 982.699341,614.500854 
	C1002.634338,599.919617 1022.054260,584.568237 1040.984375,568.697449 
	C1060.863892,552.030762 1080.793213,535.257263 1099.137451,516.962952 
	C1129.556274,486.626953 1158.735474,455.047211 1188.413574,423.969238 
	C1202.664917,409.045746 1216.862915,394.071442 1231.722656,378.898010 
	C1234.188232,376.303925 1236.653687,373.709869 1239.119263,371.115784 
	C1238.731567,370.724762 1238.343872,370.333771 1237.956177,369.942749 
	C1235.581055,372.325562 1233.205811,374.708374 1230.219604,377.488678 
	C1224.181641,383.468628 1217.996460,389.308105 1212.130493,395.452148 
	C1181.765869,427.255585 1151.311279,458.975677 1121.223389,491.039551 
	C1094.958618,519.029053 1066.289062,544.394287 1036.843506,568.865479 
	C1017.346558,585.068604 997.202332,600.549438 976.697510,615.459167 
	C966.697144,622.730774 955.209656,627.957275 944.395325,634.109558 
	C944.059082,633.697083 943.722900,633.284668 943.386719,632.872253 
	C944.068787,631.303040 944.679138,629.697937 945.443176,628.169739 
	C986.475037,546.089600 1032.027588,466.520721 1079.516968,388.057098 
	C1099.103760,355.695160 1119.811523,324.011810 1140.577881,291.648071 
M484.754578,467.814667 
	C483.927826,467.879364 483.096741,467.909546 482.274994,468.013794 
	C464.122284,470.315796 446.006073,472.976654 427.806763,474.815582 
	C414.954224,476.114227 401.985046,476.231506 389.076813,477.020844 
	C384.475098,477.302216 379.899384,478.009094 375.311798,478.521759 
	C376.597504,479.789581 377.914001,480.062073 379.209320,479.983826 
	C388.952118,479.395203 398.714264,478.983398 408.426025,478.053131 
	C432.914642,475.707397 457.379944,473.118286 482.731689,470.848785 
	C482.656616,472.385834 482.873718,474.005768 482.464661,475.448090 
	C459.491272,556.451294 437.896912,637.790894 421.660309,720.470154 
	C413.282898,763.129089 406.304199,805.956909 404.296997,849.462463 
	C404.240631,850.684021 404.547333,851.922302 404.684753,853.152832 
	C406.026733,846.109253 406.322876,839.211426 407.030212,832.356018 
	C408.545502,817.669800 409.660156,802.905090 412.040955,788.352905 
	C417.091187,757.484192 421.732788,726.481445 428.563416,695.986450 
	C439.909607,645.332153 452.560120,594.961975 465.236877,544.617126 
	C471.532745,519.613464 479.107819,494.931854 486.906891,469.934601 
	C492.405884,468.923401 497.878845,467.707703 503.416840,467.002808 
	C505.593048,466.725861 508.492218,466.835876 510.082489,468.051361 
	C530.362732,483.552460 551.255859,498.381378 570.445435,515.152222 
	C608.860840,548.725525 644.045837,585.512878 674.218750,626.828125 
	C694.368408,654.418701 711.933960,683.356995 717.442932,717.849609 
	C720.190674,735.053406 716.568970,750.906067 696.295593,758.824829 
	C687.566040,762.234436 677.859863,764.270325 668.500916,764.669678 
	C655.460083,765.226135 642.213135,764.528198 629.263123,762.801575 
	C609.884338,760.217896 590.552673,756.875977 571.475220,752.625366 
	C563.230042,750.788269 555.311584,746.487793 547.924500,742.148926 
	C543.055237,739.288818 543.451233,736.064697 547.416992,732.015503 
	C550.226135,729.147156 553.225586,726.465210 556.140198,723.700073 
	C555.784851,723.287659 555.429565,722.875183 555.074219,722.462769 
	C551.785828,725.226379 548.222534,727.727112 545.271057,730.812988 
	C540.407898,735.897461 540.559998,740.603333 546.393860,744.585876 
	C551.472534,748.052734 557.167480,751.016052 563.010742,752.890869 
	C582.802124,759.241089 603.208801,762.767273 623.853882,765.121948 
	C643.327454,767.342957 662.712097,769.476196 682.313843,766.087830 
	C711.050171,761.120544 726.042969,742.894836 719.374573,712.846008 
	C714.502808,690.893127 705.979370,670.656616 694.162415,651.676819 
	C674.887085,620.717346 651.994141,592.608765 626.896851,566.224426 
	C597.158569,534.961060 566.352661,504.888916 531.161255,479.660889 
	C524.673096,475.009644 518.195312,470.343964 511.149933,465.280457 
	C518.468689,463.507751 524.843811,461.953979 531.223694,460.419952 
	C570.004333,451.095428 607.412170,437.569244 644.356506,422.791534 
	C677.615051,409.488190 710.387146,395.077026 737.402222,370.569977 
	C750.362488,358.812866 762.312134,346.239441 768.237244,329.234650 
	C772.404846,317.273804 770.291016,307.730194 760.530518,299.888336 
	C754.286133,294.871429 747.357849,290.301147 740.051270,287.087891 
	C719.288879,277.957184 697.204346,273.689850 674.770508,270.894714 
	C652.208252,268.083557 629.558105,267.913452 607.076477,270.240540 
	C586.639404,272.355988 566.416931,276.545074 546.140686,279.090057 
	C555.871765,252.832153 565.602844,226.574280 575.333923,200.316391 
	C562.776855,226.018494 553.291443,252.972443 543.507324,280.628937 
	C528.914490,284.421600 514.184143,287.758820 499.760956,292.113281 
	C477.933594,298.703094 456.090759,305.441772 436.201965,317.020874 
	C426.440674,322.703827 418.238770,329.865753 413.834412,340.742676 
	C408.197205,354.664185 411.897614,367.745819 417.576477,380.366943 
	C427.577148,402.593109 444.531830,419.165314 463.200409,434.123505 
	C471.703339,440.936523 480.500580,447.382172 488.744873,454.609772 
	C487.597687,458.802155 486.450500,462.994537 484.754578,467.814667 
M1091.183838,642.858887 
	C1061.758179,645.826294 1032.358276,646.381775 1003.015320,641.994751 
	C1036.717163,649.669922 1070.443726,648.030151 1104.178345,642.821533 
	C1104.169434,642.308655 1104.160522,641.795776 1104.151489,641.282898 
	C1100.103149,641.658752 1096.054688,642.034668 1091.183838,642.858887 
M963.959351,501.343811 
	C973.508667,498.871429 983.110046,496.575348 992.564697,493.782501 
	C994.524536,493.203583 995.939636,490.780396 998.292969,488.558380 
	C995.043091,490.396149 992.965088,492.160461 990.582214,492.814789 
	C981.235046,495.381531 971.789246,497.588531 962.388611,499.962860 
	C961.623718,500.156067 960.923279,500.604584 960.192871,500.934418 
	C960.259949,501.184814 960.327026,501.435211 960.394104,501.685608 
	C961.304138,501.685608 962.214172,501.685608 963.959351,501.343811 
M1099.998169,651.501770 
	C1097.451782,653.527100 1094.905396,655.552490 1092.358887,657.577881 
	C1092.664429,657.938110 1092.969971,658.298340 1093.275513,658.658569 
	C1098.729370,654.916687 1104.183350,651.174805 1109.637329,647.432922 
	C1109.358765,646.993408 1109.080322,646.553955 1108.801758,646.114441 
	C1106.048218,647.746399 1103.294556,649.378357 1099.998169,651.501770 
M1163.022217,252.867645 
	C1162.677612,253.801208 1162.332886,254.734772 1161.988281,255.668335 
	C1162.373169,255.865799 1162.758057,256.063263 1163.143066,256.260742 
	C1165.162720,253.063599 1167.182373,249.866440 1169.202026,246.669281 
	C1168.831787,246.421844 1168.461670,246.174408 1168.091553,245.926971 
	C1166.541626,248.017548 1164.991699,250.108139 1163.022217,252.867645 
M368.666016,479.389496 
	C366.232697,479.389496 363.799377,479.389496 361.366058,479.389496 
	C361.380798,479.939911 361.395569,480.490326 361.410339,481.040741 
	C363.838165,480.859680 366.266022,480.678589 368.666016,479.389496 
M355.263275,481.612335 
	C357.149048,481.318054 359.034821,481.023743 360.920563,480.729431 
	C360.754395,480.082916 360.588196,479.436401 360.421997,478.789886 
	C358.618317,479.403503 356.814606,480.017090 355.263275,481.612335 
M370.850586,478.647461 
	C370.244019,479.143311 369.637421,479.639160 369.030823,480.135010 
	C369.196136,480.473541 369.361420,480.812073 369.526703,481.150604 
	C371.397858,480.655792 373.268982,480.160950 375.140106,479.666138 
	C375.069641,479.234436 374.999207,478.802704 374.928741,478.371002 
	C373.887146,478.371002 372.845581,478.371002 370.850586,478.647461 
M344.277100,482.856964 
	C345.563477,482.392761 346.849823,481.928589 348.136200,481.464386 
	C347.818359,480.884033 347.500519,480.303680 347.182709,479.723297 
	C345.888580,480.681030 344.594482,481.638733 344.277100,482.856964 
M348.370575,481.596710 
	C350.121765,481.596710 351.872986,481.596710 353.624176,481.596710 
	C353.617432,481.126373 353.610687,480.656036 353.603943,480.185699 
	C351.846710,480.286957 350.089508,480.388214 348.370575,481.596710 
M405.781464,859.361633 
	C405.708099,858.153870 405.634735,856.946106 405.561371,855.738342 
	C404.991364,855.864258 404.421356,855.990234 403.851349,856.116150 
	C404.373993,857.468384 404.896637,858.820679 405.781464,859.361633 
M335.169189,483.723450 
	C336.112244,483.222687 337.055298,482.721924 337.998352,482.221191 
	C333.689484,481.745697 333.689484,481.745697 335.169189,483.723450 
M339.399139,481.044098 
	C339.051666,481.439941 338.704224,481.835815 338.356750,482.231628 
	C339.775757,482.442535 341.194733,482.653442 342.613739,482.864319 
	C342.668732,482.456024 342.723755,482.047729 342.778748,481.639435 
	C342.019470,481.428833 341.260162,481.218231 339.399139,481.044098 
M329.372009,483.960907 
	C330.495270,483.794220 331.618530,483.627533 332.741821,483.460846 
	C332.541901,482.919128 332.341980,482.377380 332.142090,481.835663 
	C330.869781,482.411682 329.597473,482.987701 329.372009,483.960907 
M1061.000000,801.500061 
	C1060.799927,801.366699 1060.599976,801.233337 1060.400024,801.099976 
	C1060.433350,801.399963 1060.466675,801.700012 1061.000000,801.500061 
M1058.981689,802.456482 
	C1058.743896,802.372986 1058.506226,802.289490 1058.268433,802.206055 
	C1058.342041,802.438171 1058.415527,802.670288 1058.981689,802.456482 
z"/>
<path fill="#F2F2F2" opacity="1.000000" stroke="none" 
	d="
M481.854614,470.626740 
	C457.379944,473.118286 432.914642,475.707397 408.426025,478.053131 
	C398.714264,478.983398 388.952118,479.395203 379.209320,479.983826 
	C377.914001,480.062073 376.597504,479.789581 375.311798,478.521759 
	C379.899384,478.009094 384.475098,477.302216 389.076813,477.020844 
	C401.985046,476.231506 414.954224,476.114227 427.806763,474.815582 
	C446.006073,472.976654 464.122284,470.315796 482.274994,468.013794 
	C483.096741,467.909546 483.927826,467.879364 485.328247,467.576660 
	C486.287323,467.207703 486.672791,467.076721 487.479675,466.979309 
	C493.172028,466.132568 498.442932,465.252258 504.735962,464.201202 
	C499.508698,460.594666 495.309784,457.697632 490.993805,454.525848 
	C490.305939,454.165558 489.735138,454.080017 489.164337,453.994446 
	C480.500580,447.382172 471.703339,440.936523 463.200409,434.123505 
	C444.531830,419.165314 427.577148,402.593109 417.576477,380.366943 
	C411.897614,367.745819 408.197205,354.664185 413.834412,340.742676 
	C418.238770,329.865753 426.440674,322.703827 436.201965,317.020874 
	C456.090759,305.441772 477.933594,298.703094 499.760956,292.113281 
	C514.184143,287.758820 528.914490,284.421600 544.104858,280.282043 
	C545.168152,279.896759 545.634033,279.858429 546.099854,279.820068 
	C566.416931,276.545074 586.639404,272.355988 607.076477,270.240540 
	C629.558105,267.913452 652.208252,268.083557 674.770508,270.894714 
	C697.204346,273.689850 719.288879,277.957184 740.051270,287.087891 
	C747.357849,290.301147 754.286133,294.871429 760.530518,299.888336 
	C770.291016,307.730194 772.404846,317.273804 768.237244,329.234650 
	C762.312134,346.239441 750.362488,358.812866 737.402222,370.569977 
	C710.387146,395.077026 677.615051,409.488190 644.356506,422.791534 
	C607.412170,437.569244 570.004333,451.095428 531.223694,460.419952 
	C524.843811,461.953979 518.468689,463.507751 511.149933,465.280457 
	C518.195312,470.343964 524.673096,475.009644 531.161255,479.660889 
	C566.352661,504.888916 597.158569,534.961060 626.896851,566.224426 
	C651.994141,592.608765 674.887085,620.717346 694.162415,651.676819 
	C705.979370,670.656616 714.502808,690.893127 719.374573,712.846008 
	C726.042969,742.894836 711.050171,761.120544 682.313843,766.087830 
	C662.712097,769.476196 643.327454,767.342957 623.853882,765.121948 
	C603.208801,762.767273 582.802124,759.241089 563.010742,752.890869 
	C557.167480,751.016052 551.472534,748.052734 546.393860,744.585876 
	C540.559998,740.603333 540.407898,735.897461 545.271057,730.812988 
	C548.222534,727.727112 551.785828,725.226379 555.074219,722.462769 
	C555.429565,722.875183 555.784851,723.287659 556.140198,723.700073 
	C553.225586,726.465210 550.226135,729.147156 547.416992,732.015503 
	C543.451233,736.064697 543.055237,739.288818 547.924500,742.148926 
	C555.311584,746.487793 563.230042,750.788269 571.475220,752.625366 
	C590.552673,756.875977 609.884338,760.217896 629.263123,762.801575 
	C642.213135,764.528198 655.460083,765.226135 668.500916,764.669678 
	C677.859863,764.270325 687.566040,762.234436 696.295593,758.824829 
	C716.568970,750.906067 720.190674,735.053406 717.442932,717.849609 
	C711.933960,683.356995 694.368408,654.418701 674.218750,626.828125 
	C644.045837,585.512878 608.860840,548.725525 570.445435,515.152222 
	C551.255859,498.381378 530.362732,483.552460 510.082489,468.051361 
	C508.492218,466.835876 505.593048,466.725861 503.416840,467.002808 
	C497.878845,467.707703 492.405884,468.923401 486.126770,469.983459 
	C484.182648,470.230469 483.018616,470.428619 481.854614,470.626740 
M541.341858,283.846497 
	C521.308350,289.489960 501.185425,294.838135 481.268738,300.867493 
	C464.419281,305.968231 447.943268,312.183960 433.122070,321.998047 
	C419.843201,330.790894 412.367065,342.732269 414.084015,359.133179 
	C415.160034,369.411377 418.954498,378.882904 424.210419,387.732056 
	C434.977203,405.859711 449.660034,420.432648 466.234192,433.165619 
	C473.943512,439.088318 482.069885,444.468140 490.182312,450.658569 
	C490.759125,451.127136 491.335968,451.595703 492.485748,452.436798 
	C495.605682,454.623413 498.950348,456.554718 501.792908,459.056488 
	C506.058136,462.810272 510.510956,463.237701 515.910034,461.948547 
	C573.300415,448.244934 628.570984,428.486755 682.007568,403.612701 
	C707.242554,391.866119 730.170654,376.626556 748.839355,355.612000 
	C755.562927,348.043549 761.349976,339.928009 765.177368,330.390015 
	C770.992310,315.898926 766.498718,306.514587 756.363831,299.655670 
	C747.748657,293.825256 738.229553,288.835236 728.444641,285.333832 
	C709.365601,278.506653 689.515503,274.387573 669.224548,273.034149 
	C656.964172,272.216309 644.650269,271.132935 632.400269,271.500122 
	C617.177063,271.956451 601.914734,273.184540 586.818665,275.198639 
	C572.501587,277.108826 558.377380,280.464203 543.611877,283.010376 
	C543.099365,283.150604 542.586853,283.290863 541.341858,283.846497 
z"/>
<path fill="#F0F0F0" opacity="1.000000" stroke="none" 
	d="
M1231.084961,379.120117 
	C1216.862915,394.071442 1202.664917,409.045746 1188.413574,423.969238 
	C1158.735474,455.047211 1129.556274,486.626953 1099.137451,516.962952 
	C1080.793213,535.257263 1060.863892,552.030762 1040.984375,568.697449 
	C1022.054260,584.568237 1002.634338,599.919617 982.699341,614.500854 
	C972.281189,622.121033 960.294189,627.596985 949.010803,634.032776 
	C947.633972,634.818115 946.225952,635.548706 944.437195,636.519043 
	C958.278381,651.538818 962.419495,669.916870 963.953369,689.004883 
	C965.177795,704.242432 965.409058,719.561096 966.018616,734.846252 
	C966.631775,750.221313 967.823425,765.442688 973.919189,779.898865 
	C978.492371,790.744080 985.648071,799.634949 994.671143,806.755005 
	C1003.226379,813.505859 1013.472046,815.104919 1024.210571,812.874268 
	C1024.887573,812.733643 1025.599609,812.761902 1026.375732,813.284302 
	C1021.421204,816.070923 1016.065857,816.506348 1010.558167,815.635010 
	C990.825378,812.513611 980.311401,798.404236 972.179626,782.229004 
	C966.434143,770.800598 964.473267,758.147156 963.980286,745.362305 
	C963.275085,727.076721 963.387634,708.719482 961.731628,690.522034 
	C960.101929,672.613953 956.812744,654.827026 944.457031,640.410156 
	C943.617737,639.430908 942.707336,638.512695 941.552185,637.266235 
	C940.803650,638.341736 940.177185,639.029663 939.787415,639.832458 
	C910.814697,699.502686 883.861267,760.043640 862.582642,822.938171 
	C848.858765,863.502441 837.730042,904.816895 829.138306,946.789429 
	C828.443970,950.181274 828.270691,953.678223 827.617920,957.080750 
	C827.020630,960.194092 825.634705,962.222534 823.143555,960.167847 
	C824.112244,958.172913 825.367004,956.490723 825.766052,954.625488 
	C829.206726,938.542236 832.129333,922.340576 835.890259,906.334839 
	C850.111389,845.812622 870.577393,787.358765 895.354004,730.409607 
	C908.452271,700.303040 922.231201,670.492493 935.728027,640.492310 
	C928.615479,643.058044 921.266357,645.859985 913.816772,648.362671 
	C901.393494,652.535889 888.613953,654.926147 875.484314,654.988770 
	C866.883240,655.029785 860.035645,649.948730 857.953308,642.402039 
	C855.756104,634.439087 860.620728,624.874451 869.153748,620.987061 
	C878.680176,616.647156 888.859680,615.303467 899.158752,616.192383 
	C914.225769,617.492737 928.267639,621.898743 940.070862,632.448730 
	C1000.038757,514.875977 1066.000488,401.229523 1138.765381,291.193298 
	C1139.539429,291.446594 1139.774414,291.733185 1140.009521,292.019806 
	C1119.811523,324.011810 1099.103760,355.695160 1079.516968,388.057098 
	C1032.027588,466.520721 986.475037,546.089600 945.443176,628.169739 
	C944.679138,629.697937 944.068787,631.303040 943.386719,632.872253 
	C943.722900,633.284668 944.059082,633.697083 944.395325,634.109558 
	C955.209656,627.957275 966.697144,622.730774 976.697510,615.459167 
	C997.202332,600.549438 1017.346558,585.068604 1036.843506,568.865479 
	C1066.289062,544.394287 1094.958618,519.029053 1121.223389,491.039551 
	C1151.311279,458.975677 1181.765869,427.255585 1212.130493,395.452148 
	C1217.996460,389.308105 1224.181641,383.468628 1230.599854,377.795776 
	C1231.015015,378.441956 1231.050049,378.781006 1231.084961,379.120117 
M866.088867,649.664062 
	C868.544006,650.451721 870.969727,651.809509 873.458923,651.938110 
	C896.490356,653.128540 917.426208,645.459351 937.965515,636.271118 
	C938.452576,636.053223 938.737183,635.382690 939.073975,634.974487 
	C923.285095,620.657532 904.435181,617.461670 884.466797,619.257019 
	C878.770508,619.769165 872.823792,621.901306 867.817261,624.744080 
	C858.061096,630.283630 857.360291,641.422363 866.088867,649.664062 
z"/>
<path fill="#010101" opacity="1.000000" stroke="none" 
	d="
M1213.002441,613.552673 
	C1213.002441,613.552673 1212.687378,613.838745 1212.323975,613.534546 
	C1211.291260,613.825439 1210.622192,614.420471 1209.953125,615.015503 
	C1209.953125,615.015564 1209.993164,614.997681 1209.663452,615.004333 
	C1206.543335,617.678528 1203.752930,620.346069 1200.962524,623.013550 
	C1200.962524,623.013550 1200.996460,622.997253 1200.663940,622.999451 
	C1198.208618,625.005676 1196.085815,627.009766 1193.963135,629.013855 
	C1193.963135,629.013855 1193.996582,628.997681 1193.651611,628.990356 
	C1191.867065,630.669434 1190.427612,632.355774 1188.988159,634.042114 
	C1188.988159,634.042114 1189.002441,634.002380 1188.775879,633.653442 
	C1186.975098,634.394653 1185.455566,635.577087 1183.812744,636.551331 
	C1181.833496,637.725159 1179.749390,638.722046 1177.744263,639.442017 
	C1188.541626,624.769958 1199.305542,610.451416 1210.376831,595.994568 
	C1220.966797,586.446594 1231.079346,576.840881 1241.609253,567.716797 
	C1246.308838,563.644653 1251.847412,560.540466 1257.059448,557.352966 
	C1249.923096,567.458374 1242.699219,577.183716 1235.576660,586.982605 
	C1234.477173,588.495117 1233.842285,590.345398 1232.992554,592.039429 
	C1232.992554,592.039429 1233.001465,592.001831 1232.751831,591.689209 
	C1225.964478,598.132324 1219.413330,604.875061 1212.932495,611.684875 
	C1212.632690,611.999939 1212.964722,612.916321 1213.002441,613.552673 
z"/>
<path fill="#898989" opacity="1.000000" stroke="none" 
	d="
M482.293152,470.737762 
	C483.018616,470.428619 484.182648,470.230469 485.725433,470.068481 
	C479.107819,494.931854 471.532745,519.613464 465.236877,544.617126 
	C452.560120,594.961975 439.909607,645.332153 428.563416,695.986450 
	C421.732788,726.481445 417.091187,757.484192 412.040955,788.352905 
	C409.660156,802.905090 408.545502,817.669800 407.030212,832.356018 
	C406.322876,839.211426 406.026733,846.109253 404.684753,853.152832 
	C404.547333,851.922302 404.240631,850.684021 404.296997,849.462463 
	C406.304199,805.956909 413.282898,763.129089 421.660309,720.470154 
	C437.896912,637.790894 459.491272,556.451294 482.464661,475.448090 
	C482.873718,474.005768 482.656616,472.385834 482.293152,470.737762 
z"/>
<path fill="#ADADAD" opacity="1.000000" stroke="none" 
	d="
M799.753418,473.452942 
	C800.236145,472.411987 800.718872,471.371033 801.744873,470.857269 
	C802.843201,471.891144 803.398254,472.397827 803.951172,473.195190 
	C804.169861,473.803650 804.390686,474.121399 804.611511,474.439148 
	C804.898438,474.124115 805.185364,473.809052 805.472290,473.494019 
	C804.949707,473.313782 804.427124,473.133575 803.859314,472.637085 
	C804.523682,471.857208 805.233215,471.393555 806.281250,471.029846 
	C808.334045,472.355713 810.008118,473.434601 811.087402,470.264221 
	C811.821472,469.783569 811.935547,469.115082 812.077271,468.487427 
	C812.104980,468.528290 812.211487,468.523468 812.211487,468.523468 
	C813.437927,468.563965 814.713806,468.840546 815.880615,468.596222 
	C818.379028,468.073029 820.821106,467.280640 824.429321,466.282227 
	C822.843933,475.853455 814.289917,480.062805 812.013245,488.788055 
	C814.342773,489.157166 816.746338,490.175354 818.868713,489.759155 
	C826.325256,488.296875 833.576660,486.227448 839.549805,480.994781 
	C847.237427,474.260132 856.477295,470.792511 866.441467,469.112762 
	C867.480469,468.937622 868.592224,469.193909 869.930298,470.259277 
	C867.327820,471.195068 864.725342,472.130890 861.471436,473.389526 
	C851.160522,478.118958 840.888550,481.570801 834.039062,490.989258 
	C837.606995,491.811615 841.051941,492.224060 844.129578,491.347198 
	C852.754395,488.889954 858.166382,482.408081 862.771667,475.147461 
	C865.253357,473.451477 865.469543,474.650940 864.526184,476.660461 
	C863.472595,478.904755 861.881653,480.913757 860.972656,483.203064 
	C860.358276,484.750275 860.518311,486.605042 860.331970,488.322266 
	C862.077759,488.501007 864.028137,489.273804 865.533875,488.755402 
	C871.939026,486.550262 877.324585,482.869263 881.069397,476.987640 
	C885.205200,470.492004 886.118713,470.390656 892.020691,475.402435 
	C894.773438,477.739960 897.361938,480.271027 900.215088,482.888947 
	C896.364014,485.571320 892.870728,488.004456 889.377502,490.437561 
	C889.674194,490.949493 889.970825,491.461395 890.267517,491.973328 
	C900.757080,491.725281 908.767090,484.353455 918.735229,481.909668 
	C919.246948,483.023804 919.362427,483.697083 919.292969,484.593903 
	C915.903198,486.996124 912.571594,489.016571 909.557251,491.432892 
	C908.382385,492.374695 907.921936,494.207825 907.115295,495.952118 
	C907.073853,496.480133 907.053162,496.691010 907.032410,496.901917 
	C906.582458,494.645569 906.132507,492.389252 905.544983,489.443115 
	C904.407715,489.943420 902.471436,490.934174 900.439087,491.653717 
	C897.955811,492.532959 895.426514,493.556885 892.850098,493.795837 
	C891.289246,493.940613 889.601501,492.717560 887.970764,492.109009 
	C888.663391,490.574005 888.984985,488.627930 890.130127,487.594299 
	C892.173767,485.749756 894.714722,484.456207 897.526245,482.619690 
	C893.855591,479.342072 890.331055,476.194794 886.395874,472.680939 
	C884.752075,474.937134 883.307190,476.716614 882.083618,478.637024 
	C878.138367,484.829102 872.315979,488.509308 865.551941,490.704315 
	C860.690430,492.281921 858.649048,490.703033 857.737061,485.109497 
	C852.209595,490.261322 846.318726,494.321136 838.474976,494.139069 
	C834.515076,494.047150 831.725586,492.811523 831.863464,488.386078 
	C827.653381,489.514648 823.576111,490.845581 819.396057,491.624817 
	C817.392090,491.998352 815.056580,491.717926 813.116089,491.036499 
	C810.387817,490.078461 809.118958,487.994110 811.103760,485.204529 
	C814.273926,480.748932 817.548950,476.368134 820.743103,471.929352 
	C821.280945,471.181885 821.634399,470.301727 822.579956,468.536682 
	C812.500183,471.068756 805.162170,476.621643 797.140320,481.538330 
	C797.309753,478.936890 797.968994,476.595123 798.628296,474.253387 
	C798.696838,474.071259 798.765442,473.889130 798.985107,473.824707 
	C799.290039,473.714630 799.495728,473.551483 799.753418,473.452942 
M910.592529,486.883728 
	C910.089417,487.204224 909.586304,487.524750 909.083130,487.845245 
	C909.380493,488.097900 909.677795,488.350525 909.975159,488.603180 
	C910.469177,487.922485 910.963135,487.241791 910.592529,486.883728 
z"/>
<path fill="#010101" opacity="1.000000" stroke="none" 
	d="
M805.942810,470.929901 
	C805.233215,471.393555 804.523682,471.857208 803.898804,472.652161 
	C803.983582,472.983490 803.953308,472.904510 803.953308,472.904510 
	C803.398254,472.397827 802.843201,471.891144 802.644409,470.927246 
	C803.313904,469.936066 803.627136,469.402069 804.345642,468.780273 
	C809.537292,463.926025 814.356018,459.191406 819.098511,454.381622 
	C822.131653,451.305603 825.052063,448.118439 828.022949,444.981079 
	C828.022949,444.981079 828.007446,445.000061 828.254028,445.199768 
	C828.662598,445.257080 828.824585,445.114685 829.292847,444.841431 
	C834.194702,440.228210 838.833313,435.788269 843.346680,431.224518 
	C844.163940,430.398163 844.467957,429.064209 845.008911,427.964600 
	C845.008911,427.964600 844.996277,427.996185 845.228516,428.336273 
	C848.974182,425.784851 852.487732,422.893372 856.327026,419.901855 
	C861.150513,416.900452 865.648254,413.999054 870.145935,411.097687 
	C870.311523,411.383270 870.477112,411.668884 870.642700,411.954468 
	C869.763794,413.637909 868.884827,415.321320 868.005920,417.004761 
	C868.005920,417.004761 868.000000,417.000000 867.667908,417.057556 
	C863.253357,421.243866 859.116150,425.320648 855.121155,429.532288 
	C853.878723,430.842133 853.021545,432.517456 851.988037,434.025452 
	C851.987976,434.025452 852.001465,434.001038 851.712646,433.783936 
	C850.945007,434.047882 850.466187,434.528870 849.987366,435.009888 
	C849.987366,435.009888 849.998352,434.998810 849.658203,434.991577 
	C844.884094,439.321259 840.450073,443.658203 836.016052,447.995117 
	C836.016052,447.995117 836.002441,448.002167 835.655273,447.991211 
	C833.214050,449.983246 831.119995,451.986267 829.025940,453.989319 
	C829.025940,453.989319 829.005310,454.004272 828.645447,453.972839 
	C820.838013,459.604218 813.390381,465.267059 805.942810,470.929901 
z"/>
<path fill="#D7D7D7" opacity="1.000000" stroke="none" 
	d="
M1210.069336,596.132935 
	C1199.305542,610.451416 1188.541626,624.769958 1177.767334,639.501465 
	C1177.756836,639.914429 1177.882690,639.891846 1177.579956,639.869019 
	C1177.162720,640.232910 1177.048340,640.619690 1176.651123,641.172729 
	C1175.918701,642.568298 1175.469238,643.797546 1175.019653,645.026733 
	C1173.083008,648.994324 1170.514160,652.785339 1169.345825,656.967590 
	C1167.159302,664.794250 1173.940063,672.203064 1181.675903,669.966309 
	C1192.817139,666.744934 1203.596558,662.280640 1214.557129,658.422668 
	C1224.772339,654.827087 1235.017822,651.317383 1245.266113,647.816895 
	C1246.044556,647.551025 1246.951416,647.660889 1248.052856,647.576660 
	C1237.412720,652.652283 1227.133301,657.555847 1216.477905,662.322144 
	C1215.265137,661.738586 1214.428467,661.292175 1213.591797,660.845764 
	C1203.335327,664.610718 1193.259888,669.022888 1182.770752,671.955261 
	C1172.635620,674.788574 1164.788086,666.050964 1167.253540,655.734192 
	C1167.481689,654.779480 1167.781250,653.841858 1168.110840,652.450562 
	C1168.173828,652.004883 1168.097046,652.055847 1168.390625,651.944946 
	C1168.794556,651.221741 1168.905151,650.609375 1169.334717,649.885864 
	C1169.795044,648.891357 1169.936523,648.008118 1170.078125,647.124878 
	C1175.349487,638.947021 1180.208740,630.462952 1185.998169,622.669983 
	C1193.019287,613.218872 1200.825928,604.351440 1208.848511,595.216980 
	C1209.625977,595.512634 1209.847656,595.822815 1210.069336,596.132935 
z"/>
<path fill="#BFBFBF" opacity="1.000000" stroke="none" 
	d="
M907.314941,497.056793 
	C907.053162,496.691010 907.073853,496.480133 907.473999,496.027466 
	C913.616150,492.497162 919.556274,489.474335 925.059509,485.797638 
	C927.477966,484.181915 929.006653,481.234406 931.149536,479.108612 
	C931.435669,479.026794 931.511597,478.727966 931.587524,478.429199 
	C931.394226,478.624115 931.200867,478.819000 930.638306,479.022217 
	C926.672058,480.810455 923.075012,482.590424 919.477966,484.370361 
	C919.362427,483.697083 919.246948,483.023804 919.083557,481.840271 
	C924.249329,479.225189 929.801453,477.685852 934.567505,474.833160 
	C938.256287,472.625214 941.239319,469.004181 944.052551,465.610474 
	C953.466064,454.254303 962.662598,442.718109 973.037048,431.791718 
	C972.517273,432.901398 972.186829,434.160217 971.448425,435.097656 
	C964.046326,444.494537 956.353882,453.671906 949.202759,463.254089 
	C944.169189,469.998840 939.578979,477.115936 935.295532,484.364990 
	C932.221863,489.566772 933.114075,491.629852 937.969421,495.186768 
	C944.249390,499.787415 951.167664,501.835510 960.219482,499.908997 
	C955.906616,502.768860 949.220764,502.937592 944.276123,500.859680 
	C942.005432,499.905426 939.871521,498.566345 937.797668,497.214478 
	C931.087585,492.840424 930.814514,491.975616 933.033997,484.181366 
	C933.197205,483.608154 933.138123,482.971649 933.271179,481.147369 
	C924.795227,487.845947 918.399048,496.279022 907.314941,497.056793 
z"/>
<path fill="#898989" opacity="1.000000" stroke="none" 
	d="
M788.853210,483.557495 
	C780.787354,485.221619 772.755127,487.081024 764.643311,488.478333 
	C759.601196,489.346863 754.441772,489.865387 749.329346,489.910522 
	C742.867188,489.967621 740.480713,487.610168 739.531738,481.429688 
	C736.208496,482.884583 733.004761,484.789398 729.540649,485.672485 
	C725.503723,486.701569 720.972656,487.019989 717.979004,483.307526 
	C715.098755,479.735687 719.712646,477.554260 720.422729,473.943970 
	C721.171875,473.380951 721.858276,473.447418 722.544617,473.513885 
	C721.448181,476.147552 720.351685,478.781250 719.119690,481.740448 
	C722.985291,485.447601 727.655457,484.746857 731.869141,482.933197 
	C736.842529,480.792450 741.625671,478.032288 746.116089,474.987274 
	C753.288879,470.123352 761.101562,467.385315 769.632996,466.466949 
	C770.268494,466.398529 770.967102,466.465607 771.566345,466.672607 
	C771.957275,466.807648 772.221313,467.309814 772.966492,468.094025 
	C768.677124,469.117462 764.591675,469.620911 760.887268,471.087097 
	C755.393494,473.261566 750.013550,475.852600 744.924133,478.843140 
	C743.355164,479.765076 741.638184,483.190460 742.219788,484.365143 
	C743.072937,486.088287 745.926880,487.801971 747.938171,487.813629 
	C762.773926,487.899506 777.260803,485.709778 791.345886,480.075104 
	C790.735657,481.421844 789.794434,482.489655 788.853210,483.557495 
z"/>
<path fill="#D7D7D7" opacity="1.000000" stroke="none" 
	d="
M1406.000488,663.925903 
	C1388.229248,664.303833 1370.440918,664.347168 1352.696533,665.251770 
	C1346.940796,665.545166 1341.330078,668.220947 1335.598755,669.577576 
	C1328.763184,671.195679 1321.908325,672.825562 1314.975098,673.878540 
	C1313.047729,674.171265 1309.878174,673.051941 1308.879883,671.529968 
	C1304.428955,664.743896 1298.307373,665.422607 1291.304565,666.566895 
	C1290.540405,665.955627 1290.290649,665.564575 1290.040894,665.173523 
	C1294.356567,665.097595 1298.688232,664.778687 1302.980103,665.062683 
	C1304.749878,665.179749 1307.286621,666.136414 1308.011597,667.493042 
	C1311.399170,673.831848 1317.021606,672.558289 1321.919189,671.398132 
	C1330.514648,669.361816 1338.796753,666.017029 1347.377197,663.896729 
	C1352.463745,662.639709 1357.871826,662.207764 1363.132690,662.225159 
	C1377.096069,662.271606 1391.057983,662.763367 1405.461426,663.312744 
	C1405.902466,663.547607 1406.000488,663.925903 1406.000488,663.925903 
z"/>
<path fill="#D7D7D7" opacity="1.000000" stroke="none" 
	d="
M1091.595093,642.634766 
	C1096.054688,642.034668 1100.103149,641.658752 1104.151489,641.282898 
	C1104.160522,641.795776 1104.169434,642.308655 1104.178345,642.821533 
	C1070.443726,648.030151 1036.717163,649.669922 1003.015320,641.994751 
	C1032.358276,646.381775 1061.758179,645.826294 1091.595093,642.634766 
z"/>
<path fill="#ADADAD" opacity="1.000000" stroke="none" 
	d="
M1213.794678,661.334961 
	C1214.428467,661.292175 1215.265137,661.738586 1216.157227,662.505005 
	C1214.910278,664.491333 1213.607910,666.157654 1212.305542,667.824036 
	C1212.663330,668.222107 1213.021118,668.620178 1213.378906,669.018188 
	C1223.944092,668.678833 1230.854126,660.385742 1240.836060,655.317810 
	C1240.151001,657.969421 1239.895996,659.538391 1239.341553,660.993225 
	C1237.655884,665.416321 1238.907959,668.135559 1243.588867,667.694885 
	C1249.223877,667.164307 1254.775146,665.382019 1260.264160,663.799561 
	C1263.649536,662.823669 1266.850952,661.209656 1270.137329,659.881165 
	C1271.169678,662.807251 1271.950073,665.019226 1272.724854,667.680359 
	C1272.496460,668.372620 1272.273560,668.615723 1272.050781,668.858826 
	C1270.817139,666.948547 1269.583374,665.038269 1267.990234,662.571411 
	C1264.483765,664.003540 1260.276978,666.207520 1255.801270,667.413391 
	C1251.302368,668.625549 1246.543823,669.268982 1241.883667,669.359070 
	C1238.369263,669.427002 1236.238037,667.025024 1236.657471,662.555420 
	C1236.729980,661.388428 1236.618408,660.837158 1236.506714,660.285889 
	C1236.130859,660.571289 1235.755005,660.856567 1235.379028,661.141785 
	C1230.269897,664.073792 1225.346924,667.440857 1219.968018,669.742554 
	C1217.515625,670.791992 1214.162964,669.737732 1211.218750,669.637634 
	C1212.145020,667.033203 1213.071289,664.428711 1213.794678,661.334961 
z"/>
<path fill="#D7D7D7" opacity="1.000000" stroke="none" 
	d="
M708.968445,478.901917 
	C691.143555,489.251801 672.209045,496.135834 651.407104,496.804535 
	C642.473755,497.091705 633.523499,496.852570 624.580933,496.852570 
	C624.484070,496.038147 624.387268,495.223694 624.290405,494.409271 
	C655.998535,497.542938 685.641235,491.658020 712.704590,474.511230 
	C712.972290,475.023590 713.239929,475.535980 713.507568,476.048340 
	C712.666016,476.661652 711.824402,477.274933 710.333984,478.042480 
	C709.446228,478.431763 709.207336,478.666840 708.968445,478.901917 
z"/>
<path fill="#ADADAD" opacity="1.000000" stroke="none" 
	d="
M1155.939087,657.887695 
	C1150.469727,660.615234 1145.173340,663.792908 1139.494629,665.975586 
	C1128.023438,670.384521 1122.705200,666.258362 1124.284912,654.100098 
	C1114.860474,659.501221 1105.739380,665.160522 1094.307007,663.075806 
	C1108.956055,662.840332 1120.135010,654.601074 1131.312256,646.358093 
	C1131.642456,646.794800 1131.972656,647.231506 1132.302856,647.668213 
	C1130.701904,650.037476 1129.092407,652.401001 1127.502441,654.777588 
	C1125.831787,657.274780 1123.462891,660.368958 1126.258057,662.708008 
	C1128.419067,664.516418 1132.489624,665.843567 1135.006958,665.075806 
	C1141.586426,663.068970 1147.779785,659.795959 1154.710938,657.058838 
	C1155.509644,657.355835 1155.724365,657.621765 1155.939087,657.887695 
z"/>
<path fill="#5D5D5D" opacity="1.000000" stroke="none" 
	d="
M405.649414,893.872070 
	C405.540283,913.983398 405.466705,934.095093 405.307739,954.205994 
	C405.222290,965.011902 404.986542,975.816467 404.827972,986.621826 
	C404.801819,988.404663 404.824310,990.188171 404.006897,991.957336 
	C404.006897,959.586060 404.006897,927.214783 404.345764,894.367798 
	C404.684662,893.892029 405.166504,893.856812 405.166504,893.856812 
	C405.166504,893.856812 405.649414,893.872070 405.649414,893.872070 
z"/>
<path fill="#5D5D5D" opacity="1.000000" stroke="none" 
	d="
M546.120239,279.455078 
	C545.634033,279.858429 545.168152,279.896759 544.353333,279.970520 
	C553.291443,252.972443 562.776855,226.018494 575.333923,200.316391 
	C565.602844,226.574280 555.871765,252.832153 546.120239,279.455078 
z"/>
<path fill="#BFBFBF" opacity="1.000000" stroke="none" 
	d="
M1210.376831,595.994568 
	C1209.847656,595.822815 1209.625977,595.512634 1209.146606,595.070618 
	C1224.045288,579.768677 1239.379639,564.820435 1258.943359,553.653320 
	C1258.943359,555.747192 1258.943359,556.553528 1258.669922,557.500732 
	C1257.932617,557.426758 1257.468872,557.211914 1257.005127,556.997070 
	C1251.847412,560.540466 1246.308838,563.644653 1241.609253,567.716797 
	C1231.079346,576.840881 1220.966797,586.446594 1210.376831,595.994568 
z"/>
<path fill="#898989" opacity="1.000000" stroke="none" 
	d="
M1096.777832,784.809326 
	C1111.373169,777.271423 1126.284180,770.501282 1142.249756,766.278442 
	C1127.724121,772.812256 1113.198608,779.346008 1098.199219,785.632568 
	C1097.409668,785.193237 1097.093750,785.001282 1096.777832,784.809326 
z"/>
<path fill="#D7D7D7" opacity="1.000000" stroke="none" 
	d="
M1140.293701,291.833923 
	C1139.774414,291.733185 1139.539429,291.446594 1139.057129,291.029236 
	C1146.110352,279.502411 1153.411011,268.106354 1160.711670,256.710297 
	C1161.279175,257.069824 1161.846558,257.429321 1162.414062,257.788849 
	C1155.135254,269.075256 1147.856567,280.361664 1140.293701,291.833923 
z"/>
<path fill="#ADADAD" opacity="1.000000" stroke="none" 
	d="
M963.541748,501.514709 
	C962.214172,501.685608 961.304138,501.685608 960.394104,501.685608 
	C960.327026,501.435211 960.259949,501.184814 960.192871,500.934418 
	C960.923279,500.604584 961.623718,500.156067 962.388611,499.962860 
	C971.789246,497.588531 981.235046,495.381531 990.582214,492.814789 
	C992.965088,492.160461 995.043091,490.396149 998.292969,488.558380 
	C995.939636,490.780396 994.524536,493.203583 992.564697,493.782501 
	C983.110046,496.575348 973.508667,498.871429 963.541748,501.514709 
z"/>
<path fill="#898989" opacity="1.000000" stroke="none" 
	d="
M1257.059448,557.353027 
	C1257.468872,557.211914 1257.932617,557.426758 1258.626953,557.781982 
	C1254.941528,563.751282 1251.232666,569.733948 1247.051514,575.366028 
	C1242.829346,581.053284 1238.139038,586.392944 1233.323242,591.962158 
	C1233.842285,590.345398 1234.477173,588.495117 1235.576660,586.982605 
	C1242.699219,577.183716 1249.923096,567.458374 1257.059448,557.353027 
z"/>
<path fill="#BFBFBF" opacity="1.000000" stroke="none" 
	d="
M1096.553833,786.583435 
	C1085.929932,791.322876 1075.306030,796.062378 1064.142700,800.590454 
	C1063.279907,800.187866 1062.956421,799.996643 1062.633057,799.805420 
	C1073.365356,795.049438 1084.097778,790.293457 1095.420654,785.735352 
	C1096.192139,786.150024 1096.373047,786.366699 1096.553833,786.583435 
z"/>
<path fill="#898989" opacity="1.000000" stroke="none" 
	d="
M1406.357422,664.123901 
	C1406.000488,663.925903 1405.902466,663.547607 1405.910645,663.352417 
	C1418.959229,663.486816 1431.999756,663.816467 1445.590820,664.389771 
	C1446.379639,665.010193 1446.617920,665.387024 1446.856201,665.763794 
	C1433.475586,665.283142 1420.094849,664.802490 1406.357422,664.123901 
z"/>
<path fill="#ADADAD" opacity="1.000000" stroke="none" 
	d="
M827.746643,444.686249 
	C825.052063,448.118439 822.131653,451.305603 819.098511,454.381622 
	C814.356018,459.191406 809.537292,463.926025 804.383179,468.577911 
	C804.279053,467.592957 804.275146,466.444763 804.846863,465.894196 
	C812.340637,458.677429 819.915710,451.545013 827.746643,444.686249 
z"/>
<path fill="#D7D7D7" opacity="1.000000" stroke="none" 
	d="
M788.438049,483.934692 
	C789.794434,482.489655 790.735657,481.421844 791.718628,480.041077 
	C793.832825,477.794342 795.905273,475.860596 798.303040,474.090088 
	C797.968994,476.595123 797.309753,478.936890 796.797485,481.586243 
	C796.227356,482.406952 795.510254,482.920013 794.549683,482.979675 
	C794.203308,482.051239 794.100281,481.576202 793.997314,481.101196 
	C793.537048,481.435211 793.076721,481.769226 792.616394,482.103210 
	C793.153931,482.435791 793.691467,482.768341 794.229004,483.100891 
	C791.257690,485.466827 788.286438,487.832733 785.315125,490.198639 
	C784.938965,489.860168 784.562805,489.521698 784.186646,489.183258 
	C785.465393,487.559448 786.744141,485.935669 788.438049,483.934692 
z"/>
<path fill="#898989" opacity="1.000000" stroke="none" 
	d="
M405.694519,893.414490 
	C405.649414,893.872070 405.166504,893.856812 405.166504,893.856812 
	C405.166504,893.856812 404.684662,893.892029 404.443390,893.902588 
	C404.202118,883.957214 404.202118,874.001343 404.202118,864.045410 
	C404.714630,864.028564 405.227112,864.011658 405.739624,863.994751 
	C405.739624,873.648804 405.739624,883.302856 405.694519,893.414490 
z"/>
<path fill="#5D5D5D" opacity="1.000000" stroke="none" 
	d="
M868.343750,417.156860 
	C868.884827,415.321320 869.763794,413.637909 870.642700,411.954468 
	C870.477112,411.668884 870.311523,411.383270 870.145935,411.097687 
	C865.648254,413.999054 861.150513,416.900452 856.221313,419.649292 
	C855.487854,419.298218 855.185852,419.099670 854.883911,418.901093 
	C860.662292,414.232147 866.797668,410.234528 873.841125,407.944855 
	C874.256775,408.391174 874.672424,408.837463 875.088074,409.283752 
	C872.952576,411.958832 870.817139,414.633911 868.343750,417.156860 
z"/>
<path fill="#898989" opacity="1.000000" stroke="none" 
	d="
M1213.267578,613.316406 
	C1212.964722,612.916321 1212.632690,611.999939 1212.932495,611.684875 
	C1219.413330,604.875061 1225.964478,598.132324 1232.770020,591.682983 
	C1226.536255,599.019653 1220.034546,606.049866 1213.267578,613.316406 
z"/>
<path fill="#5D5D5D" opacity="1.000000" stroke="none" 
	d="
M806.281250,471.029846 
	C813.390381,465.267059 820.838013,459.604218 828.636597,453.981995 
	C826.963562,456.174561 825.103394,458.517151 822.875916,460.432648 
	C819.730774,463.137390 816.313965,465.526306 812.612366,468.286865 
	C812.211487,468.523468 812.104980,468.528290 811.841431,468.785187 
	C811.207642,469.386841 810.837463,469.731598 810.467285,470.076355 
	C810.008118,473.434601 808.334045,472.355713 806.281250,471.029846 
z"/>
<path fill="#D7D7D7" opacity="1.000000" stroke="none" 
	d="
M1028.737061,811.932617 
	C1035.764404,809.472961 1042.791626,807.013306 1050.478760,804.767761 
	C1051.365845,805.212097 1051.593018,805.442322 1051.820068,805.672485 
	C1045.123901,808.090332 1038.427856,810.508118 1031.131104,812.660156 
	C1029.932739,812.240479 1029.334961,812.086548 1028.737061,811.932617 
z"/>
<path fill="#D7D7D7" opacity="1.000000" stroke="none" 
	d="
M1116.036133,641.273254 
	C1121.592529,640.966064 1127.149048,640.658936 1132.705444,640.351746 
	C1132.760498,640.966553 1132.815430,641.581360 1132.870361,642.196106 
	C1127.347412,643.034424 1121.824341,643.872803 1116.038818,643.921692 
	C1115.863037,642.512573 1115.949585,641.892944 1116.036133,641.273254 
z"/>
<path fill="#898989" opacity="1.000000" stroke="none" 
	d="
M844.672913,428.013550 
	C844.467957,429.064209 844.163940,430.398163 843.346680,431.224518 
	C838.833313,435.788269 834.194702,440.228210 829.169678,444.604004 
	C828.445557,444.305817 828.150635,444.114166 827.855774,443.922485 
	C833.349487,438.635834 838.843201,433.349182 844.672913,428.013550 
z"/>
<path fill="#5D5D5D" opacity="1.000000" stroke="none" 
	d="
M852.323608,433.971680 
	C853.021545,432.517456 853.878723,430.842133 855.121155,429.532288 
	C859.116150,425.320648 863.253357,421.243866 867.670532,417.060181 
	C866.573425,419.189911 865.423584,421.643585 863.650085,423.502167 
	C860.170044,427.149261 856.342773,430.465027 852.323608,433.971680 
z"/>
<path fill="#BFBFBF" opacity="1.000000" stroke="none" 
	d="
M1100.269531,651.256042 
	C1103.294556,649.378357 1106.048218,647.746399 1108.801758,646.114441 
	C1109.080322,646.553955 1109.358765,646.993408 1109.637329,647.432922 
	C1104.183350,651.174805 1098.729370,654.916687 1093.275513,658.658569 
	C1092.969971,658.298340 1092.664429,657.938110 1092.358887,657.577881 
	C1094.905396,655.552490 1097.451782,653.527100 1100.269531,651.256042 
z"/>
<path fill="#BFBFBF" opacity="1.000000" stroke="none" 
	d="
M1272.394531,669.037354 
	C1272.273560,668.615723 1272.496460,668.372620 1272.944092,668.017944 
	C1278.520508,666.951965 1283.871948,665.997620 1289.632202,665.108398 
	C1290.290649,665.564575 1290.540405,665.955627 1290.895264,666.554443 
	C1286.337158,667.655701 1281.686157,668.623962 1277.002930,669.395935 
	C1275.628662,669.622498 1274.162476,669.291382 1272.394531,669.037354 
z"/>
<path fill="#898989" opacity="1.000000" stroke="none" 
	d="
M1156.284912,657.841431 
	C1155.724365,657.621765 1155.509644,657.355835 1155.056519,656.979004 
	C1159.676392,653.652283 1164.534790,650.436523 1169.735596,647.172852 
	C1169.936523,648.008118 1169.795044,648.891357 1168.975098,650.034058 
	C1168.230103,650.880981 1168.163574,651.468445 1168.097046,652.055847 
	C1168.097046,652.055847 1168.173828,652.004883 1168.196777,652.045044 
	C1166.735107,652.492371 1165.121094,652.655701 1163.793701,653.359436 
	C1161.318115,654.672119 1159.009155,656.299011 1156.284912,657.841431 
z"/>
<path fill="#BFBFBF" opacity="1.000000" stroke="none" 
	d="
M722.844849,473.376465 
	C721.858276,473.447418 721.171875,473.380951 720.259766,473.584473 
	C718.188660,474.625885 716.343323,475.397278 714.497986,476.168671 
	C714.312500,475.746155 714.127075,475.323639 713.941650,474.901123 
	C718.813232,472.233032 723.684753,469.564911 728.556335,466.896790 
	C728.844177,467.160034 729.132080,467.423248 729.419922,467.686493 
	C727.328308,469.537323 725.236633,471.388153 722.844849,473.376465 
z"/>
<path fill="#5D5D5D" opacity="1.000000" stroke="none" 
	d="
M836.346985,448.173828 
	C840.450073,443.658203 844.884094,439.321259 849.664917,434.987549 
	C845.567139,439.444702 841.122498,443.898651 836.346985,448.173828 
z"/>
<path fill="#898989" opacity="1.000000" stroke="none" 
	d="
M1175.358032,644.962402 
	C1175.469238,643.797546 1175.918701,642.568298 1177.024414,641.162964 
	C1177.748047,640.621887 1177.815430,640.256897 1177.882690,639.891846 
	C1177.882690,639.891846 1177.756836,639.914429 1177.733765,639.854980 
	C1179.749390,638.722046 1181.833496,637.725159 1183.812744,636.551331 
	C1185.455566,635.577087 1186.975098,634.394653 1188.796387,633.648804 
	C1184.594482,637.628113 1180.145386,641.263062 1175.358032,644.962402 
z"/>
<path fill="#5D5D5D" opacity="1.000000" stroke="none" 
	d="
M1447.312256,665.864868 
	C1446.617920,665.387024 1446.379639,665.010193 1446.041992,664.433350 
	C1451.613403,664.233337 1457.284302,664.233337 1462.955078,664.233337 
	C1462.994629,664.382751 1463.034180,664.532104 1463.073730,664.681519 
	C1457.971924,665.109680 1452.870117,665.537781 1447.312256,665.864868 
z"/>
<path fill="#D7D7D7" opacity="1.000000" stroke="none" 
	d="
M309.020538,485.848877 
	C304.160767,486.173401 299.300964,486.497955 294.441193,486.822510 
	C294.383667,486.233704 294.326111,485.644867 294.268555,485.056061 
	C298.881042,484.697357 303.493500,484.338623 308.549438,484.343231 
	C309.002106,485.087311 309.011322,485.468079 309.020538,485.848877 
z"/>
<path fill="#898989" opacity="1.000000" stroke="none" 
	d="
M488.954590,454.302124 
	C489.735138,454.080017 490.305939,454.165558 490.633179,454.673157 
	C489.279175,459.045410 488.168732,462.995605 487.058258,466.945740 
	C486.672791,467.076721 486.287323,467.207703 485.602600,467.262817 
	C486.450500,462.994537 487.597687,458.802155 488.954590,454.302124 
z"/>
<path fill="#898989" opacity="1.000000" stroke="none" 
	d="
M854.591919,419.063293 
	C855.185852,419.099670 855.487854,419.298218 855.895508,419.749329 
	C852.487732,422.893372 848.974182,425.784851 845.212280,428.341614 
	C848.075928,425.079773 851.187927,422.152649 854.591919,419.063293 
z"/>
<path fill="#BFBFBF" opacity="1.000000" stroke="none" 
	d="
M1163.232056,252.533173 
	C1164.991699,250.108139 1166.541626,248.017548 1168.091553,245.926971 
	C1168.461670,246.174408 1168.831787,246.421844 1169.202026,246.669281 
	C1167.182373,249.866440 1165.162720,253.063599 1163.143066,256.260742 
	C1162.758057,256.063263 1162.373169,255.865799 1161.988281,255.668335 
	C1162.332886,254.734772 1162.677612,253.801208 1163.232056,252.533173 
z"/>
<path fill="#ADADAD" opacity="1.000000" stroke="none" 
	d="
M1231.403809,379.009033 
	C1231.050049,378.781006 1231.015015,378.441956 1230.905273,377.597015 
	C1233.205811,374.708374 1235.581055,372.325562 1237.956177,369.942749 
	C1238.343872,370.333771 1238.731567,370.724762 1239.119263,371.115784 
	C1236.653687,373.709869 1234.188232,376.303925 1231.403809,379.009033 
z"/>
<path fill="#BFBFBF" opacity="1.000000" stroke="none" 
	d="
M276.037781,485.833679 
	C273.294159,484.957611 270.550507,484.081512 267.806885,483.205444 
	C267.987427,482.693207 268.167969,482.181000 268.348511,481.668762 
	C270.991882,482.448181 273.635254,483.227570 276.531097,484.328125 
	C276.534973,485.044067 276.286377,485.438904 276.037781,485.833679 
z"/>
<path fill="#898989" opacity="1.000000" stroke="none" 
	d="
M1201.230957,623.323425 
	C1203.752930,620.346069 1206.543335,617.678528 1209.676025,614.986572 
	C1207.178711,617.852539 1204.338989,620.742920 1201.230957,623.323425 
z"/>
<path fill="#5D5D5D" opacity="1.000000" stroke="none" 
	d="
M829.350098,454.192688 
	C831.119995,451.986267 833.214050,449.983246 835.651245,447.997559 
	C833.887695,450.141968 831.780945,452.269043 829.350098,454.192688 
z"/>
<path fill="#898989" opacity="1.000000" stroke="none" 
	d="
M1194.237305,629.322266 
	C1196.085815,627.009766 1198.208618,625.005676 1200.674072,622.983582 
	C1198.848267,625.187256 1196.679810,627.408997 1194.237305,629.322266 
z"/>
<path fill="#BFBFBF" opacity="1.000000" stroke="none" 
	d="
M1115.583130,641.167725 
	C1115.949585,641.892944 1115.863037,642.512573 1115.753418,643.601807 
	C1115.730347,644.071289 1115.687134,644.129761 1115.222656,644.048218 
	C1114.460693,643.957397 1114.163330,643.948120 1113.866089,643.938904 
	C1111.998413,643.429993 1110.130737,642.921082 1108.263062,642.412170 
	C1108.239990,642.071411 1108.216919,641.730713 1108.193726,641.389954 
	C1110.505859,641.280762 1112.817993,641.171509 1115.583130,641.167725 
z"/>
<path fill="#898989" opacity="1.000000" stroke="none" 
	d="
M1189.332397,633.984863 
	C1190.427612,632.355774 1191.867065,630.669434 1193.661621,628.974854 
	C1192.570068,630.620300 1191.123291,632.273987 1189.332397,633.984863 
z"/>
<path fill="#F2F2F2" opacity="1.000000" stroke="none" 
	d="
M309.416229,485.914734 
	C309.011322,485.468079 309.002106,485.087311 309.005859,484.421082 
	C311.078339,483.809662 313.137848,483.483704 315.578796,483.479034 
	C315.969086,484.170166 315.977905,484.540039 315.986694,484.909882 
	C313.928436,485.266815 311.870178,485.623749 309.416229,485.914734 
z"/>
<path fill="#F2F2F2" opacity="1.000000" stroke="none" 
	d="
M368.679932,479.943481 
	C366.266022,480.678589 363.838165,480.859680 361.410339,481.040741 
	C361.395569,480.490326 361.380798,479.939911 361.366058,479.389496 
	C363.799377,479.389496 366.232697,479.389496 368.679932,479.943481 
z"/>
<path fill="#D7D7D7" opacity="1.000000" stroke="none" 
	d="
M276.443359,485.912689 
	C276.286377,485.438904 276.534973,485.044067 276.890747,484.440918 
	C279.250549,484.627686 281.503174,485.022797 283.755798,485.417908 
	C283.699005,485.851501 283.642212,486.285065 283.585419,486.718628 
	C281.339935,486.476318 279.094421,486.234009 276.443359,485.912689 
z"/>
<path fill="#F2F2F2" opacity="1.000000" stroke="none" 
	d="
M355.137085,481.121521 
	C356.814606,480.017090 358.618317,479.403503 360.421997,478.789886 
	C360.588196,479.436401 360.754395,480.082916 360.920563,480.729431 
	C359.034821,481.023743 357.149048,481.318054 355.137085,481.121521 
z"/>
<path fill="#D7D7D7" opacity="1.000000" stroke="none" 
	d="
M316.419922,484.994476 
	C315.977905,484.540039 315.969086,484.170166 315.963745,483.522552 
	C317.388916,483.180695 318.810577,483.116638 320.661804,483.479858 
	C321.728668,484.192078 322.366028,484.476990 323.003357,484.761902 
	C320.953308,484.867645 318.903229,484.973358 316.419922,484.994476 
z"/>
<path fill="#F2F2F2" opacity="1.000000" stroke="none" 
	d="
M371.327271,478.509216 
	C372.845581,478.371002 373.887146,478.371002 374.928741,478.371002 
	C374.999207,478.802704 375.069641,479.234436 375.140106,479.666138 
	C373.268982,480.160950 371.397858,480.655792 369.526703,481.150604 
	C369.361420,480.812073 369.196136,480.473541 369.030823,480.135010 
	C369.637421,479.639160 370.244019,479.143311 371.327271,478.509216 
z"/>
<path fill="#F2F2F2" opacity="1.000000" stroke="none" 
	d="
M323.416138,484.800537 
	C322.366028,484.476990 321.728668,484.192078 320.741272,483.835999 
	C322.774261,483.181335 325.157288,482.597870 327.540344,482.014404 
	C327.684937,482.525970 327.829529,483.037506 327.974121,483.549042 
	C326.592377,483.979095 325.210663,484.409119 323.416138,484.800537 
z"/>
<path fill="#F2F2F2" opacity="1.000000" stroke="none" 
	d="
M343.788757,482.726715 
	C344.594482,481.638733 345.888580,480.681030 347.182709,479.723297 
	C347.500519,480.303680 347.818359,480.884033 348.136200,481.464386 
	C346.849823,481.928589 345.563477,482.392761 343.788757,482.726715 
z"/>
<path fill="#F2F2F2" opacity="1.000000" stroke="none" 
	d="
M348.351440,481.043091 
	C350.089508,480.388214 351.846710,480.286957 353.603943,480.185699 
	C353.610687,480.656036 353.617432,481.126373 353.624176,481.596710 
	C351.872986,481.596710 350.121765,481.596710 348.351440,481.043091 
z"/>
<path fill="#898989" opacity="1.000000" stroke="none" 
	d="
M405.600403,859.767273 
	C404.896637,858.820679 404.373993,857.468384 403.851349,856.116150 
	C404.421356,855.990234 404.991364,855.864258 405.561371,855.738342 
	C405.634735,856.946106 405.708099,858.153870 405.600403,859.767273 
z"/>
<path fill="#F2F2F2" opacity="1.000000" stroke="none" 
	d="
M334.681702,483.778625 
	C333.689484,481.745697 333.689484,481.745697 337.998352,482.221191 
	C337.055298,482.721924 336.112244,483.222687 334.681702,483.778625 
z"/>
<path fill="#F2F2F2" opacity="1.000000" stroke="none" 
	d="
M339.950012,481.025879 
	C341.260162,481.218231 342.019470,481.428833 342.778748,481.639435 
	C342.723755,482.047729 342.668732,482.456024 342.613739,482.864319 
	C341.194733,482.653442 339.775757,482.442535 338.356750,482.231628 
	C338.704224,481.835815 339.051666,481.439941 339.950012,481.025879 
z"/>
<path fill="#F2F2F2" opacity="1.000000" stroke="none" 
	d="
M328.848572,483.762329 
	C329.597473,482.987701 330.869781,482.411682 332.142090,481.835663 
	C332.341980,482.377380 332.541901,482.919128 332.741821,483.460846 
	C331.618530,483.627533 330.495270,483.794220 328.848572,483.762329 
z"/>
<path fill="#D7D7D7" opacity="1.000000" stroke="none" 
	d="
M1113.396118,644.014954 
	C1114.163330,643.948120 1114.460693,643.957397 1115.194702,644.082153 
	C1114.682373,644.733948 1113.733521,645.270264 1112.784668,645.806580 
	C1112.831787,645.234741 1112.878906,644.662842 1113.396118,644.014954 
z"/>
<path fill="#D7D7D7" opacity="1.000000" stroke="none" 
	d="
M1050.828735,804.608521 
	C1051.780396,804.164490 1053.041870,804.093811 1054.303345,804.023132 
	C1053.735718,804.486389 1053.168091,804.949585 1052.210205,805.542664 
	C1051.593018,805.442322 1051.365845,805.212097 1050.828735,804.608521 
z"/>
<path fill="#BFBFBF" opacity="1.000000" stroke="none" 
	d="
M1091.531616,662.535522 
	C1091.622437,661.286377 1091.713379,660.037231 1091.804321,658.788086 
	C1092.086670,659.380554 1092.368896,659.973083 1092.395630,661.257751 
	C1091.937256,662.145142 1091.734375,662.340332 1091.531616,662.535522 
z"/>
<path fill="#D7D7D7" opacity="1.000000" stroke="none" 
	d="
M1062.220703,799.944885 
	C1062.956421,799.996643 1063.279907,800.187866 1063.777344,800.600952 
	C1063.237061,800.576660 1062.522705,800.330505 1062.220703,799.944885 
z"/>
<path fill="#F0F0F0" opacity="1.000000" stroke="none" 
	d="
M1028.626221,812.360962 
	C1029.334961,812.086548 1029.932739,812.240479 1030.743652,812.619568 
	C1030.142944,812.826294 1029.329102,812.807800 1028.626221,812.360962 
z"/>
<path fill="#BFBFBF" opacity="1.000000" stroke="none" 
	d="
M1096.557983,784.859619 
	C1097.093750,785.001282 1097.409668,785.193237 1097.835083,785.641357 
	C1097.633179,786.044128 1097.321899,786.190735 1096.782227,786.460449 
	C1096.373047,786.366699 1096.192139,786.150024 1095.761963,785.590698 
	C1095.753662,785.051697 1096.028809,784.938965 1096.557983,784.859619 
z"/>
<path fill="#BFBFBF" opacity="1.000000" stroke="none" 
	d="
M1092.462402,661.677368 
	C1093.242188,661.999451 1093.699463,662.594177 1094.156860,663.188904 
	C1093.495972,663.130676 1092.835083,663.072510 1091.852905,662.774902 
	C1091.734375,662.340332 1091.937256,662.145142 1092.462402,661.677368 
z"/>
<path fill="#5D5D5D" opacity="1.000000" stroke="none" 
	d="
M850.291870,435.189697 
	C850.466187,434.528870 850.945007,434.047882 851.725830,433.779419 
	C851.550720,434.451172 851.073547,434.910339 850.291870,435.189697 
z"/>
<path fill="#898989" opacity="1.000000" stroke="none" 
	d="
M1210.283203,615.268921 
	C1210.622192,614.420471 1211.291260,613.825439 1212.255981,613.617126 
	C1211.905396,614.510010 1211.259399,615.016235 1210.283203,615.268921 
z"/>
<path fill="#BFBFBF" opacity="1.000000" stroke="none" 
	d="
M709.244263,478.918457 
	C709.207336,478.666840 709.446228,478.431763 709.931885,478.138489 
	C709.959106,478.365173 709.739624,478.650085 709.244263,478.918457 
z"/>
<path fill="#D7D7D7" opacity="1.000000" stroke="none" 
	d="
M1060.750000,801.750000 
	C1060.466675,801.700012 1060.433350,801.399963 1060.400024,801.099976 
	C1060.599976,801.233337 1060.799927,801.366699 1060.750000,801.750000 
z"/>
<path fill="#D7D7D7" opacity="1.000000" stroke="none" 
	d="
M1058.735352,802.679443 
	C1058.415527,802.670288 1058.342041,802.438171 1058.268433,802.206055 
	C1058.506226,802.289490 1058.743896,802.372986 1058.735352,802.679443 
z"/>
<path fill="#ADADAD" opacity="1.000000" stroke="none" 
	d="
M827.662476,444.220764 
	C828.150635,444.114166 828.445557,444.305817 828.863525,444.734863 
	C828.824585,445.114685 828.662598,445.257080 828.242554,445.204132 
	C827.812744,444.845520 827.640991,444.682281 827.662476,444.220764 
z"/>
<path fill="#5D5D5D" opacity="1.000000" stroke="none" 
	d="
M799.666016,473.460266 
	C799.495728,473.551483 799.290039,473.714630 799.274902,473.789307 
	C799.413513,473.636200 799.578613,473.467590 799.666016,473.460266 
z"/>
<path fill="#000000" opacity="1.000000" stroke="none" 
	d="
M544.168335,283.184052 
	C558.377380,280.464203 572.501587,277.108826 586.818665,275.198639 
	C601.914734,273.184540 617.177063,271.956451 632.400269,271.500122 
	C644.650269,271.132935 656.964172,272.216309 669.224548,273.034149 
	C689.515503,274.387573 709.365601,278.506653 728.444641,285.333832 
	C738.229553,288.835236 747.748657,293.825256 756.363831,299.655670 
	C766.498718,306.514587 770.992310,315.898926 765.177368,330.390015 
	C761.349976,339.928009 755.562927,348.043549 748.839355,355.612000 
	C730.170654,376.626556 707.242554,391.866119 682.007568,403.612701 
	C628.570984,428.486755 573.300415,448.244934 515.910034,461.948547 
	C510.510956,463.237701 506.058136,462.810272 501.792908,459.056488 
	C498.950348,456.554718 495.605682,454.623413 492.092041,451.847351 
	C491.937531,450.121033 492.087830,448.956787 492.428864,447.851349 
	C503.149841,413.099182 513.798157,378.324219 524.661011,343.616425 
	C530.983337,323.415924 537.654236,303.324524 544.168335,283.184052 
z"/>
<path fill="#010101" opacity="1.000000" stroke="none" 
	d="
M490.007172,450.094055 
	C482.069885,444.468140 473.943512,439.088318 466.234192,433.165619 
	C449.660034,420.432648 434.977203,405.859711 424.210419,387.732056 
	C418.954498,378.882904 415.160034,369.411377 414.084015,359.133179 
	C412.367065,342.732269 419.843201,330.790894 433.122070,321.998047 
	C447.943268,312.183960 464.419281,305.968231 481.268738,300.867493 
	C501.185425,294.838135 521.308350,289.489960 541.720215,284.066833 
	C541.887451,285.247803 541.749512,286.231537 541.454651,287.165710 
	C524.313721,341.477783 507.159821,395.785706 490.007172,450.094055 
z"/>
<path fill="#898989" opacity="1.000000" stroke="none" 
	d="
M490.094727,450.376312 
	C507.159821,395.785706 524.313721,341.477783 541.454651,287.165710 
	C541.749512,286.231537 541.887451,285.247803 542.086426,283.859131 
	C542.586853,283.290863 543.099365,283.150604 543.890076,283.097229 
	C537.654236,303.324524 530.983337,323.415924 524.661011,343.616425 
	C513.798157,378.324219 503.149841,413.099182 492.428864,447.851349 
	C492.087830,448.956787 491.937531,450.121033 491.805542,451.661072 
	C491.335968,451.595703 490.759125,451.127136 490.094727,450.376312 
z"/>
<path fill="#010101" opacity="1.000000" stroke="none" 
	d="
M487.479675,466.979340 
	C488.168732,462.995605 489.279175,459.045410 490.750244,454.947937 
	C495.309784,457.697632 499.508698,460.594666 504.735962,464.201202 
	C498.442932,465.252258 493.172028,466.132568 487.479675,466.979340 
z"/>
<path fill="#010101" opacity="1.000000" stroke="none" 
	d="
M865.823792,649.387085 
	C857.360291,641.422363 858.061096,630.283630 867.817261,624.744080 
	C872.823792,621.901306 878.770508,619.769165 884.466797,619.257019 
	C904.435181,617.461670 923.285095,620.657532 939.073975,634.974487 
	C938.737183,635.382690 938.452576,636.053223 937.965515,636.271118 
	C917.426208,645.459351 896.490356,653.128540 873.458923,651.938110 
	C870.969727,651.809509 868.544006,650.451721 865.823792,649.387085 
z"/>
<path fill="#000000" opacity="1.000000" stroke="none" 
	d="
M862.462036,474.702515 
	C858.166382,482.408081 852.754395,488.889954 844.129578,491.347198 
	C841.051941,492.224060 837.606995,491.811615 834.039062,490.989258 
	C840.888550,481.570801 851.160522,478.118958 861.141907,473.566223 
	C861.693359,473.699280 861.922852,473.978424 862.462036,474.702515 
z"/>
<path fill="#010101" opacity="1.000000" stroke="none" 
	d="
M919.292969,484.593903 
	C923.075012,482.590424 926.672058,480.810455 930.619507,478.992615 
	C930.969849,478.954712 930.939331,478.891602 930.939331,478.891602 
	C929.006653,481.234406 927.477966,484.181915 925.059509,485.797638 
	C919.556274,489.474335 913.616150,492.497162 907.494873,495.710327 
	C907.921936,494.207825 908.382385,492.374695 909.557251,491.432892 
	C912.571594,489.016571 915.903198,486.996124 919.292969,484.593903 
z"/>
<path fill="#000000" opacity="1.000000" stroke="none" 
	d="
M911.024841,486.722412 
	C910.963135,487.241791 910.469177,487.922485 909.975159,488.603180 
	C909.677795,488.350525 909.380493,488.097900 909.083130,487.845276 
	C909.586304,487.524750 910.089417,487.204224 911.024841,486.722412 
z"/>
<path fill="#5D5D5D" opacity="1.000000" stroke="none" 
	d="
M803.944092,472.968414 
	C804.427124,473.133575 804.949707,473.313782 805.472290,473.494019 
	C805.185364,473.809052 804.898438,474.124115 804.611511,474.439148 
	C804.390686,474.121399 804.169861,473.803650 803.951172,473.195190 
	C803.953308,472.904510 803.983582,472.983490 803.944092,472.968414 
z"/>
<path fill="#000000" opacity="1.000000" stroke="none" 
	d="
M811.087402,470.264191 
	C810.837463,469.731598 811.207642,469.386841 811.813721,468.744324 
	C811.935547,469.115082 811.821472,469.783569 811.087402,470.264191 
z"/>
<path fill="#000000" opacity="1.000000" stroke="none" 
	d="
M1168.390625,651.944946 
	C1168.163574,651.468445 1168.230103,650.880981 1168.656250,650.145325 
	C1168.905151,650.609375 1168.794556,651.221741 1168.390625,651.944946 
z"/>
<path fill="#010101" opacity="1.000000" stroke="none" 
	d="
M1177.579956,639.869019 
	C1177.815430,640.256897 1177.748047,640.621887 1177.307373,640.996704 
	C1177.048340,640.619690 1177.162720,640.232910 1177.579956,639.869019 
z"/>
<path fill="#010101" opacity="1.000000" stroke="none" 
	d="
M930.988708,478.984314 
	C931.200867,478.819000 931.394226,478.624115 931.587524,478.429199 
	C931.511597,478.727966 931.435669,479.026794 931.149536,479.108612 
	C930.939331,478.891602 930.969849,478.954712 930.988708,478.984314 
z"/>
<path fill="#000000" opacity="1.000000" stroke="none" 
	d="
M1235.671387,661.492432 
	C1235.755005,660.856567 1236.130859,660.571289 1236.506714,660.285889 
	C1236.618408,660.837158 1236.729980,661.388428 1236.728149,662.211426 
	C1236.397705,662.269775 1236.180664,662.056396 1235.671387,661.492432 
z"/>
<path fill="#ADADAD" opacity="1.000000" stroke="none" 
	d="
M794.183777,483.048767 
	C793.691467,482.768341 793.153931,482.435791 792.616394,482.103210 
	C793.076721,481.769226 793.537048,481.435211 793.997314,481.101196 
	C794.100281,481.576202 794.203308,482.051239 794.257019,482.816650 
	C794.207764,483.107025 794.138550,482.996613 794.183777,483.048767 
z"/>
</svg>