<svg version="1.1" id="Layer_1" xmlns="http://www.w3.org/2000/svg" xmlns:xlink="http://www.w3.org/1999/xlink" x="0px" y="0px"
	 width="100%" viewBox="0 0 1024 1024" enable-background="new 0 0 1024 1024" xml:space="preserve">
<path fill="#000000" opacity="1.000000" stroke="none" 
	d="
M929.714111,228.698257 
	C934.041382,222.513184 938.368713,216.328094 942.648438,210.210968 
	C945.514343,211.636520 945.185120,213.492096 944.876160,215.301132 
	C940.655884,240.011322 934.109192,264.194214 923.551025,286.840668 
	C915.253296,304.638611 902.533142,319.996704 891.035339,335.940491 
	C881.253357,349.504944 870.298584,361.977142 857.359253,372.674225 
	C854.183350,375.299896 850.720520,376.980682 846.912109,378.293488 
	C826.936523,385.179260 806.983398,392.129944 787.027649,399.072968 
	C786.572266,399.231445 786.178040,399.565460 784.782837,400.397522 
	C789.060303,400.986389 791.988220,399.140961 794.823364,398.312042 
	C822.290894,390.281464 849.667480,381.940002 877.069519,373.685425 
	C881.595032,372.322205 885.582336,369.934296 889.426697,367.249725 
	C903.026001,357.753296 915.221069,346.739838 925.684631,333.841248 
	C926.521423,332.809692 927.434998,331.837128 928.360413,330.883240 
	C928.557739,330.679932 928.962280,330.677612 929.547852,330.497742 
	C930.715149,332.122650 929.678162,333.580231 929.042908,334.947906 
	C908.544739,379.074371 881.340149,418.077484 842.619568,448.337860 
	C835.760132,453.698486 828.729980,458.881134 821.011963,462.757843 
	C816.698669,464.924377 811.365601,465.113464 806.464111,466.046906 
	C785.892639,469.964447 765.575500,474.922333 745.422607,480.823151 
	C745.763489,482.334808 747.033142,481.906006 747.798462,481.704895 
	C771.358337,475.514008 795.581543,473.274902 819.557800,469.563049 
	C828.603577,468.162659 837.650024,466.921265 846.811707,466.589539 
	C851.028809,466.436859 854.935547,465.271973 858.567627,462.908386 
	C870.863464,454.906769 883.002991,446.703857 894.272583,437.274872 
	C895.462952,436.278961 896.459167,434.640503 898.919922,435.394928 
	C898.593689,438.482941 896.595947,440.736023 894.988770,443.113220 
	C876.541565,470.398010 851.867493,490.959961 824.473511,508.655029 
	C812.442322,516.426453 799.351624,522.151672 786.783508,528.880188 
	C782.679138,531.077576 777.559265,531.349609 773.256470,531.494934 
	C764.759338,531.781738 756.570801,534.230164 748.085815,534.048157 
	C736.863342,533.807434 726.008423,536.758789 714.729675,538.051453 
	C725.027527,541.526428 732.826599,550.238220 744.507324,550.029541 
	C759.822021,549.755920 775.147461,550.028442 790.467407,550.163330 
	C792.426270,550.180542 795.255310,548.978027 795.982605,551.942688 
	C796.648132,554.655457 793.865906,554.860535 792.179443,555.699646 
	C773.558899,564.963989 754.232422,572.212097 733.756653,576.203796 
	C730.818481,576.776611 727.925171,577.587524 725.027039,578.348999 
	C724.592773,578.463135 724.246704,578.912598 722.971008,579.883240 
	C747.903503,600.177979 773.168335,619.422241 799.833740,636.707520 
	C798.723694,640.531616 796.036194,640.414001 793.350769,640.346130 
	C777.202454,639.938110 761.179199,637.430603 745.082275,636.937134 
	C731.711304,636.527222 719.023499,632.306519 705.722473,631.667542 
	C701.057129,631.443420 696.034302,630.379822 690.878601,628.867554 
	C693.128723,635.321289 697.654480,640.122559 701.523560,644.901062 
	C704.884460,649.052002 706.785950,654.199280 711.064209,657.803772 
	C713.344604,659.724915 715.576050,662.359985 716.907776,665.411682 
	C717.503479,666.776855 718.804443,667.997314 717.652832,669.456238 
	C716.708496,670.652588 715.172119,670.329346 713.920776,669.861633 
	C704.003723,666.154846 693.880615,663.033997 684.199890,658.643555 
	C677.685242,655.689026 671.139282,652.865845 664.917297,649.303894 
	C659.517761,646.212646 658.574280,643.467651 661.463440,637.953735 
	C665.479004,630.289978 665.571350,630.194092 659.329163,624.181152 
	C650.442200,615.620605 642.588135,606.141602 634.914734,596.806274 
	C634.213257,596.841797 633.810486,596.737549 633.581299,596.891602 
	C622.076599,604.622253 622.004211,604.684875 630.837219,615.554810 
	C636.905579,623.022644 643.215149,630.294556 650.112610,638.479614 
	C645.802307,637.456787 645.982910,639.711670 646.498352,641.575928 
	C649.875122,653.790039 650.277283,666.440430 651.917236,678.891724 
	C654.717834,700.155640 658.150085,721.306274 661.830139,742.425659 
	C663.597717,752.569580 665.338928,762.718140 667.048401,772.871948 
	C667.176819,773.634888 666.953918,774.456909 666.756958,777.082581 
	C642.817261,757.474365 621.025513,737.577209 601.638672,714.541199 
	C602.661743,723.798645 603.682251,733.056458 604.708496,742.313538 
	C605.897766,753.041199 607.112122,763.766052 608.273438,774.496765 
	C608.684570,778.296326 608.745422,782.146179 609.358704,785.909058 
	C611.066833,796.390991 607.567200,805.895081 604.286133,815.506470 
	C599.111023,830.666016 592.400879,845.139160 585.145020,859.556396 
	C581.923950,858.810242 581.645447,856.491882 581.743042,853.902771 
	C582.181946,842.255859 582.521240,830.604553 583.058899,818.962280 
	C583.447449,810.548523 582.482300,802.744629 579.085999,794.640259 
	C576.581909,788.665039 572.319275,783.041016 572.080994,776.099060 
	C572.047485,775.122925 571.436584,774.077942 570.306274,773.924988 
	C568.630676,773.698364 567.537476,774.701599 566.610413,775.998901 
	C564.276794,779.264587 563.282410,783.194458 561.701538,786.770325 
	C557.317749,796.686096 550.396362,805.296875 547.490234,816.008301 
	C546.008911,821.468384 540.921509,825.396423 539.100220,830.941956 
	C536.589905,838.585571 531.468811,844.643860 527.146301,851.222656 
	C523.078613,857.413513 519.675720,864.040100 515.947632,870.455933 
	C514.879700,872.293762 514.127075,874.397339 511.003693,876.166138 
	C492.161835,842.071716 471.327820,809.196899 454.111298,773.189697 
	C448.818115,780.281860 447.486084,787.454895 443.943787,793.453857 
	C438.656342,802.408264 439.975861,812.020691 440.095001,821.567810 
	C440.238312,833.054260 440.309479,844.543091 441.286469,856.005127 
	C441.446411,857.881531 441.945038,859.974487 440.449066,861.726318 
	C438.115479,861.910156 437.836731,859.909851 437.126221,858.587646 
	C427.157135,840.035339 419.821808,820.384705 413.188446,800.461914 
	C411.859314,796.469910 412.514435,792.152100 412.854980,788.038635 
	C413.801270,776.608154 415.823822,765.215271 415.972260,753.788696 
	C416.069519,746.302124 418.916748,739.286804 418.166565,731.678711 
	C417.792053,727.880737 420.718872,723.934631 419.235077,719.184875 
	C411.750641,731.406982 401.427979,740.946533 390.361176,749.413940 
	C379.265930,757.903259 369.474091,768.088013 356.870453,775.313416 
	C363.781189,729.902710 370.992371,684.808899 376.136658,639.378601 
	C373.854492,639.433350 372.804291,642.462708 369.718903,642.158142 
	C373.964050,635.203979 379.673523,629.863464 384.531067,623.855103 
	C389.347687,617.897400 394.156738,611.932983 398.898804,605.916138 
	C399.895721,604.651123 401.267944,603.246216 400.402863,601.442627 
	C399.495667,599.551270 397.506866,599.879639 395.951172,600.141541 
	C389.967743,601.149170 384.092255,602.848145 379.688202,607.193909 
	C371.633881,615.141541 364.463226,623.951538 355.884369,631.528259 
	C358.462708,636.326233 360.872498,640.825745 366.092743,642.948730 
	C365.376404,648.727295 360.407166,650.057678 356.741394,651.896667 
	C342.539368,659.021179 327.666687,664.626343 312.628448,669.728760 
	C310.112579,670.582336 307.009064,671.227661 304.953217,668.173157 
	C302.761597,664.916992 305.646759,663.508362 307.214020,661.501465 
	C314.588837,652.058044 321.891876,642.558411 329.186554,633.052734 
	C329.444702,632.716370 329.344727,632.105042 329.414642,631.600220 
	C327.721558,629.504944 324.984680,629.674988 323.418945,630.389038 
	C318.834442,632.479980 313.827423,632.492920 309.124084,633.469299 
	C303.424225,634.652588 297.569672,636.194824 291.685944,636.223694 
	C274.764343,636.306641 258.059570,639.193054 241.187286,639.791321 
	C236.530106,639.956482 231.873734,640.147705 227.218307,640.356812 
	C224.958771,640.458191 223.327728,639.767944 222.868088,636.794434 
	C236.196671,628.048950 249.423752,618.814697 261.898071,608.623474 
	C273.906616,598.812866 284.985352,587.876831 298.609283,579.164978 
	C282.799652,575.378540 267.975311,572.036011 253.606323,566.796265 
	C245.133820,563.706787 236.862595,560.266113 228.652847,556.581482 
	C226.372467,555.557983 225.458511,554.305054 225.897171,552.069702 
	C226.397675,549.519287 228.579758,550.009766 230.327026,549.998535 
	C243.825195,549.911438 257.357300,549.262878 270.811249,550.008484 
	C281.357086,550.592957 290.747803,548.350769 299.537384,542.934082 
	C302.143616,541.327942 305.375549,540.792419 307.538483,538.507935 
	C306.944427,535.580139 304.658722,536.149780 303.088654,536.303223 
	C292.427307,537.345154 281.962402,534.733582 271.532471,533.729065 
	C259.980804,532.616577 248.050781,533.248535 236.822662,529.949707 
	C230.411072,528.065979 224.594055,524.222473 218.412384,521.479980 
	C201.608948,514.025269 186.625870,503.639343 171.636963,493.173706 
	C167.734222,490.448669 164.176605,487.892670 161.971695,483.594208 
	C161.328903,482.341064 160.022034,480.912628 158.754105,480.581757 
	C151.742889,478.752167 147.393234,473.190674 143.911942,467.989868 
	C137.046234,457.733032 128.902527,448.382782 122.716110,437.678497 
	C122.506729,437.316193 122.689545,436.727234 122.689545,436.285461 
	C125.203346,434.408508 126.470055,436.678192 127.850456,437.808228 
	C137.277206,445.525024 147.451050,452.197021 157.356506,459.250031 
	C163.992599,463.975128 171.290344,465.673431 179.243210,466.493774 
	C208.013809,469.461426 236.405258,475.058502 264.982605,479.380737 
	C266.282776,479.577362 267.610596,479.591003 269.073853,478.968384 
	C241.863815,471.649353 214.306503,465.926575 186.533524,460.517426 
	C187.315826,458.805328 189.515961,460.359863 190.579330,459.108032 
	C147.901627,423.656433 114.317490,381.282776 91.942879,329.761230 
	C94.808418,329.401459 95.982834,331.139648 97.096016,332.626495 
	C105.065880,343.271698 115.249985,352.339081 127.263512,356.507324 
	C136.554916,359.731110 143.761108,365.497894 152.195374,369.521637 
	C152.756424,369.789307 153.199814,370.303589 154.761017,371.555969 
	C148.708725,370.271362 145.021942,366.696045 140.168854,365.751556 
	C142.857590,369.087372 144.859055,372.844330 149.410217,374.428070 
	C172.201324,382.359070 195.372391,389.029053 218.570175,395.619568 
	C219.337631,395.837585 220.171951,395.820282 221.936172,396.023224 
	C218.874893,393.369171 216.054520,392.275726 213.180832,391.275970 
	C199.981598,386.684021 186.794434,382.056885 173.575790,377.521484 
	C169.883163,376.254517 166.747177,374.267120 163.798538,371.705292 
	C140.460785,351.429260 124.263847,325.503418 106.869797,300.470459 
	C96.319626,285.286987 92.705872,267.588287 87.242218,250.536713 
	C83.691505,239.455292 81.268677,228.069077 79.102455,216.636047 
	C78.689384,214.455948 78.234680,212.341064 80.923004,210.367142 
	C88.986694,221.258163 97.046967,232.144562 105.044800,243.517944 
	C104.852997,244.120911 104.723625,244.236908 104.594261,244.352890 
	C100.784615,240.972260 98.582275,235.979614 93.861771,233.351868 
	C92.754669,235.301483 93.990547,236.742340 94.409698,238.256958 
	C101.788521,264.921021 118.664055,284.914612 139.280670,302.341858 
	C159.510147,319.441833 179.820053,336.456543 199.687180,353.970886 
	C208.810089,362.013367 219.959610,364.415924 230.945633,367.531464 
	C243.739853,371.159882 256.645660,374.395020 269.504120,377.796722 
	C274.612396,379.148071 278.931763,381.872803 282.893616,385.296265 
	C295.624542,396.297302 308.364990,407.287720 321.173553,418.197937 
	C322.821777,419.601898 324.129852,421.962158 327.290100,421.317078 
	C327.969238,418.029694 325.562469,416.110352 323.928162,414.019714 
	C308.056763,393.716919 289.676849,375.869080 269.774475,359.599335 
	C253.528809,346.318848 237.470917,332.712952 219.444641,321.840088 
	C206.184830,313.842194 192.526703,306.505676 179.074326,298.824982 
	C176.650772,297.441284 174.364288,295.817474 171.955887,294.266754 
	C173.399078,292.203857 174.504868,294.570465 175.748856,293.868927 
	C175.534912,293.474823 175.372162,293.038208 175.097794,292.689362 
	C164.287613,278.944458 153.647171,265.060913 142.598770,251.509979 
	C131.063873,237.362381 125.965614,220.548203 121.988693,203.295578 
	C116.462982,179.324051 111.864037,155.184509 111.478836,130.453506 
	C111.437508,127.800117 111.309563,125.154716 112.641914,121.404747 
	C123.706497,133.780029 133.604019,146.135468 142.822372,159.597046 
	C139.821289,160.066132 136.876358,157.577377 134.981201,160.390564 
	C133.041122,163.270386 134.110123,166.457520 134.863678,169.559036 
	C141.653152,197.503494 155.486343,221.873779 171.213287,245.718369 
	C180.856110,260.338470 192.187210,270.869568 208.190689,278.069061 
	C235.517181,290.362457 262.237762,304.026703 289.863251,315.687897 
	C301.472534,320.588409 309.438507,329.678680 316.834137,338.950409 
	C328.778748,353.925171 344.398621,363.845947 360.216064,373.733154 
	C360.719696,374.047974 361.392914,374.091400 362.561676,373.801025 
	C348.962311,353.844360 336.208862,333.462677 324.219116,312.978943 
	C325.574951,310.722015 327.643982,311.891693 328.597443,311.189362 
	C304.232666,290.045715 275.949707,274.750397 248.383331,258.394867 
	C241.246841,254.160706 237.302979,247.567886 232.854767,241.209015 
	C230.471176,237.801590 228.492264,234.112991 226.154266,230.671143 
	C224.103104,227.651520 222.816284,224.614990 224.042007,220.898422 
	C224.738754,218.785751 223.927826,216.900925 222.418213,215.431763 
	C208.567902,201.952744 202.764450,183.966446 195.446106,166.893967 
	C189.814682,153.756836 183.759338,140.673843 181.262939,126.458397 
	C179.037048,113.783447 177.315842,101.015976 176.208679,88.150497 
	C178.547653,87.885300 178.679260,89.331352 178.986816,90.298561 
	C187.995895,118.630127 201.092834,145.272339 212.916626,172.438675 
	C215.242386,177.782379 217.729813,183.062363 220.330750,188.277954 
	C223.532318,194.697922 226.848328,196.339645 233.607864,194.527206 
	C237.999725,193.349594 241.565125,194.589035 244.669113,197.391739 
	C249.049667,201.347076 253.549881,202.392029 258.687134,198.952530 
	C261.632599,196.980469 263.757477,198.653366 265.574890,200.803619 
	C270.414459,206.529465 275.157806,212.336563 279.984497,218.073425 
	C281.023224,219.307999 281.922455,220.801117 283.974915,221.225235 
	C285.617950,219.049408 284.269775,217.099136 283.497192,215.256485 
	C278.734741,203.898010 273.866821,192.583740 269.114960,181.220901 
	C268.516693,179.790375 267.175201,178.389832 268.823853,175.370865 
	C309.333282,242.500153 349.770111,308.883240 401.215912,367.735077 
	C398.206482,367.616119 396.520569,365.739166 394.880219,363.767700 
	C384.421661,351.197968 372.790710,339.716125 361.191162,328.245636 
	C354.870300,321.995056 345.523987,321.240845 337.731476,317.583130 
	C336.330048,316.925293 334.761292,315.738037 333.015717,317.442139 
	C332.671265,319.791016 334.863770,320.729401 336.093048,322.054474 
	C357.853546,345.510437 379.506409,369.060608 400.223541,393.453644 
	C407.341492,401.834534 414.591675,410.104980 421.600128,418.575897 
	C423.822083,421.261536 425.797272,421.766663 428.776093,419.885345 
	C433.702637,416.773865 438.790649,413.917267 443.823364,410.975098 
	C445.780151,409.831177 447.709991,408.581879 450.764252,409.147552 
	C447.149689,413.039276 443.757721,417.174164 439.852570,420.748383 
	C436.526825,423.792206 434.950989,426.993256 435.138702,431.607178 
	C435.437622,438.954498 431.964569,444.136871 425.903076,448.711426 
	C418.327881,454.428345 411.215912,455.955963 402.475861,452.010498 
	C398.594788,450.258453 394.419983,448.299438 389.845490,448.418304 
	C389.251709,451.217041 391.191925,452.136841 392.378448,453.346924 
	C404.250885,465.455017 419.127411,472.385376 434.889435,477.699677 
	C439.769257,479.344971 444.786163,480.580597 449.723663,482.059265 
	C451.796265,482.679993 452.928497,482.348969 453.883850,480.038330 
	C461.894318,460.663452 461.961060,440.556976 459.695801,420.212982 
	C459.570160,419.084381 459.322784,417.829926 458.711090,416.915680 
	C448.466003,401.602356 442.768829,383.695709 430.323761,369.492676 
	C423.286896,361.461731 418.654602,351.322235 412.956268,342.121918 
	C412.253845,340.987732 411.440399,339.738739 412.135345,338.384308 
	C419.451752,324.125183 413.108459,310.771820 409.302368,297.334595 
	C401.097839,268.368927 393.421112,239.249771 384.311035,210.544220 
	C384.123779,209.954239 384.198273,209.281204 384.022766,206.942871 
	C391.009155,212.608093 396.193665,218.131332 402.297882,224.695938 
	C397.474792,223.680145 396.398438,219.404053 392.774231,219.202911 
	C391.617889,221.086533 392.899536,222.509476 393.508301,223.951035 
	C396.293762,230.546875 399.229767,237.079437 401.986542,243.686951 
	C403.203613,246.604065 405.175415,248.610199 407.883453,250.187515 
	C425.518250,260.458984 441.457092,273.055359 456.976990,286.216583 
	C457.231171,286.432159 457.534332,286.612854 457.727112,286.874329 
	C459.332184,289.051392 463.088318,290.408569 462.010406,293.583832 
	C461.022736,296.493164 457.529358,295.831238 454.936340,296.019501 
	C452.280914,296.212341 450.612213,297.740784 449.561584,299.940186 
	C446.340546,306.683014 446.009918,313.268341 450.658539,319.650970 
	C458.897034,330.962616 467.464142,342.039917 475.051239,353.819031 
	C478.479401,359.141296 481.915894,364.437744 484.807556,370.096558 
	C489.462128,379.205414 497.215271,386.114197 502.669678,394.706451 
	C505.000458,398.378082 506.503448,402.859406 511.058014,405.718170 
	C515.143005,400.509003 519.023865,395.357513 523.115417,390.379181 
	C537.799438,372.512421 548.035950,351.551361 562.658325,333.650909 
	C567.042664,328.283661 572.408997,323.788788 575.101685,317.000061 
	C577.347473,311.338257 576.536438,307.668030 570.759277,305.525757 
	C565.274109,303.491821 560.216248,299.818756 554.060913,301.653015 
	C553.148743,298.214874 555.222046,297.138062 556.504944,295.805908 
	C574.429688,277.193146 595.154419,262.125092 616.972351,248.497726 
	C619.718994,246.782166 621.321167,244.827560 622.420349,241.837341 
	C625.691589,232.937683 628.327332,223.776199 632.806519,215.352356 
	C633.539124,213.974396 633.785156,212.117798 636.049561,211.560699 
	C637.360291,213.746613 636.227478,215.753403 635.737976,217.669632 
	C627.630371,249.408890 618.863831,280.957642 607.965820,311.872040 
	C606.530151,315.944580 606.161377,319.882965 607.439209,324.019928 
	C608.567993,327.674530 609.400879,331.424286 610.618042,335.046814 
	C611.885925,338.820404 611.436584,341.859344 608.878967,345.190216 
	C602.087830,354.034485 597.778625,364.551178 590.383545,373.041840 
	C582.052490,382.607025 576.485596,393.911346 570.616577,405.014984 
	C570.305115,405.604309 570.105896,406.287323 569.682190,406.777924 
	C561.965820,415.712097 561.601379,426.378326 562.272400,437.367065 
	C562.827820,446.464478 560.934082,455.665649 563.321228,464.686310 
	C563.913635,466.924805 564.816406,469.081268 565.578552,471.274780 
	C566.604065,474.226074 567.938599,477.128448 567.350464,480.027374 
	C565.544495,481.969025 564.397888,479.129578 562.466003,480.448639 
	C561.956909,489.579285 558.234741,498.388458 555.585571,507.409241 
	C553.417419,514.792358 549.139099,521.629395 545.312805,528.436768 
	C537.334167,542.631287 526.886902,554.906494 515.189270,566.188721 
	C511.668762,569.584351 509.181519,570.021545 505.362885,566.175537 
	C492.314331,553.033447 481.892181,538.106262 473.250580,521.808411 
	C472.117676,519.671875 471.838226,515.565674 468.587677,516.210693 
	C463.893311,517.142212 457.848663,516.199158 455.112579,521.321411 
	C452.472321,526.264282 450.830536,531.438171 454.468201,537.297058 
	C461.332001,548.351746 469.047913,558.810242 476.116882,569.708618 
	C478.741913,573.755798 481.389923,577.719604 484.633850,581.327942 
	C488.441345,585.563110 491.072845,590.504517 492.871826,595.992432 
	C496.728149,607.756409 504.124146,617.694336 510.248322,628.457642 
	C509.729645,620.333130 513.384094,612.073730 508.654785,604.282104 
	C507.642120,602.613770 508.134949,600.951172 509.726715,599.908386 
	C512.195068,598.291260 514.093567,599.703369 515.886536,601.280579 
	C513.958679,607.406860 514.189453,613.022034 516.668945,617.373047 
	C519.541077,615.749512 521.340027,613.225342 522.655151,610.368469 
	C525.626892,603.913025 529.570251,597.860413 530.689758,590.616516 
	C530.867737,589.465027 532.141785,588.451111 532.988708,587.440308 
	C537.588440,581.950500 542.315613,576.563782 546.795410,570.978394 
	C550.140869,566.807251 552.702515,562.209656 554.280029,556.976013 
	C556.632874,549.169983 560.511230,541.972961 564.537598,534.924927 
	C566.810547,530.946167 567.478638,527.215759 565.233887,523.142883 
	C563.948425,520.810486 562.752197,518.418701 561.317505,516.180786 
	C558.086731,511.141174 558.528442,508.995636 563.931641,506.116516 
	C568.087891,503.901855 572.660034,502.844513 577.267700,502.052979 
	C587.027832,500.376312 595.440125,496.697510 600.198792,487.257874 
	C600.786743,486.091431 601.564087,484.700806 602.632629,484.152374 
	C606.974487,481.923706 608.862061,479.949707 604.477600,475.428253 
	C602.503052,473.391998 605.548645,471.057617 607.712463,469.772278 
	C616.794678,464.377472 624.510315,457.247009 632.430359,450.379425 
	C633.402466,449.536530 634.093933,448.369995 635.540039,446.580688 
	C629.339050,448.711304 624.079041,450.546112 618.797058,452.315033 
	C617.395691,452.784363 615.619568,453.810364 614.481140,452.803619 
	C608.799927,447.779175 600.242493,447.311157 595.994568,439.658569 
	C589.841492,428.573914 581.614319,418.864258 572.763489,409.749146 
	C572.332031,409.304810 572.071289,408.694733 570.990601,407.002106 
	C577.224731,409.441833 581.545654,412.730164 586.136597,415.459686 
	C597.739014,422.357910 597.639587,422.349213 606.591248,412.090790 
	C634.633911,379.954315 662.956177,348.067322 692.178589,316.993134 
	C694.056946,314.995789 695.745667,312.579895 700.371948,311.373749 
	C685.861084,332.913605 670.515930,352.304962 658.199341,373.898010 
	C661.209778,375.195129 662.624329,373.384399 664.303406,372.538391 
	C684.513123,362.355255 700.290955,347.008698 714.338318,329.629486 
	C719.789551,322.885406 726.657471,318.221252 734.701172,314.823914 
	C768.325989,300.621979 800.959534,284.299683 833.641479,268.083984 
	C838.843811,265.502808 841.091919,260.565399 844.052124,256.257477 
	C851.976807,244.724991 859.478333,232.902649 867.325806,221.315872 
	C877.032043,206.984726 881.036438,190.356674 886.586060,174.345963 
	C887.730103,171.045395 888.774780,167.706787 889.747925,164.351639 
	C890.681702,161.131866 889.002380,159.986893 886.065857,160.256531 
	C882.853638,160.551468 880.546875,162.228867 878.964355,165.087494 
	C873.720642,174.559372 868.486450,184.038620 863.069275,193.411438 
	C860.630615,197.630981 858.110413,201.885361 853.442871,205.516861 
	C870.115662,175.792908 886.428711,146.939377 909.378235,122.459343 
	C911.828979,123.940453 911.318542,126.412003 911.329773,128.653625 
	C911.424744,147.527985 908.372314,166.053925 904.892395,184.508713 
	C902.024536,199.717300 898.177307,214.673080 892.917175,229.272308 
	C888.219666,242.310074 879.031494,252.302078 870.819946,262.954987 
	C863.092041,272.980377 854.442810,282.359039 847.432922,292.846985 
	C844.044495,297.916565 839.671204,300.721313 834.914368,303.238892 
	C807.591431,317.699829 781.595703,334.108246 757.988892,354.166473 
	C742.369629,367.437866 727.300598,381.309052 712.241211,395.208832 
	C702.834839,403.890839 691.933105,410.984528 682.768921,419.888641 
	C672.779175,429.594879 661.818481,437.702454 649.995972,444.846863 
	C645.587463,447.510986 642.931702,451.533173 640.413086,456.025208 
	C635.278503,465.182739 629.750366,474.072815 628.199219,484.722443 
	C628.104126,485.374939 627.801819,485.994507 627.640381,486.640503 
	C625.238281,496.251984 626.869202,497.990356 636.188599,495.502594 
	C651.296326,491.469818 666.379700,487.345612 681.469604,483.246246 
	C683.121277,482.797516 685.101624,482.826538 684.837891,480.043640 
	C684.774414,479.374115 686.364319,478.424896 687.321777,477.800537 
	C696.672791,471.703064 706.163330,465.842560 715.948425,460.449768 
	C723.341064,456.375488 731.534058,455.958374 739.565186,454.776154 
	C747.619385,453.590485 755.721680,452.721680 763.760620,451.447571 
	C765.974548,451.096680 769.351562,451.120148 768.804382,447.351349 
	C768.372986,444.379456 768.587097,440.818787 764.183350,440.131042 
	C752.179443,438.256348 740.394836,435.341156 728.588196,432.517883 
	C724.593567,431.562744 720.657532,433.004059 716.774475,433.838257 
	C704.905334,436.388062 693.062012,439.058594 681.205139,441.665924 
	C680.596191,441.799835 679.954102,441.782867 678.760437,441.884369 
	C680.384644,438.076843 682.877625,435.448029 685.484863,433.161163 
	C704.140991,416.797668 722.980042,400.642700 741.618469,384.259277 
	C745.399597,380.935608 749.686401,379.061218 754.367615,377.752686 
	C770.871094,373.139709 787.354614,368.451935 803.898010,363.986420 
	C811.474243,361.941315 817.972717,358.280975 823.839600,353.085693 
	C849.774963,330.119476 877.369141,309.052032 901.891785,284.460724 
	C917.330933,268.978394 925.367004,249.552841 932.231140,229.416763 
	C932.448303,228.779938 932.637390,228.023300 931.481262,228.366669 
	C931.191406,228.452744 930.976257,228.789978 930.378052,229.008881 
	C930.029358,229.006012 929.714050,228.698242 929.714111,228.698257 
M301.357452,349.912048 
	C302.123199,350.029144 302.888947,350.146210 304.535034,350.397888 
	C300.329865,346.503265 297.490753,342.285675 291.749939,340.412048 
	C292.808960,342.095062 293.417877,343.062744 293.349274,343.863525 
	C289.863983,341.610840 286.461151,339.215454 282.872498,337.141632 
	C278.389648,334.551056 273.743469,334.113556 268.663025,336.561859 
	C270.699097,339.402069 273.522522,339.830200 275.692932,341.262543 
	C293.481506,353.002136 310.327515,366.043549 327.306122,378.881958 
	C335.548187,385.114227 345.017914,387.802612 354.583374,390.576660 
	C355.305450,390.786072 356.295044,390.815125 356.733856,389.302032 
	C354.956604,388.071625 353.101044,386.719727 351.179932,385.468506 
	C341.979584,379.476257 332.538391,373.823212 323.616974,367.442505 
	C315.819305,361.865601 307.324677,357.125519 301.357452,349.912048 
M506.480927,777.627991 
	C506.678284,778.153625 506.875641,778.679199 507.181030,779.993713 
	C507.335815,783.502014 507.741882,786.907227 510.641754,789.196167 
	C512.560913,789.106384 513.193115,787.752136 513.822144,786.680298 
	C521.813904,773.063354 530.048828,759.571167 536.508972,745.125610 
	C537.577942,742.735229 538.240601,740.072327 538.595032,737.467834 
	C540.945496,720.196289 543.353210,702.928223 545.311035,685.610168 
	C545.959839,679.871094 548.452515,673.948669 544.499084,668.166870 
	C541.978699,664.480957 539.695129,663.916931 536.867432,667.367859 
	C534.260193,670.549683 533.026733,674.413147 532.242859,678.317444 
	C529.699219,690.986694 521.647278,700.744507 515.071106,711.270142 
	C513.014893,714.561340 510.108948,714.744629 506.971588,712.337463 
	C502.346283,708.788391 497.353271,705.455017 494.550903,700.254639 
	C489.928864,691.677551 482.771759,684.670349 479.374847,675.361206 
	C479.053131,674.479553 478.364868,673.565735 476.865204,674.107117 
	C475.205811,677.786926 476.712097,681.542847 477.338074,685.159119 
	C481.161560,707.246216 479.861145,730.303101 490.019531,751.206299 
	C494.511200,760.448914 499.108246,769.560791 506.480927,777.627991 
M531.147583,664.672791 
	C533.418030,660.409180 535.816711,656.208069 537.934021,651.869690 
	C543.423218,640.622375 552.008911,632.636780 563.192749,627.235779 
	C567.240356,625.281006 571.187073,623.113159 575.142090,620.972778 
	C576.888916,620.027344 578.877075,619.096191 578.674805,616.617371 
	C577.833252,606.305298 581.103882,595.696716 576.439514,585.646790 
	C576.091980,584.898010 576.528748,584.021667 577.147644,583.523010 
	C579.222046,583.523010 581.225647,583.728088 583.175049,583.489868 
	C596.211975,581.896606 609.235046,580.189880 622.268127,578.563843 
	C625.980713,578.100647 628.734558,576.601990 630.399109,572.971802 
	C636.376282,559.936279 643.615601,547.617493 651.645691,535.730164 
	C655.127380,530.576050 654.674927,529.771484 648.372192,528.422302 
	C644.186157,527.526184 643.712219,526.015869 646.532410,522.866028 
	C660.434937,507.338623 676.558838,494.764374 695.318298,485.585754 
	C698.227173,484.162537 701.896912,483.222229 702.559814,478.164062 
	C698.945312,479.144623 695.873779,480.183014 692.493469,479.983276 
	C694.135742,482.990845 691.563660,483.238312 690.284485,484.086029 
	C674.879944,494.294647 659.433777,504.440338 644.026428,514.644775 
	C643.005249,515.321167 641.450378,515.615845 641.390564,517.283325 
	C642.709167,518.522339 644.813599,516.987061 645.957153,518.684448 
	C646.026672,520.284729 644.731689,520.999939 643.794373,521.850403 
	C635.985779,528.935181 628.755371,536.722473 622.970947,545.384888 
	C615.311951,556.854370 604.984680,562.438477 591.829712,564.603333 
	C584.924744,565.739685 577.798950,566.955078 572.014404,571.108765 
	C571.872681,572.946777 574.086304,573.252380 573.376343,575.751831 
	C563.887817,575.487793 557.654602,584.119019 548.860596,586.395813 
	C546.965515,584.052124 549.108765,581.950378 547.737305,579.827393 
	C543.854309,582.532288 540.609192,585.807983 537.703430,589.366638 
	C535.435852,592.143677 534.162842,595.536621 534.700562,599.150330 
	C535.180176,602.372742 534.309814,605.153076 532.708374,607.704590 
	C530.503540,611.217224 528.056152,614.584473 525.597534,617.929382 
	C521.211670,623.895935 516.812195,629.845337 513.507324,636.496582 
	C520.401855,629.669434 530.140564,626.624695 536.335144,619.017700 
	C538.014771,616.955078 539.400818,614.484131 541.471985,612.937744 
	C552.813171,604.469666 560.700378,593.222595 567.745605,581.230896 
	C568.715210,579.580566 569.652771,577.544678 572.339294,578.445618 
	C572.534119,578.913940 572.885437,579.369385 572.873901,579.815491 
	C572.852844,580.628052 572.764954,581.499023 572.447693,582.234680 
	C568.337646,591.763306 563.762146,600.950317 555.617615,607.885742 
	C546.354919,615.773376 537.432739,624.057434 529.069214,632.892517 
	C522.800110,639.515198 516.174622,645.947937 513.026306,654.904297 
	C512.339966,656.856812 511.360657,659.062988 512.809753,660.597168 
	C516.790771,664.811768 513.566406,667.754456 511.063751,672.268127 
	C506.343109,662.723572 500.828186,654.508118 498.324646,645.090149 
	C496.351196,637.666565 492.832031,632.058105 486.225616,628.416077 
	C483.257568,626.779846 479.421265,625.127441 478.988007,622.009277 
	C478.315002,617.165833 475.018372,615.012390 471.981140,612.491516 
	C465.152252,606.823608 458.723083,600.838196 453.886108,593.308716 
	C450.947418,588.734314 448.710175,583.940918 447.857666,578.414795 
	C451.126160,577.821350 452.453125,579.268860 453.757751,580.838562 
	C456.860870,584.572144 459.523376,588.625488 461.716705,592.921265 
	C464.434845,598.244873 468.135101,602.550781 473.046722,605.930054 
	C479.797272,610.574585 485.315582,616.667358 491.574005,621.888977 
	C493.128937,623.186340 494.386108,626.570190 497.087524,624.413452 
	C499.442505,622.533386 497.446106,620.090698 496.470123,618.088745 
	C494.786835,614.635986 492.663666,611.468262 490.029999,608.619141 
	C484.154053,602.262634 478.143707,596.006531 472.641907,589.335266 
	C468.071991,583.793884 462.207367,580.466370 455.688660,578.371277 
	C447.311493,575.678772 439.153473,572.284241 430.314301,570.483215 
	C431.369781,564.347168 426.631073,563.239441 422.803711,562.603943 
	C413.754639,561.101318 407.503235,556.198608 402.251404,548.978271 
	C397.165558,541.986023 391.346558,535.525574 385.820831,528.855408 
	C384.057312,526.726624 382.091156,524.829224 378.697632,523.496643 
	C380.433929,527.865295 383.081146,530.642456 385.306854,533.664734 
	C389.962158,539.986206 394.344666,546.467773 397.237366,553.810120 
	C398.490845,556.991699 398.336121,559.244995 393.790985,557.891113 
	C389.370880,556.574524 389.569977,559.119629 390.248932,561.892700 
	C392.190308,563.334717 393.997070,560.389465 395.627167,562.325623 
	C396.199738,563.575073 395.808594,564.905823 394.832733,565.445679 
	C389.619781,568.329529 392.259583,571.618225 394.134796,574.948242 
	C396.007599,578.273926 399.487122,578.115967 402.479889,578.563843 
	C414.477570,580.359558 426.510498,581.921875 438.536469,583.525024 
	C441.087250,583.864990 443.710205,584.234131 445.950165,581.474548 
	C447.886200,592.192078 453.353088,601.367798 455.235565,611.567505 
	C452.821381,612.892273 450.824860,612.295471 448.954498,611.769165 
	C445.417633,610.774109 444.492554,612.521240 444.309875,615.576294 
	C444.127930,618.618896 445.964447,620.071472 448.304840,621.275330 
	C453.044464,623.713440 457.666412,626.411682 462.525757,628.579224 
	C473.436432,633.446106 480.717468,641.698853 485.884735,652.231201 
	C492.928162,666.587830 500.136963,680.863892 507.367340,695.127625 
	C508.451111,697.265503 509.059937,699.811523 511.857208,701.758423 
	C518.267334,689.427734 524.531982,677.377075 531.147583,664.672791 
M250.382523,441.209045 
	C246.455383,441.348419 242.466370,441.266205 239.361511,443.964233 
	C242.075699,448.326508 246.275314,449.671387 250.750290,450.485748 
	C260.558929,452.270721 270.449646,453.470917 280.325714,454.807373 
	C289.155579,456.002258 298.381805,455.763733 306.461731,460.424774 
	C314.683655,465.167725 322.646759,470.393707 331.062714,474.752747 
	C335.949646,477.283997 338.926147,482.265045 344.281158,483.979218 
	C354.260101,487.173523 364.195343,490.504944 374.183899,493.668396 
	C382.014099,496.148346 382.657379,495.822906 387.717224,489.644073 
	C390.262512,486.535950 390.343689,483.801971 387.480042,480.843140 
	C383.366547,476.592926 379.302795,472.837433 372.653015,472.872528 
	C366.744720,472.903717 363.178986,468.433929 360.128693,463.978729 
	C357.524658,460.175385 360.044617,457.153351 362.064606,454.000397 
	C363.810303,451.275665 362.733521,448.716705 360.209625,447.111847 
	C358.275635,445.882080 356.053711,444.781403 353.825409,444.391357 
	C340.377563,442.037354 327.268005,438.193481 313.906281,435.511932 
	C307.920013,434.310547 301.917267,431.208466 295.820770,432.677826 
	C281.092957,436.227448 266.295837,439.235138 250.382523,441.209045 
M443.322266,679.691895 
	C443.967987,690.301575 445.245575,700.919373 445.108429,711.518921 
	C444.912201,726.683167 447.640717,740.635315 456.036438,753.629944 
	C461.799377,762.549683 471.757355,765.708557 480.662231,759.290405 
	C480.993256,762.864014 484.286530,763.583923 486.261169,765.769653 
	C484.563751,761.577576 482.572296,757.609741 480.397919,753.744690 
	C476.556183,746.915955 473.106415,740.091003 472.638184,731.941650 
	C471.609802,714.043091 470.186035,696.166260 468.816467,678.288696 
	C468.161499,669.738892 461.819977,666.096252 453.941376,669.514893 
	C452.424622,670.173035 450.860870,670.815735 449.253204,671.153259 
	C445.041656,672.037537 442.749359,674.275269 443.322266,679.691895 
M571.566528,744.864136 
	C573.966675,740.488342 576.520996,736.172974 576.677063,730.967773 
	C577.085571,717.341370 577.683960,703.717590 577.863403,690.088257 
	C578.009644,678.977234 571.866089,672.651245 560.124023,675.288513 
	C557.086853,675.970642 555.581726,677.517212 555.295349,680.667175 
	C554.017639,694.718262 552.522034,708.749878 551.295715,722.805115 
	C550.511414,731.793823 549.309021,740.507812 544.148315,748.351318 
	C541.692139,752.084351 539.327148,756.157471 538.680542,761.294189 
	C552.822388,761.975586 561.854553,753.353760 571.566528,744.864136 
M427.246887,602.959045 
	C425.664001,603.414062 424.084564,603.881592 422.497620,604.322021 
	C411.122375,607.479431 408.595184,612.364258 413.700714,622.686279 
	C418.782990,632.961365 424.425232,642.958313 429.726532,653.126892 
	C430.911530,655.399841 432.610443,656.604492 435.046722,657.143188 
	C443.306671,658.969421 451.514679,661.048096 459.808655,662.697815 
	C466.630493,664.054810 469.478546,660.982117 467.434174,654.348938 
	C466.382233,650.935608 466.702209,648.958862 471.053925,648.441284 
	C469.794373,647.493042 469.211884,646.857727 468.489624,646.540771 
	C460.007385,642.817993 452.734192,637.676086 447.113190,630.098938 
	C445.475128,627.890869 442.893555,625.362732 439.706573,625.456543 
	C434.000793,625.624634 433.127991,621.807251 432.862427,617.687805 
	C432.595947,613.553406 433.048676,609.377686 432.932892,605.227112 
	C432.833740,601.671021 431.298859,600.161072 427.246887,602.959045 
M612.987000,711.377136 
	C621.625977,712.735168 631.004761,712.410339 636.518188,721.479553 
	C635.239990,717.271484 633.640259,713.172668 632.078857,709.059265 
	C630.484863,704.859924 628.925598,700.647400 627.356567,696.438599 
	C625.731079,692.078491 623.934998,687.792542 623.768066,683.008057 
	C623.619629,678.754150 624.187927,674.387512 622.501099,669.664001 
	C621.605103,672.509766 622.325195,675.265015 619.337219,677.418030 
	C618.581055,670.955139 613.900757,668.023071 609.993408,664.480225 
	C607.673279,662.376587 605.105469,661.888611 602.150269,663.145203 
	C597.697449,665.038513 594.242981,667.758972 592.299194,672.446350 
	C586.847229,685.593750 591.695190,698.672241 601.522888,707.562317 
	C604.300964,710.075317 607.160461,714.344482 612.987000,711.377136 
M501.729126,471.402771 
	C500.737488,471.295441 499.741241,471.219604 498.754974,471.075623 
	C493.378143,470.290558 490.159668,473.539490 488.002258,477.599701 
	C485.933899,481.492279 489.128113,484.164032 491.607758,486.560760 
	C496.752838,491.533875 502.054596,496.345520 507.322052,501.190826 
	C508.821625,502.570160 510.559113,504.064423 512.582275,502.377411 
	C521.778320,494.709320 531.415955,487.513123 539.561707,478.685150 
	C542.271851,475.747955 541.114319,472.746490 537.641968,470.935852 
	C535.436340,469.785767 533.025208,469.031647 530.811157,467.895416 
	C528.060547,466.483704 524.826904,465.227936 527.516663,460.619598 
	C523.237915,461.886322 520.436890,463.621979 517.728638,465.587219 
	C510.585632,470.770660 510.517303,470.754089 503.614288,465.357147 
	C499.475861,462.121613 495.361877,458.854767 491.236908,455.602020 
	C493.608704,460.585175 497.768524,463.671112 501.309540,467.344574 
	C502.351807,468.425751 504.475372,469.298431 501.729126,471.402771 
M594.863464,649.404846 
	C598.692200,642.396301 602.984680,635.617188 605.959229,628.178589 
	C608.458252,621.929321 607.300232,619.162476 601.295898,616.559814 
	C598.706726,615.437500 597.853088,613.665100 598.241150,611.019348 
	C598.760803,607.475952 597.981445,604.018860 597.064209,600.674011 
	C595.950012,596.611023 592.860901,594.691589 588.349731,593.896729 
	C587.683838,598.941406 588.192871,603.520325 588.583069,608.115295 
	C589.133179,614.593567 590.634155,620.941223 581.849731,624.250183 
	C575.191772,626.758118 570.773193,632.473022 572.112793,640.389343 
	C573.082031,646.116821 571.970459,651.594971 571.409973,657.172668 
	C571.294128,658.324768 571.109985,659.553406 571.377808,660.643372 
	C571.935181,662.911560 573.422791,664.486450 575.841797,664.742004 
	C577.928040,664.962402 579.393616,664.032043 579.801025,661.838440 
	C580.246643,659.439026 582.092651,658.568787 584.114380,658.306641 
	C589.300903,657.633911 592.469482,654.583984 594.863464,649.404846 
M698.309998,367.847321 
	C693.507690,371.534363 688.544189,373.433533 682.060669,373.993256 
	C669.827576,375.049347 659.986938,382.642822 650.388794,389.899170 
	C648.825317,391.081238 647.237305,392.429871 647.763245,395.388489 
	C655.020630,397.040222 658.550293,389.137360 664.557068,388.309906 
	C665.728271,389.530426 663.293701,390.438080 665.034912,391.806946 
	C674.996460,389.008698 685.114014,386.186157 693.894165,379.585419 
	C709.862427,367.580994 726.128540,355.973419 742.216187,344.126678 
	C744.700317,342.297302 747.995178,341.482086 749.824280,338.219177 
	C742.063049,333.548889 737.041748,339.609589 731.360901,342.618256 
	C729.946899,341.420624 732.526733,340.592529 731.418213,339.398346 
	C729.217041,338.387543 727.345154,339.542816 725.569641,340.787964 
	C721.456116,343.672791 717.245850,346.759979 714.965149,351.200439 
	C712.480652,356.037567 705.520752,356.550812 704.699585,363.030457 
	C704.485229,364.721649 700.930542,365.989532 698.309998,367.847321 
M327.258423,304.165436 
	C329.581055,305.010040 331.139313,307.757843 334.117767,307.270508 
	C334.449768,304.987793 332.955780,303.945496 331.991699,302.654572 
	C325.419586,293.854523 318.502777,285.288239 312.363098,276.196808 
	C307.944946,269.654602 302.573090,264.541534 295.763153,260.742432 
	C289.951111,257.500031 284.214172,254.123032 278.400604,250.883362 
	C277.356232,250.301361 276.381500,248.945084 274.624573,250.104218 
	C275.320099,252.749054 277.323456,254.576218 278.924469,256.604828 
	C285.110992,264.443787 291.650757,272.020630 297.529175,280.081421 
	C303.344025,288.054993 310.448395,294.300598 319.034210,299.023621 
	C321.652374,300.463837 324.114838,302.187195 327.258423,304.165436 
M421.373077,525.810425 
	C428.489075,534.946899 435.212769,544.457336 445.261841,551.969360 
	C445.350403,550.359741 445.548767,549.805969 445.373260,549.423828 
	C444.540558,547.610474 443.653534,545.818054 442.699799,544.065002 
	C437.053375,533.686707 430.821381,523.527039 430.676422,511.140411 
	C430.658386,509.600555 429.660980,508.751099 428.455322,508.072693 
	C421.450043,504.130768 415.105072,499.302063 409.196136,493.867554 
	C406.854401,491.713837 404.602997,491.653717 402.620636,494.249451 
	C403.286316,496.622467 404.953949,497.877136 406.337708,499.254425 
	C413.642090,506.524475 421.754211,513.294067 421.373077,525.810425 
M671.240845,396.664490 
	C660.504272,396.978668 652.426819,402.367920 645.513184,410.054871 
	C644.295166,411.409058 642.781860,412.493744 641.443359,413.744049 
	C635.363342,419.423431 629.297058,425.117554 623.153931,430.873688 
	C644.242859,427.432648 658.960022,414.214630 673.161316,400.194824 
	C675.012939,398.366852 674.768555,396.980988 671.240845,396.664490 
M587.977966,535.372131 
	C581.355347,548.858093 570.305176,559.190125 562.121155,571.206482 
	C569.639832,568.272888 574.330261,562.114685 578.724304,555.578369 
	C584.930908,546.345947 592.757751,537.910034 596.128662,527.197815 
	C599.448486,516.648071 605.790588,508.870941 613.872803,501.925079 
	C616.670410,499.520782 619.822144,497.201172 621.224731,493.061737 
	C619.103149,492.160767 616.934631,491.614258 615.362732,492.886108 
	C608.042542,498.809021 600.362000,504.246033 592.145020,509.705322 
	C596.421265,515.258911 594.710388,520.520569 592.585388,525.697510 
	C591.324402,528.769592 589.751892,531.713806 587.977966,535.372131 
M373.485382,421.066711 
	C380.031708,424.565277 386.606354,427.974945 395.374878,428.912109 
	C394.151825,426.908936 393.864410,426.098938 393.307220,425.576813 
	C385.549347,418.306763 377.778809,411.049774 369.953644,403.852325 
	C367.677734,401.759033 364.747589,401.907196 361.907410,402.011017 
	C360.175812,402.074280 358.524078,402.528625 357.767426,404.260529 
	C357.017761,405.976471 358.377045,407.109802 359.365112,408.141022 
	C363.621246,412.582947 368.029816,416.870819 373.485382,421.066711 
M558.136963,385.758392 
	C552.519226,380.832977 547.415955,384.802643 542.621704,387.123322 
	C536.489502,390.091644 538.666321,396.803528 536.812927,401.876617 
	C541.032349,399.830078 545.326538,401.319946 549.357849,400.424347 
	C550.893372,400.083221 552.192749,400.901733 552.549194,402.785919 
	C553.282532,406.661987 555.483826,405.719757 558.073547,404.573700 
	C563.153259,402.325714 564.263794,396.672699 568.196228,393.349335 
	C565.840759,393.801666 563.731506,394.617859 561.624817,395.440643 
	C560.086792,396.041321 558.500488,396.973999 557.020508,395.451599 
	C555.436951,393.822693 555.506531,391.819153 556.262756,389.879944 
	C556.737976,388.661285 557.548584,387.573334 558.136963,385.758392 
M583.378723,346.861877 
	C579.302368,351.203705 575.225952,355.545532 571.149597,359.887360 
	C573.275146,359.836639 575.068420,359.413971 576.164124,358.303192 
	C583.367920,350.999969 592.771301,346.697540 600.542114,340.192230 
	C601.555908,339.343567 603.196411,338.451630 603.308350,337.442413 
	C604.234070,329.096741 607.463562,320.431915 600.195312,311.921875 
	C596.063416,324.528717 595.159668,338.055878 583.378723,346.861877 
M503.928986,524.449036 
	C502.947418,527.509399 503.439728,530.404114 505.181030,533.017273 
	C506.444397,534.913086 508.415009,536.569702 510.627136,535.291870 
	C516.633179,531.822632 522.669006,528.303345 528.199158,524.146790 
	C532.089355,521.222900 531.263794,519.058533 526.704834,517.058716 
	C521.520752,514.784790 516.606873,516.877258 511.581177,517.551697 
	C507.774994,518.062439 504.992676,519.698975 503.928986,524.449036 
M371.876556,517.594910 
	C375.050476,514.768555 378.781311,519.015869 383.318542,516.308655 
	C364.148315,503.298309 345.236359,491.465607 325.610962,480.741150 
	C330.778381,484.041687 335.439667,488.016602 340.226349,491.773010 
	C350.790527,500.063385 362.635040,506.803986 371.876556,517.594910 
M481.967438,398.691010 
	C484.426819,396.620270 487.402008,394.276764 483.588806,391.282562 
	C479.083069,387.744568 474.183624,384.313782 467.550262,388.201202 
	C467.550262,390.026215 467.617035,392.156403 467.530243,394.280334 
	C467.453735,396.151917 466.726990,397.608582 464.485474,397.133057 
	C462.896362,396.795929 460.893860,395.695251 460.546997,398.214539 
	C460.207214,400.682648 462.632202,400.628479 464.328125,401.187744 
	C470.359802,403.176849 475.615021,399.737885 481.967438,398.691010 
M366.628357,392.846588 
	C367.744690,393.575043 368.823669,394.370819 369.986206,395.015961 
	C371.663300,395.946655 373.656464,396.640076 374.935852,394.798615 
	C376.112793,393.104584 374.603699,391.555176 373.372620,390.536072 
	C363.998138,382.775726 353.344574,377.779236 340.923645,376.506226 
	C349.274261,381.841675 357.624847,387.177155 366.628357,392.846588 
M424.414581,341.013947 
	C428.439484,343.237854 431.623322,348.053955 438.281647,345.301300 
	C433.049072,339.538666 428.821960,333.883392 426.611481,327.011658 
	C426.187622,325.694061 424.841766,325.682068 423.622131,326.014191 
	C422.067444,326.437561 420.714935,327.368073 420.562775,328.950592 
	C420.154419,333.197388 419.227905,337.697113 424.414581,341.013947 
M620.058289,425.556335 
	C617.586426,428.490143 615.114563,431.423950 612.642639,434.357758 
	C612.888000,434.555634 613.133362,434.753510 613.378723,434.951385 
	C623.495178,424.520569 633.611633,414.089722 643.728027,403.658875 
	C643.087402,403.047028 642.446716,402.435150 641.806091,401.823303 
	C632.876648,407.741638 628.139771,417.804871 620.058289,425.556335 
M396.874420,696.602661 
	C400.742645,686.644348 401.474823,681.695679 399.712402,674.966248 
	C399.362579,679.549133 399.398926,683.336853 398.705170,686.985779 
	C397.984192,690.778015 396.557343,694.435913 395.439178,698.152588 
	C395.587860,698.205566 395.736542,698.258545 395.885223,698.311584 
	C396.151184,697.922302 396.417175,697.532959 396.874420,696.602661 
M672.960266,532.029175 
	C675.637817,531.248291 678.539978,531.116882 681.970032,529.096130 
	C676.366272,529.240540 672.466675,531.308167 668.429565,533.005798 
	C669.711304,532.760010 670.992981,532.514160 672.960266,532.029175 
z"/>
<path fill="#000000" opacity="1.000000" stroke="none" 
	d="
M586.495605,257.612885 
	C587.222534,259.850037 585.139832,260.538422 584.018921,261.677979 
	C571.531189,274.372925 558.099854,286.224976 547.613464,300.734436 
	C536.596313,315.978333 526.042786,331.557068 515.267334,346.975983 
	C511.838440,351.882507 510.878082,351.954926 507.494690,347.089203 
	C498.846313,334.651703 490.280029,322.156738 481.733948,309.648529 
	C467.241974,288.437927 448.778778,270.874176 430.226715,253.383606 
	C426.528259,249.896774 422.638428,246.574707 420.270721,241.644928 
	C422.200348,243.277603 424.213715,244.821884 426.046234,246.557114 
	C439.585266,259.377502 453.580170,271.726013 466.191437,285.508209 
	C469.403351,289.018341 471.402222,288.375305 472.819153,283.186310 
	C478.509491,262.347748 484.187225,241.504059 489.623505,220.598236 
	C496.482086,194.222702 503.205444,167.810989 509.142456,141.205917 
	C509.541565,139.417419 509.177887,137.029205 511.734406,135.940399 
	C514.933838,137.139893 514.658936,140.444687 515.279968,142.932571 
	C521.713074,168.703979 527.933167,194.528458 534.306885,220.314819 
	C539.642334,241.900177 545.083313,263.459564 550.556213,285.010498 
	C550.903870,286.379517 551.050476,287.997803 552.927917,289.419464 
	C563.755310,278.613464 574.423096,267.513763 586.495605,257.612885 
M488.682831,240.198029 
	C487.141266,250.804840 491.105286,258.669739 500.352203,262.992889 
	C500.197479,263.715118 500.293030,264.747070 499.823334,265.236115 
	C494.314850,270.971100 495.034973,277.436493 497.309204,284.200500 
	C497.885162,285.913452 497.854004,287.820587 498.286713,289.593384 
	C499.988922,296.566925 503.208893,302.722565 507.692261,308.098022 
	C509.463135,307.322540 509.599976,306.290955 509.607208,305.309235 
	C509.679413,295.494110 510.411102,285.617950 509.563507,275.880310 
	C508.706665,266.036255 511.572174,256.606445 510.834869,246.700272 
	C509.566742,229.662338 510.189606,212.485504 509.931122,195.368286 
	C509.898346,193.197372 510.747162,190.114975 507.622772,189.518692 
	C504.540924,188.930557 502.332428,191.048187 500.846191,193.625336 
	C500.279907,194.607208 500.123535,195.823837 499.769470,196.929993 
	C495.307617,210.868164 492.624023,225.259033 488.682831,240.198029 
M509.236389,315.366486 
	C506.444031,320.292786 506.635101,325.511017 507.742126,330.811859 
	C508.133606,332.686493 508.779480,334.487427 511.107849,334.432770 
	C513.155090,334.384735 513.649719,332.729523 514.156189,331.057007 
	C516.081909,324.698303 511.726898,319.851410 510.236328,314.319031 
	C509.980072,314.511047 509.723816,314.703064 509.236389,315.366486 
z"/>
<path fill="#000000" opacity="1.000000" stroke="none" 
	d="
M659.571411,320.605957 
	C694.421875,274.475037 724.266357,225.439316 754.891174,176.636536 
	C756.257080,178.431137 755.225830,179.581253 754.797302,180.712402 
	C750.725830,191.458405 746.476501,202.130234 741.546448,212.521484 
	C740.679138,214.349411 739.091064,216.364624 741.973083,218.557724 
	C747.376038,213.787323 750.904602,207.115082 756.823120,202.883072 
	C759.217529,203.753220 760.252319,205.753479 761.588013,207.391006 
	C766.001526,212.801849 771.903015,215.785767 778.474243,217.409058 
	C784.332886,218.856293 789.298157,216.334351 791.963318,210.781586 
	C810.488647,172.184998 827.846191,133.078949 843.142151,93.076347 
	C843.646118,91.758331 843.811951,90.124992 845.692932,89.298134 
	C847.077759,93.695366 845.420471,97.834549 845.087585,102.002037 
	C842.279480,137.155472 827.130737,168.193817 812.523621,199.402161 
	C808.423096,208.163208 800.748779,214.215363 795.105896,221.820755 
	C792.733337,225.018524 790.426453,227.813339 792.768982,232.109009 
	C794.010254,234.385254 792.651184,236.515213 791.316406,238.570419 
	C784.449158,249.144104 776.359741,257.982605 764.918396,264.304565 
	C744.819763,275.410126 725.477173,287.882996 705.797241,299.748871 
	C703.833801,300.932709 701.873230,302.218384 699.018066,302.069244 
	C722.551636,290.901520 732.456543,267.287323 749.974915,249.201508 
	C747.870361,248.905411 747.286926,248.624832 746.969910,248.807236 
	C732.567505,257.094604 717.920105,264.754425 708.306213,279.469849 
	C700.771790,291.002167 691.630432,301.484619 683.131226,312.526764 
	C684.113953,312.967102 684.726013,310.916931 686.065613,311.925110 
	C683.793640,316.637177 679.890198,319.543488 675.050903,320.967499 
	C667.059021,323.319122 661.076355,328.262939 655.522949,334.241913 
	C645.773438,344.738617 635.680725,354.916962 625.697754,365.195618 
	C624.577515,366.349060 623.702515,367.872467 620.354736,368.664764 
	C634.362793,352.422028 647.442627,337.118164 659.571411,320.605957 
z"/>
<path fill="#000000" opacity="1.000000" stroke="none" 
	d="
M105.177032,243.831604 
	C122.441826,264.396057 146.544891,275.790588 167.875885,290.965973 
	C155.652039,285.930237 145.086014,278.091187 134.033401,271.107147 
	C122.856628,264.044617 112.278709,256.271149 104.762955,244.641479 
	C104.723625,244.236908 104.852997,244.120911 105.177032,243.831604 
z"/>
<path fill="#000000" opacity="1.000000" stroke="none" 
	d="
M930.187988,229.158936 
	C917.230530,249.664856 900.648682,266.192413 877.934509,275.884277 
	C880.534119,274.050415 882.996704,271.972534 885.755798,270.422607 
	C902.850159,260.819763 915.724609,246.818634 927.076294,231.187973 
	C927.654663,230.391571 928.449463,229.752396 929.428772,228.869141 
	C929.714050,228.698242 930.029358,229.006012 930.187988,229.158936 
z"/>
<path fill="#000000" opacity="1.000000" stroke="none" 
	d="
M161.694763,190.356537 
	C165.846939,197.891388 170.851715,204.408813 175.671951,211.044327 
	C161.040176,198.836197 154.760239,181.137726 145.648956,165.303482 
	C152.085953,172.808609 156.549835,181.583817 161.694763,190.356537 
z"/>
<path fill="#000000" opacity="1.000000" stroke="none" 
	d="
M159.462036,450.591064 
	C167.632172,453.290680 174.873657,457.455170 182.994965,459.221191 
	C170.226974,458.809937 159.553879,452.554352 147.635117,447.111877 
	C150.661301,445.471313 152.059540,447.544434 153.699249,447.989594 
	C155.591736,448.503296 157.336441,449.561340 159.462036,450.591064 
z"/>
<path fill="#000000" opacity="1.000000" stroke="none" 
	d="
M400.701233,345.359070 
	C403.891693,351.849945 407.518524,357.740448 409.319916,364.475189 
	C402.752319,355.040588 397.856537,344.744171 393.257904,334.264374 
	C396.822662,337.123779 398.217499,341.381012 400.701233,345.359070 
z"/>
<path fill="#000000" opacity="1.000000" stroke="none" 
	d="
M625.513123,343.446899 
	C622.773438,348.562958 620.463806,353.506195 616.796387,357.648193 
	C620.426086,347.097595 626.136169,337.654053 632.240845,328.406769 
	C631.369629,333.926880 627.866943,338.220490 625.513123,343.446899 
z"/>
<path fill="#000000" opacity="1.000000" stroke="none" 
	d="
M690.479614,252.119873 
	C684.036499,258.587311 677.784790,264.834686 671.533020,271.082062 
	C671.443237,270.980927 671.353394,270.879791 671.263611,270.778656 
	C677.709595,263.808014 684.155518,256.837372 690.612000,249.855347 
	C691.613037,250.887955 690.973511,251.367340 690.479614,252.119873 
z"/>
<path fill="#000000" opacity="1.000000" stroke="none" 
	d="
M340.862274,257.434570 
	C344.497894,260.668213 347.903351,263.680206 351.308807,266.692169 
	C350.801392,267.195221 350.293976,267.698242 349.786560,268.201294 
	C345.284698,264.817169 341.405121,260.776031 337.527222,256.020325 
	C339.243988,255.554565 339.848206,256.628174 340.862274,257.434570 
z"/>
<path fill="#000000" opacity="1.000000" stroke="none" 
	d="
M506.335571,777.393799 
	C506.088562,775.755432 505.170013,774.364258 506.242004,772.666138 
	C508.689148,773.524109 510.605316,774.891113 510.697784,777.684631 
	C510.763824,779.679443 509.440491,780.138000 507.377869,779.318359 
	C506.875641,778.679199 506.678284,778.153625 506.335571,777.393799 
z"/>
</svg>