<svg version="1.1" id="Layer_1" xmlns="http://www.w3.org/2000/svg" xmlns:xlink="http://www.w3.org/1999/xlink" x="0px" y="0px"
	 width="100%" viewBox="0 0 60 60" enable-background="new 0 0 60 60" xml:space="preserve">
<path fill="#FFFFFF" opacity="1.000000" stroke="none" 
	d="
M42.001724,61.000000 
	C28.001308,61.000000 14.501357,61.000000 1.001055,61.000000 
	C1.000703,41.000542 1.000703,21.001083 1.000352,1.001218 
	C20.999386,1.000812 40.998772,1.000812 60.998619,1.000406 
	C60.999077,20.999313 60.999077,40.998627 60.999538,60.998970 
	C54.834064,61.000000 48.668129,61.000000 42.001724,61.000000 
M49.931274,56.992191 
	C53.199711,56.992191 56.468151,56.992191 59.787548,56.992191 
	C59.787548,39.451267 59.787548,22.404036 59.787548,5.346811 
	C40.407791,5.346811 21.246443,5.346811 2.309374,5.346811 
	C2.309374,22.746483 2.309374,39.794422 2.309374,56.839027 
	C15.408791,56.839027 28.194897,56.839027 41.863876,56.982712 
	C44.248531,56.934864 46.633186,56.887016 49.931274,56.992191 
z"/>
<path fill="#010303" opacity="1.000000" stroke="none" 
	d="
M40.981003,56.839027 
	C28.194897,56.839027 15.408791,56.839027 2.309374,56.839027 
	C2.309374,39.794422 2.309374,22.746483 2.309374,5.346811 
	C21.246443,5.346811 40.407791,5.346811 59.787548,5.346811 
	C59.787548,22.404036 59.787548,39.451267 59.787548,56.992191 
	C56.468151,56.992191 53.199711,56.992191 49.439728,56.574608 
	C43.206402,49.601021 37.464619,43.045013 31.208532,35.901775 
	C24.923449,42.693321 19.331081,48.736328 13.357602,55.191162 
	C23.362648,58.232967 25.197073,48.631119 31.840420,45.736141 
	C34.794201,49.324039 37.887600,53.081532 40.981003,56.839027 
M51.434029,35.449394 
	C53.520588,35.449394 55.607151,35.449394 58.976730,35.449394 
	C49.136883,25.049383 40.121700,15.520986 30.969299,5.847556 
	C21.773226,15.711790 13.081653,25.034866 4.013271,34.762131 
	C8.957551,35.814117 12.357754,35.302681 15.478148,31.477478 
	C20.267447,25.606419 25.731024,20.285400 29.517004,16.223738 
	C36.836292,22.738539 43.794418,28.931873 51.434029,35.449394 
M49.810810,49.173244 
	C52.390556,49.441174 54.970299,49.709103 57.550045,49.977032 
	C57.652588,49.543221 57.755131,49.109413 57.857674,48.675602 
	C48.976997,39.414730 40.096317,30.153856 31.108671,20.781431 
	C22.145782,30.182308 13.648635,39.094685 4.864605,48.307964 
	C12.308423,50.872448 15.361511,46.203720 18.885201,42.272575 
	C22.714701,38.000267 26.725327,33.890305 31.070738,29.269581 
	C37.489483,36.124821 43.362244,42.396954 49.810810,49.173244 
z"/>
<path fill="#00525A" opacity="1.000000" stroke="none" 
	d="
M41.422440,56.910870 
	C37.887600,53.081532 34.794201,49.324039 31.840420,45.736141 
	C25.197073,48.631119 23.362648,58.232967 13.357602,55.191162 
	C19.331081,48.736328 24.923449,42.693321 31.208532,35.901775 
	C37.464619,43.045013 43.206402,49.601021 48.983013,56.498093 
	C46.633186,56.887016 44.248531,56.934864 41.422440,56.910870 
z"/>
<path fill="#309AA4" opacity="1.000000" stroke="none" 
	d="
M51.093285,35.287300 
	C43.794418,28.931873 36.836292,22.738539 29.517004,16.223738 
	C25.731024,20.285400 20.267447,25.606419 15.478148,31.477478 
	C12.357754,35.302681 8.957551,35.814117 4.013271,34.762131 
	C13.081653,25.034866 21.773226,15.711790 30.969299,5.847556 
	C40.121700,15.520986 49.136883,25.049383 58.976730,35.449394 
	C55.607151,35.449394 53.520588,35.449394 51.093285,35.287300 
z"/>
<path fill="#002340" opacity="1.000000" stroke="none" 
	d="
M49.522911,48.921165 
	C43.362244,42.396954 37.489483,36.124821 31.070738,29.269581 
	C26.725327,33.890305 22.714701,38.000267 18.885201,42.272575 
	C15.361511,46.203720 12.308423,50.872448 4.864605,48.307964 
	C13.648635,39.094685 22.145782,30.182308 31.108671,20.781431 
	C40.096317,30.153856 48.976997,39.414730 57.857674,48.675602 
	C57.755131,49.109413 57.652588,49.543221 57.550045,49.977032 
	C54.970299,49.709103 52.390556,49.441174 49.522911,48.921165 
z"/>
</svg>