<svg version="1.1" id="Layer_1" xmlns="http://www.w3.org/2000/svg" xmlns:xlink="http://www.w3.org/1999/xlink" x="0px" y="0px"
	 width="100%" viewBox="0 0 400 400" enable-background="new 0 0 400 400" xml:space="preserve">
<path fill="#000000" opacity="1.000000" stroke="none" 
	d="
M369.000000,401.000000 
	C246.038269,401.000000 123.576553,401.000000 1.057412,401.000000 
	C1.057412,267.746613 1.057412,134.493210 1.057412,1.119902 
	C134.211639,1.119902 267.423431,1.119902 400.817627,1.119902 
	C400.817627,134.333115 400.817627,267.666565 400.817627,401.000000 
	C390.493286,401.000000 379.996643,401.000000 369.000000,401.000000 
M208.553925,183.073013 
	C208.267166,183.212234 208.101410,183.439667 207.354050,183.892883 
	C206.532013,184.233276 205.709976,184.573669 204.025223,184.919556 
	C203.381317,185.444183 202.185013,185.960129 202.176605,186.494751 
	C202.055283,194.214798 202.093521,201.937347 202.093521,210.008575 
	C209.029648,210.008575 215.454071,210.108383 221.873474,209.972168 
	C225.897751,209.886765 229.914505,209.446548 234.785507,209.064133 
	C237.564713,208.148438 240.343918,207.232742 243.196167,206.340485 
	C243.196167,206.340485 243.343018,206.092499 243.937347,205.378220 
	C244.182892,205.189407 244.428436,205.000610 245.272034,204.736465 
	C249.776733,200.084351 250.833755,195.143417 248.414825,190.046051 
	C245.917236,184.782883 241.440140,182.618134 233.104904,182.922577 
	C225.063721,183.003067 217.022552,183.083557 208.553925,183.073013 
M183.505203,213.944138 
	C182.756119,214.219421 182.007034,214.494690 180.512436,214.907425 
	C178.699905,215.642532 176.887360,216.377655 174.332642,217.087173 
	C173.225815,219.171906 171.334183,221.194839 171.164276,223.353333 
	C170.715225,229.058151 171.012161,234.821701 171.012161,241.224289 
	C172.634476,240.810822 173.894470,240.489700 175.870239,240.092850 
	C176.694778,239.732773 177.519302,239.372696 179.199371,238.996841 
	C179.862061,237.839432 181.001175,236.722992 181.104843,235.517487 
	C181.549774,230.343613 181.690109,225.143524 182.883911,220.021194 
	C189.545502,220.024048 196.210770,220.160538 202.867294,219.978287 
	C206.696518,219.873459 208.359283,221.246979 208.204651,225.193283 
	C208.003571,230.325043 208.155502,235.470627 208.155502,241.261902 
	C209.875519,240.831528 211.199463,240.500275 213.388840,240.045120 
	C214.172241,239.726059 214.955627,239.406998 216.490204,239.101578 
	C217.231186,237.964600 218.531372,236.865372 218.611145,235.683777 
	C218.879486,231.708939 218.746109,227.704422 218.706528,223.711853 
	C218.627380,215.727997 216.010971,213.375031 207.071594,213.864380 
	C199.695480,213.917755 192.319351,213.971130 184.777161,213.831253 
	C184.495468,213.744827 184.276230,213.816437 183.505203,213.944138 
M358.392731,213.811752 
	C358.392731,213.811752 358.592285,213.708542 358.592285,213.708542 
	C358.592285,213.708542 358.594116,214.020157 357.541077,213.966660 
	C356.850739,214.096527 356.160400,214.226395 355.024475,214.778854 
	C353.656555,215.233673 352.288635,215.688507 350.336182,216.132812 
	C350.191742,216.414215 350.047333,216.695633 349.981750,216.979858 
	C349.981750,216.979858 349.978577,216.901031 349.247528,216.700928 
	C347.870361,218.967728 345.550171,221.137299 345.304443,223.520767 
	C344.719757,229.192001 345.116089,234.964386 345.116089,241.350464 
	C346.945465,240.868561 348.250397,240.524826 350.409088,240.045975 
	C351.180054,239.724533 351.951050,239.403107 353.470459,239.099091 
	C354.210083,237.980301 355.505890,236.903336 355.593658,235.735565 
	C355.986084,230.514572 356.033966,225.267700 357.117432,220.052368 
	C363.881927,220.055832 370.649139,220.175049 377.409821,220.016159 
	C381.040100,219.930817 382.516479,221.438522 382.450012,224.986694 
	C382.352020,230.217697 382.424713,235.451904 382.424713,241.379532 
	C384.315979,240.874634 385.606018,240.530243 387.585876,240.036560 
	C388.408386,239.702408 389.230927,239.368271 390.915863,239.040070 
	C391.577545,238.020660 392.757233,237.027405 392.810272,235.977249 
	C393.027496,231.678223 392.947540,227.361221 392.890472,223.051971 
	C392.798950,216.145233 390.055084,213.669861 382.100922,213.868652 
	C374.235748,213.917877 366.370544,213.967102 358.392731,213.811752 
M13.289770,192.554443 
	C12.945364,191.537445 12.600958,190.520432 13.083564,189.105453 
	C13.380857,189.033279 13.678152,188.961105 14.904505,189.047424 
	C19.990498,189.054932 25.079430,189.172562 30.161606,189.036987 
	C34.666252,188.916809 39.163391,188.515198 44.386066,188.124451 
	C45.718681,187.314041 47.060108,186.516327 48.339069,185.628616 
	C48.375355,185.603439 47.746433,184.619858 46.892544,183.324402 
	C35.750683,183.301102 24.608822,183.277817 13.103637,183.787674 
	C11.340688,184.519043 9.577739,185.250412 7.114092,186.019379 
	C3.655449,187.677277 2.428177,190.555511 3.410711,194.063446 
	C4.593235,198.285370 7.799713,199.901016 12.940842,199.868286 
	C21.430445,199.888672 29.920050,199.909058 39.067039,200.057419 
	C39.746185,201.096298 40.425331,202.135162 40.488235,203.763275 
	C32.679543,203.795212 24.869631,203.759491 17.062895,203.900055 
	C14.700051,203.942581 12.345998,204.473282 9.293453,204.884964 
	C8.489162,205.226608 7.684872,205.568253 6.057657,205.908051 
	C5.244600,206.974884 4.431543,208.041733 2.932580,210.008575 
	C12.981347,210.008575 21.370611,210.085892 29.757231,209.970718 
	C33.140495,209.924271 36.517975,209.456589 40.649944,209.139099 
	C42.698395,208.353683 44.746845,207.568268 47.472393,206.641266 
	C50.427914,204.333130 51.276249,201.266083 49.916084,197.919876 
	C48.552128,194.564346 45.716446,193.083160 41.135494,193.093781 
	C32.064144,193.067505 22.992790,193.041229 13.966647,192.981445 
	C13.966647,192.981445 13.988332,193.033386 13.289770,192.554443 
M313.076202,199.871857 
	C319.373444,199.818542 325.670654,199.765228 332.691193,199.906998 
	C337.901520,201.241043 338.945221,205.464890 339.371460,210.434677 
	C340.908264,209.922028 342.052734,209.540237 343.889191,209.097275 
	C344.673431,208.741241 345.457672,208.385223 347.071442,208.027771 
	C347.749329,207.225357 349.125488,206.267624 348.987396,205.646698 
	C348.292725,202.523758 347.202698,199.488770 346.251495,196.422897 
	C347.702484,193.576736 349.099762,190.162064 348.314209,187.359085 
	C347.138641,183.164230 343.156738,182.280609 338.077087,182.921310 
	C331.306549,182.912506 324.534241,182.808670 317.766235,182.935074 
	C314.398895,182.997971 311.039490,183.483063 306.978821,183.879959 
	C306.155060,184.213806 305.331268,184.547653 303.675507,184.888077 
	C303.055695,185.623917 301.910614,186.350357 301.897247,187.097015 
	C301.763550,194.574326 301.816040,202.054962 301.816040,210.255692 
	C303.507843,209.813721 304.762177,209.486038 306.710052,209.035339 
	C307.507721,208.692444 308.305359,208.349548 309.950043,208.016830 
	C310.613159,207.382095 311.737366,206.820389 311.851654,206.098724 
	C312.175568,204.053925 312.086212,201.943680 313.076202,199.871857 
M289.038300,200.857864 
	C289.038300,203.783035 289.038300,206.708206 289.038300,210.290039 
	C290.774994,209.839325 292.059265,209.506027 294.057159,209.110916 
	C294.888153,208.749069 295.719116,208.387238 297.295715,208.017761 
	C297.989716,207.035828 299.226685,206.083755 299.282593,205.066727 
	C299.510834,200.916229 299.405975,196.745667 299.371918,192.582901 
	C299.308411,184.820953 296.856689,182.590317 288.087952,182.922913 
	C285.957733,182.913559 283.824432,182.825546 281.697906,182.909561 
	C275.217468,183.165604 268.739594,183.488007 261.511902,183.919983 
	C259.685455,184.645950 257.859039,185.371918 255.298325,186.077499 
	C254.182175,188.150253 252.273209,190.160278 252.103271,192.307892 
	C251.651596,198.016449 251.949875,203.784348 251.949875,210.210098 
	C253.562714,209.805832 254.811707,209.492767 256.774414,209.068481 
	C257.594391,208.714844 258.414368,208.361206 260.080811,208.006302 
	C260.747223,207.380493 261.880005,206.827713 261.991608,206.115036 
	C262.312561,204.065353 262.220764,201.951050 263.191528,199.877563 
	C271.758606,199.899200 280.325714,199.920837 289.038300,200.857864 
M139.929382,200.919373 
	C139.929382,203.813080 139.929382,206.706802 139.929382,210.257065 
	C141.594650,209.823822 142.832626,209.501740 144.785294,209.072968 
	C145.605942,208.717331 146.426605,208.361679 148.103592,208.001175 
	C148.741943,207.150452 149.893005,206.322464 149.931900,205.445160 
	C150.123260,201.128403 150.037354,196.798477 150.015869,192.473358 
	C149.979111,185.073532 147.435242,182.701141 139.091156,182.924454 
	C136.600113,182.914597 134.105469,182.814301 131.618713,182.912689 
	C125.384743,183.159363 119.154320,183.495956 112.225784,183.917511 
	C110.531624,184.619232 108.837463,185.320969 106.405495,185.901321 
	C105.180405,187.901260 103.070839,189.828323 102.898872,191.915070 
	C102.415543,197.780014 102.730240,203.710724 102.730240,210.297073 
	C104.383469,209.850418 105.664627,209.504272 107.646439,209.035309 
	C108.469070,208.702667 109.291702,208.370026 110.950150,208.040146 
	C111.594063,207.383820 112.677887,206.798416 112.797348,206.057541 
	C113.123322,204.035828 113.042351,201.948517 114.044403,199.877625 
	C122.636009,199.919678 131.227615,199.961731 139.929382,200.919373 
M120.097389,230.872711 
	C126.561897,230.874222 133.028336,230.965927 139.489822,230.827011 
	C141.674637,230.780029 143.846909,230.149216 146.715851,229.652863 
	C147.802841,228.517120 148.889832,227.381378 150.706711,225.982361 
	C152.615234,222.953247 149.709579,224.063995 148.850250,224.059372 
	C138.465118,224.003494 128.079330,224.066742 117.170647,223.611572 
	C117.764992,222.364670 118.359344,221.117767 119.888069,220.030029 
	C126.309883,220.032303 132.733643,220.130219 139.152771,219.999939 
	C142.831879,219.925278 146.503479,219.479950 150.910263,219.135559 
	C153.691147,218.740051 154.573196,217.383942 152.615112,214.093735 
	C145.184250,214.027451 137.752182,213.855530 130.323013,213.939362 
	C126.595657,213.981430 122.873543,214.489059 118.418503,214.916016 
	C116.640488,215.633728 114.862473,216.351425 112.330818,217.003235 
	C111.172256,219.059784 109.187859,221.049316 109.014442,223.185822 
	C108.548065,228.931885 108.855125,234.740692 108.855125,241.229416 
	C110.483551,240.810669 111.743279,240.486725 113.716347,240.036377 
	C114.534477,239.689865 115.352608,239.343338 117.016670,238.999344 
	C117.673538,238.372162 118.791328,237.815384 118.899940,237.104446 
	C119.212692,235.057358 119.117950,232.948013 120.097389,230.872711 
M68.862556,232.498291 
	C70.290894,231.958557 71.701820,231.016037 73.150772,230.953384 
	C77.792381,230.752731 82.452812,231.005188 87.096619,230.831802 
	C90.117683,230.718994 93.122437,230.169281 96.793922,229.691025 
	C97.875496,228.528122 98.957069,227.365219 100.833084,226.043518 
	C103.062149,222.999710 99.985794,224.067139 99.111580,224.058548 
	C88.558197,223.954742 78.003670,223.967300 67.114716,223.390030 
	C68.057800,222.224319 69.000885,221.058594 70.882751,220.020065 
	C80.714142,219.877594 90.545540,219.735107 100.895714,219.329041 
	C101.752281,218.959457 102.608841,218.589874 104.274940,218.113632 
	C105.020584,216.951187 105.766228,215.788742 106.981026,213.894897 
	C96.382462,213.894897 87.251961,213.824585 78.123672,213.935730 
	C75.202248,213.971283 72.286674,214.487152 68.592880,214.925751 
	C66.973587,215.618576 65.354294,216.311401 63.026058,216.998245 
	C61.689053,219.083771 59.685818,221.020706 59.179390,223.291458 
	C58.508060,226.301620 58.934425,229.574493 59.017719,232.731094 
	C59.163651,238.261353 61.811882,240.935287 67.376289,240.983948 
	C76.686172,241.065399 85.997627,241.049591 95.307541,240.970917 
	C97.034424,240.956314 98.757172,240.452408 101.264061,240.082932 
	C103.967331,239.591904 104.699020,238.223999 102.678024,235.090652 
	C94.861084,235.003723 87.038933,235.056961 79.229523,234.767197 
	C75.645561,234.634201 72.086578,233.827713 68.862556,232.498291 
M332.085297,213.923401 
	C329.293427,213.913895 326.497742,213.806580 323.710480,213.915024 
	C317.712341,214.148422 311.718506,214.492889 304.748749,214.971954 
	C303.499451,215.387497 302.250183,215.803040 300.471100,216.242935 
	C294.920776,219.677017 293.042389,234.647125 297.873688,238.865784 
	C299.338165,240.144577 301.729492,240.842026 303.735046,240.930923 
	C309.720886,241.196182 315.728333,241.130447 321.722565,240.989807 
	C325.302032,240.905823 328.872498,240.438721 333.234131,240.071243 
	C335.197357,239.060532 337.160614,238.049820 339.873474,237.011520 
	C340.858673,235.621475 342.464478,234.327988 342.698883,232.821167 
	C343.175476,229.757477 342.958588,226.578339 342.943115,223.447189 
	C342.907166,216.165848 340.292633,213.727463 332.085297,213.923401 
M382.094452,182.923569 
	C378.975250,182.914001 375.851776,182.796646 372.737762,182.919159 
	C367.578003,183.122131 362.424316,183.479507 356.388123,183.898773 
	C355.591736,184.219376 354.795319,184.539963 353.273010,184.852814 
	C352.665558,185.270584 351.534058,185.681335 351.528320,186.107178 
	C351.422455,194.014496 351.450684,201.923615 351.450684,209.851120 
	C362.063263,209.851120 372.019958,209.851120 382.717316,209.824295 
	C386.791626,207.686905 390.865936,205.549515 395.514008,203.128647 
	C396.018768,202.756775 396.702057,202.492233 397.000305,201.996216 
	C399.595917,197.678772 399.692993,193.246735 397.049408,188.961929 
	C393.816284,183.721634 388.908936,182.156937 382.094452,182.923569 
M189.105713,182.875214 
	C180.242661,183.060501 171.379593,183.245773 162.021851,183.805283 
	C160.301376,184.502457 158.580902,185.199646 156.150848,185.976791 
	C154.851471,188.106659 152.639633,190.151291 152.431122,192.383087 
	C151.896729,198.103271 152.252747,203.906647 152.252747,210.345261 
	C154.112259,209.866959 155.430710,209.527832 157.445557,209.050934 
	C158.280624,208.711044 159.115677,208.371155 160.805634,208.039383 
	C161.457245,206.822418 162.589203,205.638763 162.676361,204.382629 
	C163.031906,199.257629 163.067886,194.110458 164.130783,188.998535 
	C170.963013,189.004303 177.797623,189.120132 184.626495,188.971588 
	C188.294968,188.891800 189.787354,190.475220 189.735413,194.024521 
	C189.660080,199.172409 189.716095,204.322235 189.716095,210.205536 
	C191.411423,209.790024 192.671494,209.481186 194.638672,209.035797 
	C195.462402,208.691223 196.286133,208.346664 197.973251,208.015854 
	C198.632965,207.006775 199.810104,206.023544 199.862030,204.984100 
	C200.077240,200.675766 199.989151,196.350037 199.944092,192.031418 
	C199.871857,185.106964 197.147202,182.670563 189.105713,182.875214 
M51.013485,236.003174 
	C51.013485,236.003174 50.930157,236.000809 51.549065,236.492004 
	C56.632439,232.008621 58.074692,226.908890 55.790180,221.495682 
	C53.471069,216.000504 48.680561,213.597656 40.107975,213.922974 
	C36.967136,213.913605 33.822041,213.795914 30.686424,213.919327 
	C25.497248,214.123535 20.314182,214.483063 14.428784,214.895798 
	C13.600114,215.227661 12.771443,215.559525 11.082218,215.896072 
	C10.443518,216.439011 9.257362,216.973297 9.248629,217.526199 
	C9.126862,225.235886 9.166122,232.948105 9.166122,241.030655 
	C16.442608,241.030655 23.188051,241.126160 29.928955,240.992645 
	C33.610840,240.919724 37.285042,240.459152 41.734459,240.075455 
	C44.471130,239.230072 47.207802,238.384705 50.632320,237.149200 
	C50.760998,236.739456 50.889675,236.329697 51.013485,236.003174 
M225.774200,240.054703 
	C226.569794,239.703247 227.365402,239.351776 229.024033,238.999329 
	C229.677414,238.326828 230.886780,237.664246 230.898956,236.980347 
	C231.034241,229.383224 230.984192,221.782822 230.984192,213.532822 
	C229.185532,214.055664 228.010132,214.397324 226.135712,214.884872 
	C225.311035,215.222931 224.486374,215.560974 222.814056,215.901871 
	C222.189362,216.451416 221.029266,216.992722 221.020676,217.551727 
	C220.901382,225.309753 220.939972,233.070221 220.939972,241.493988 
	C222.779739,240.897049 223.925095,240.525406 225.774200,240.054703 
M166.906143,239.039764 
	C167.564529,238.191528 168.776642,237.354675 168.794342,236.493256 
	C168.945984,229.118851 168.881317,221.740005 168.881317,213.593643 
	C167.066025,214.068863 165.790695,214.402725 163.814758,214.873779 
	C162.969925,215.210754 162.125076,215.547714 160.477798,215.894836 
	C159.879913,216.653641 158.776123,217.403564 158.762634,218.172638 
	C158.631897,225.619614 158.684158,233.069794 158.684158,241.249603 
	C160.414871,240.809174 161.675476,240.488388 163.621002,240.035141 
	C164.428925,239.701065 165.236847,239.366989 166.906143,239.039764 
M284.965118,215.916855 
	C284.310425,216.747665 283.104523,217.567322 283.087433,218.411026 
	C282.938019,225.791428 283.001038,233.176147 283.001038,241.225952 
	C284.632690,240.810226 285.891937,240.489395 287.866272,240.084305 
	C288.690186,239.726776 289.514099,239.369263 291.194763,238.996857 
	C291.849640,238.485962 293.066772,237.983887 293.074982,237.462814 
	C293.197052,229.693207 293.159363,221.921097 293.159363,213.459152 
	C291.311127,214.027649 290.155487,214.383102 288.292725,214.897522 
	C287.472626,215.235779 286.652557,215.574036 284.965118,215.916855 
M260.165894,238.998322 
	C260.828552,237.832748 262.006256,236.692322 262.064636,235.497253 
	C262.314880,230.373032 262.235504,225.232727 263.132416,220.056610 
	C267.352142,219.713058 271.617188,219.615814 275.759827,218.853378 
	C276.800140,218.661896 277.447693,216.336243 277.805847,214.213684 
	C265.466797,214.115875 253.127808,214.006805 240.788574,213.957169 
	C240.235001,213.954926 239.679260,214.492050 238.423477,214.896347 
	C237.599686,215.235153 236.775894,215.573975 235.137970,215.917816 
	C234.333969,216.994980 233.529968,218.072144 231.915741,220.234802 
	C239.765289,220.234802 245.801895,220.234802 252.172958,220.234802 
	C252.172958,227.422791 252.172958,234.123917 252.172958,241.407822 
	C253.819702,240.892120 254.970215,240.531830 256.836060,240.084518 
	C257.659851,239.726837 258.483643,239.369141 260.165894,238.998322 
M83.006645,189.050659 
	C87.023354,188.772018 91.087303,188.749619 95.021614,188.024139 
	C95.938705,187.855011 96.415245,185.296783 96.622604,183.098831 
	C84.725868,183.033203 72.829140,182.952271 60.932350,182.939972 
	C60.219990,182.939240 59.507069,183.487274 58.116062,183.882858 
	C57.337151,184.216324 56.558243,184.549789 54.932022,184.887192 
	C54.084469,185.945984 53.236919,187.004791 52.389366,188.063583 
	C52.697548,188.465820 53.005730,188.868042 53.313915,189.270264 
	C59.326305,189.270264 65.338699,189.270264 71.662125,189.270264 
	C71.662125,196.389145 71.662125,202.968811 71.662125,210.268280 
	C73.379616,209.816879 74.650261,209.482910 76.618736,209.027359 
	C77.442314,208.699356 78.265892,208.371368 79.941139,208.039551 
	C80.580124,206.834808 81.704880,205.656921 81.773239,204.420624 
	C82.055382,199.317749 82.017273,194.197189 83.006645,189.050659 
z"/>
<path fill="#F71C25" opacity="1.000000" stroke="none" 
	d="
M41.104477,203.174042 
	C40.425331,202.135162 39.746185,201.096298 38.417778,199.651459 
	C29.546358,199.110352 21.324194,198.975204 12.803343,198.659790 
	C6.049445,196.031876 4.903986,192.979416 7.814787,185.981781 
	C9.577739,185.250412 11.340688,184.519043 13.648403,183.792389 
	C25.271345,183.892456 36.349518,183.987808 47.427692,184.083176 
	C47.746433,184.619858 48.375355,185.603439 48.339069,185.628616 
	C47.060108,186.516327 45.718681,187.314041 43.582432,188.124649 
	C37.349609,188.094620 31.917751,187.947723 26.492098,188.071899 
	C22.315836,188.167511 18.147375,188.604019 13.975446,188.888931 
	C13.678152,188.961105 13.380857,189.033279 12.643377,189.421692 
	C9.874636,192.420120 13.776573,191.727280 13.988332,193.033386 
	C13.988332,193.033386 13.966647,192.981445 14.066641,193.355499 
	C14.639301,193.838760 15.111967,193.947952 15.920292,194.180023 
	C23.833134,194.318100 31.413895,194.194717 38.986423,194.390198 
	C45.640030,194.561920 48.208366,197.955414 46.983677,204.360703 
	C46.832535,205.151184 46.853886,205.974670 46.795303,206.782837 
	C44.746845,207.568268 42.698395,208.353683 39.812252,209.144867 
	C29.685154,209.105240 20.395590,209.013977 11.106458,209.046570 
	C8.773038,209.054764 6.721528,209.078522 6.880579,205.909882 
	C7.684872,205.568253 8.489162,205.226608 10.102968,204.927078 
	C20.008472,204.980240 29.105221,205.046661 38.199348,204.922012 
	C39.175529,204.908646 40.136471,203.783478 41.104477,203.174042 
z"/>
<path fill="#F71B1D" opacity="1.000000" stroke="none" 
	d="
M103.150322,235.841858 
	C104.699020,238.223999 103.967331,239.591904 100.443054,240.071320 
	C89.834152,240.038284 80.046165,239.984573 70.258392,240.010559 
	C66.037529,240.021759 62.560669,238.121277 62.373867,234.051910 
	C62.114510,228.402084 63.216061,222.689789 63.735001,217.004227 
	C65.354294,216.311401 66.973587,215.618576 69.420883,214.911087 
	C79.965355,214.926712 89.684441,215.090652 99.396629,214.901199 
	C102.110764,214.848236 103.101700,215.894684 103.465401,218.220276 
	C102.608841,218.589874 101.752281,218.959457 100.249741,219.248184 
	C93.211288,219.114578 86.817146,218.953613 80.427002,219.052063 
	C76.929169,219.105972 73.438087,219.598267 69.943970,219.892868 
	C69.000885,221.058594 68.057800,222.224319 67.521400,224.089310 
	C75.039429,224.961029 82.153343,225.065521 89.261040,225.334381 
	C92.859375,225.470490 96.446465,225.903534 100.038635,226.202316 
	C98.957069,227.365219 97.875496,228.528122 96.109680,229.528381 
	C85.806122,229.365738 76.186813,229.365738 65.808426,229.365738 
	C66.722305,231.072098 67.373756,232.288437 68.000092,233.970856 
	C68.976959,234.951370 69.976364,235.906540 70.981339,235.912430 
	C81.703827,235.975403 92.427193,235.887970 103.150322,235.841858 
z"/>
<path fill="#F61D1E" opacity="1.000000" stroke="none" 
	d="
M309.103027,208.006653 
	C308.305359,208.349548 307.507721,208.692444 305.990326,208.851517 
	C305.016235,200.738968 304.761871,192.810242 304.507507,184.881500 
	C305.331268,184.547653 306.155060,184.213806 307.814636,183.920990 
	C318.773987,183.917953 328.897583,183.873871 339.381653,183.915131 
	C346.968353,186.743256 347.947113,191.281448 343.301514,197.251144 
	C344.379517,201.202606 345.310699,204.615906 346.241913,208.029205 
	C345.457672,208.385223 344.673431,208.741241 343.189240,208.948334 
	C340.824432,200.572983 339.319214,199.091858 331.601746,198.378662 
	C324.721588,198.401260 318.288330,198.571075 311.414368,198.680313 
	C310.284821,199.274551 309.057831,199.888565 309.004547,200.591599 
	C308.818359,203.046677 309.037750,205.532501 309.103027,208.006653 
M340.815216,193.446564 
	C343.228760,189.595154 340.967255,188.268250 337.622375,188.060349 
	C333.641541,187.812912 329.629791,187.882324 325.638916,188.024307 
	C321.089294,188.186157 316.547882,188.579422 311.286530,189.035324 
	C311.091278,190.393219 310.895996,191.751114 311.132721,193.923843 
	C320.855194,193.903198 330.577698,193.882553 340.815216,193.446564 
z"/>
<path fill="#F61D1E" opacity="1.000000" stroke="none" 
	d="
M110.114334,208.037384 
	C109.291702,208.370026 108.469070,208.702667 106.932907,208.841629 
	C106.527359,201.106201 106.835327,193.564438 107.143295,186.022705 
	C108.837463,185.320969 110.531624,184.619232 113.048767,183.912781 
	C122.588615,183.877060 131.305481,183.846069 140.386993,183.896881 
	C145.173889,184.899948 147.070999,187.725754 147.068787,192.128235 
	C147.066147,197.420792 147.182449,202.713425 147.247253,208.006027 
	C146.426605,208.361679 145.605942,208.717331 144.059662,208.890671 
	C143.205109,206.254623 143.360977,203.735626 142.820221,201.376251 
	C142.571335,200.290237 140.958023,199.516922 139.595490,198.430725 
	C130.417191,198.428207 121.606827,198.596786 112.360321,198.699356 
	C111.247391,199.294342 110.040085,199.917572 109.989815,200.623199 
	C109.814880,203.079193 110.040817,205.563705 110.114334,208.037384 
M140.939636,194.114990 
	C143.497223,191.214508 143.147568,188.307480 139.958252,188.252045 
	C130.972000,188.095825 121.974922,188.563019 112.290543,189.019333 
	C112.093933,190.382553 111.897316,191.745789 112.132729,193.923813 
	C121.489532,193.986771 130.846329,194.049728 140.939636,194.114990 
z"/>
<path fill="#F61D1E" opacity="1.000000" stroke="none" 
	d="
M256.032593,186.097900 
	C257.859039,185.371918 259.685455,184.645950 262.334839,183.908264 
	C271.779236,183.869873 280.400665,183.843201 289.391357,183.897278 
	C294.478882,184.771591 296.250702,187.793228 296.262634,192.320358 
	C296.276459,197.555588 296.447388,202.790405 296.550110,208.025391 
	C295.719116,208.387238 294.888153,208.749069 293.325989,208.919464 
	C292.432861,206.330322 292.575836,203.853638 291.983490,201.567459 
	C291.676147,200.381241 290.068054,199.532028 288.595673,198.392715 
	C279.408997,198.395767 270.674164,198.536667 261.498047,198.627579 
	C260.387939,199.259796 259.201141,199.902115 259.144958,200.631470 
	C258.956970,203.073410 259.173035,205.546448 259.234344,208.007584 
	C258.414368,208.361206 257.594391,208.714844 256.044617,208.879211 
	C255.554108,201.159256 255.793350,193.628571 256.032593,186.097900 
M290.080994,194.121140 
	C290.733063,193.105255 292.081543,191.904541 291.872559,191.117188 
	C291.565857,189.961533 290.145935,188.248230 289.199646,188.247787 
	C280.052734,188.243607 270.905701,188.548325 261.201569,189.098724 
	C260.997284,190.410706 260.792969,191.722702 261.037903,193.862335 
	C270.451294,193.922241 279.864716,193.982162 290.080994,194.121140 
z"/>
<path fill="#F81B22" opacity="1.000000" stroke="none" 
	d="
M394.940308,203.412140 
	C390.865936,205.549515 386.791626,207.686905 382.079224,209.510727 
	C372.528320,209.197159 363.615448,209.197159 353.998932,209.197159 
	C353.998932,200.445343 353.998932,192.652954 353.998932,184.860565 
	C354.795319,184.539963 355.591736,184.219376 357.273987,183.909760 
	C366.447113,183.883698 374.734375,183.846649 383.404785,183.886841 
	C393.351898,185.390137 397.693604,192.323639 394.801788,201.470795 
	C394.619995,202.045837 394.883789,202.761765 394.940308,203.412140 
M362.902832,204.949722 
	C365.676086,204.958771 368.454987,205.084412 371.221375,204.950989 
	C376.008514,204.720108 380.787964,204.328598 386.089355,204.036728 
	C386.450867,203.702087 386.812378,203.367462 387.877106,202.950531 
	C391.611511,201.001022 392.262177,197.789108 391.230072,194.117752 
	C390.102814,190.107956 387.172241,188.096268 383.103333,188.049271 
	C375.966003,187.966827 368.826324,188.084274 361.349854,188.121643 
	C361.349854,188.121643 361.045776,188.272064 360.161926,188.082672 
	C359.759064,188.294495 359.011292,188.495392 359.004181,188.719727 
	C358.852936,193.498978 358.668427,198.285217 358.847321,203.056717 
	C358.869781,203.656006 360.893127,204.180252 362.902832,204.949722 
z"/>
<path fill="#FB191E" opacity="1.000000" stroke="none" 
	d="
M11.942772,215.891388 
	C12.771443,215.559525 13.600114,215.227661 15.234056,214.914612 
	C24.366808,214.895279 32.694290,214.857117 41.403248,214.898438 
	C52.769619,216.727005 56.270443,224.774460 50.930157,236.000809 
	C50.930157,236.000809 51.013485,236.003174 50.639481,236.041656 
	C50.158474,236.566528 50.051472,237.052933 49.944473,237.539337 
	C47.207802,238.384705 44.471130,239.230072 40.884926,240.070862 
	C30.848103,240.066269 21.660810,240.066269 11.942772,240.066269 
	C11.942772,231.410172 11.942772,223.650772 11.942772,215.891388 
M44.228252,234.606384 
	C44.416389,234.387161 44.652573,234.303406 45.615284,234.057159 
	C49.444759,232.216644 50.040981,228.947784 49.168564,225.306488 
	C48.199917,221.263535 45.290936,219.135468 41.246658,219.066452 
	C33.971539,218.942291 26.691458,219.108810 18.656610,219.050842 
	C17.905815,219.646851 16.532412,220.215210 16.504520,220.843323 
	C16.312933,225.158279 16.288195,229.491821 16.516655,233.803131 
	C16.554157,234.510834 18.103704,235.138428 19.879438,236.005051 
	C24.290392,236.014664 28.707085,236.166840 33.110519,235.989655 
	C36.759693,235.842834 40.393250,235.307709 44.228252,234.606384 
z"/>
<path fill="#FB191B" opacity="1.000000" stroke="none" 
	d="
M301.000885,216.218567 
	C302.250183,215.803040 303.499451,215.387497 305.648315,214.937790 
	C315.372101,214.878265 324.196320,214.852905 333.381042,214.913757 
	C337.434967,215.773712 339.804871,218.074371 339.856018,221.783569 
	C339.926117,226.864410 339.396484,231.953537 339.123840,237.039108 
	C337.160614,238.049820 335.197357,239.060532 332.412689,240.089508 
	C323.332642,240.057205 315.048004,240.358902 306.830505,239.751953 
	C304.196564,239.557419 299.905426,237.312592 299.538361,235.398697 
	C298.324341,229.068405 297.099213,222.324814 301.000885,216.218567 
M307.883698,235.963623 
	C311.982483,235.972183 316.085449,236.100464 320.178955,235.957672 
	C324.837097,235.795166 329.486816,235.390579 334.818207,234.689255 
	C335.179932,231.141159 335.624786,227.599014 335.879761,224.043259 
	C336.130249,220.549927 334.485077,218.885681 330.863586,218.950485 
	C322.594543,219.098434 314.322693,219.088867 305.237061,219.110413 
	C302.626495,221.415787 301.512115,232.663742 303.840698,234.857254 
	C304.543121,235.518951 305.899811,235.486053 307.883698,235.963623 
z"/>
<path fill="#FB191B" opacity="1.000000" stroke="none" 
	d="
M243.123123,206.317047 
	C240.343918,207.232742 237.564713,208.148438 233.897034,209.074539 
	C223.796432,209.084946 214.584320,209.084946 204.887924,209.084946 
	C204.887924,200.462799 204.887924,192.688416 204.887924,184.914047 
	C205.709976,184.573669 206.532013,184.233276 207.937439,183.886963 
	C208.520813,183.881042 208.987045,183.774567 209.447235,183.873352 
	C217.945450,183.923141 225.983490,183.874130 234.398010,183.904938 
	C244.492874,185.643280 248.746887,193.056641 245.183212,202.043930 
	C244.844009,202.899368 244.835846,203.886063 244.673981,204.811829 
	C244.428436,205.000610 244.182892,205.189407 243.593353,205.669250 
	C243.249344,205.960266 242.984589,206.039932 242.984589,206.039932 
	C242.984589,206.039932 243.123123,206.317047 243.123123,206.317047 
M210.144562,188.156219 
	C209.866669,193.259781 209.525589,198.362122 209.427689,203.469131 
	C209.419617,203.889450 211.063446,204.341431 212.860596,205.005020 
	C216.976318,205.015686 221.098679,205.176254 225.205872,204.994446 
	C229.235107,204.816071 233.248932,204.289490 237.944580,203.821304 
	C242.180817,201.531937 243.136200,197.760880 241.839386,193.592300 
	C240.537964,189.408875 237.078796,187.920990 232.820328,187.975891 
	C225.992844,188.063889 219.164078,188.050827 211.648987,187.965561 
	C211.422806,188.016617 211.196640,188.067673 210.144562,188.156219 
z"/>
<path fill="#F61D1E" opacity="1.000000" stroke="none" 
	d="
M116.170738,238.996811 
	C115.352608,239.343338 114.534477,239.689865 112.994125,239.847580 
	C112.542763,232.128891 112.813614,224.599014 113.084457,217.069122 
	C114.862473,216.351425 116.640488,215.633728 119.240761,214.907501 
	C131.071396,214.876114 142.079788,214.853256 153.088165,214.830383 
	C154.573196,217.383942 153.691147,218.740051 150.068954,219.092056 
	C142.811157,219.035904 136.392670,218.922653 129.978928,219.049362 
	C126.299881,219.122025 122.628517,219.584122 118.953690,219.870880 
	C118.359344,221.117767 117.764992,222.364670 117.647491,224.264069 
	C124.191765,225.044540 130.262405,225.090088 136.325562,225.327484 
	C140.880981,225.505844 145.426758,225.930603 149.976837,226.245636 
	C148.889832,227.381378 147.802841,228.517120 146.020203,229.503204 
	C136.518707,229.482330 127.712852,229.611099 118.467056,229.679688 
	C117.353172,230.281372 116.155998,230.902176 116.100243,231.612549 
	C115.908386,234.057068 116.115585,236.532913 116.170738,238.996811 
z"/>
<path fill="#F71C25" opacity="1.000000" stroke="none" 
	d="
M197.109863,208.002106 
	C196.286133,208.346664 195.462402,208.691223 193.918610,208.850555 
	C193.060669,203.375122 192.884491,198.085571 192.798996,192.794540 
	C192.746475,189.542450 191.337769,187.925751 187.941010,187.975632 
	C179.646545,188.097427 171.350220,188.091583 162.640121,188.102356 
	C161.371857,189.296478 159.826935,190.501785 159.784088,191.758301 
	C159.599472,197.174438 159.855270,202.605591 159.950745,208.031281 
	C159.115677,208.371155 158.280624,208.711044 156.743423,208.949585 
	C156.314331,201.197784 156.587372,193.547302 156.860428,185.896835 
	C158.580902,185.199646 160.301376,184.502457 162.670532,183.811462 
	C172.226089,183.811707 181.132980,183.805771 190.401733,183.882294 
	C195.138168,184.994980 196.865601,187.988281 196.913956,192.238754 
	C196.973709,197.493256 197.044067,202.747665 197.109863,208.002106 
z"/>
<path fill="#F81B22" opacity="1.000000" stroke="none" 
	d="
M350.920715,216.143341 
	C352.288635,215.688507 353.656555,215.233673 355.634369,214.798187 
	C365.178894,214.818054 374.113495,214.818588 383.404907,214.905273 
	C388.145966,216.062576 389.723389,219.162262 389.794281,223.346237 
	C389.882935,228.575500 389.967285,233.804840 390.053467,239.034149 
	C389.230927,239.368271 388.408386,239.702408 386.878601,239.849915 
	C386.020264,234.538956 385.770844,229.415024 385.750977,224.290222 
	C385.736542,220.572510 384.267792,218.839310 380.371765,218.926132 
	C372.238312,219.107407 364.099304,219.039124 355.579803,219.035156 
	C354.234894,220.320084 352.496826,221.614868 352.447235,222.971390 
	C352.251312,228.330978 352.584839,233.709900 352.722015,239.081665 
	C351.951050,239.403107 351.180054,239.724533 349.637970,239.935211 
	C349.237427,232.183304 349.608002,224.542160 349.978577,216.901031 
	C349.978577,216.901031 349.981750,216.979858 350.173157,216.924561 
	C350.680267,216.727142 350.865662,216.485168 350.920715,216.143341 
z"/>
<path fill="#FB191B" opacity="1.000000" stroke="none" 
	d="
M178.343842,239.012619 
	C177.519302,239.372696 176.694778,239.732773 175.126404,239.903763 
	C174.613342,232.180710 174.844086,224.646729 175.074829,217.112762 
	C176.887360,216.377655 178.699905,215.642532 181.332367,214.905487 
	C190.782654,214.883469 199.412979,214.863373 208.408997,214.927002 
	C213.339005,215.639755 215.178406,218.518967 215.288467,222.857193 
	C215.425720,228.267776 215.587708,233.677704 215.739014,239.087921 
	C214.955627,239.406998 214.172241,239.726059 212.612015,239.931610 
	C211.626175,234.552002 211.258881,229.285782 211.263077,224.019836 
	C211.265945,220.432343 209.929092,218.863602 206.254883,218.942612 
	C198.104660,219.117813 189.949966,219.086243 181.422104,219.113861 
	C180.071991,220.582901 178.346283,222.034698 178.259094,223.578995 
	C177.969666,228.705597 178.269821,233.865494 178.343842,239.012619 
z"/>
<path fill="#FB191B" opacity="1.000000" stroke="none" 
	d="
M97.094490,183.837799 
	C96.415245,185.296783 95.938705,187.855011 95.021614,188.024139 
	C91.087303,188.749619 87.023354,188.772018 82.332886,188.706116 
	C79.324837,187.411667 78.773628,188.503052 78.827492,190.653625 
	C78.972626,196.448761 79.009575,202.246597 79.089470,208.043365 
	C78.265892,208.371368 77.442314,208.699356 75.905746,208.834641 
	C75.192757,201.932922 75.192757,195.223923 75.192757,187.988022 
	C69.286880,187.988022 64.371719,187.885742 59.463970,188.032059 
	C57.081646,188.103058 55.653156,187.524429 55.779335,184.883255 
	C56.558243,184.549789 57.337151,184.216324 58.931915,183.926849 
	C72.196678,183.926498 84.645584,183.882156 97.094490,183.837799 
z"/>
<path fill="#FB191B" opacity="1.000000" stroke="none" 
	d="
M235.952103,215.912781 
	C236.775894,215.573975 237.599686,215.235153 239.229614,214.915680 
	C252.782425,214.953812 265.529083,214.972595 278.275757,214.991394 
	C277.447693,216.336243 276.800140,218.661896 275.759827,218.853378 
	C271.617188,219.615814 267.352142,219.713058 262.487274,219.714706 
	C259.427368,218.368256 259.033783,219.647903 259.076813,221.690720 
	C259.198364,227.463364 259.236450,233.237762 259.307434,239.011444 
	C258.483643,239.369141 257.659851,239.726837 256.098206,239.893692 
	C255.360336,232.974564 255.360336,226.246277 255.360336,219.026154 
	C249.562622,219.026154 244.632721,218.934464 239.708786,219.065948 
	C237.346695,219.128998 235.852890,218.580368 235.952103,215.912781 
z"/>
<path fill="#F902E7" opacity="1.000000" stroke="none" 
	d="
M300.735992,216.230743 
	C297.099213,222.324814 298.324341,229.068405 299.538361,235.398697 
	C299.905426,237.312592 304.196564,239.557419 306.830505,239.751953 
	C315.048004,240.358902 323.332642,240.057205 332.019135,240.125824 
	C328.872498,240.438721 325.302032,240.905823 321.722565,240.989807 
	C315.728333,241.130447 309.720886,241.196182 303.735046,240.930923 
	C301.729492,240.842026 299.338165,240.144577 297.873688,238.865784 
	C293.042389,234.647125 294.920776,219.677017 300.735992,216.230743 
z"/>
<path fill="#E000DE" opacity="1.000000" stroke="none" 
	d="
M355.962555,219.073364 
	C364.099304,219.039124 372.238312,219.107407 380.371765,218.926132 
	C384.267792,218.839310 385.736542,220.572510 385.750977,224.290222 
	C385.770844,229.415024 386.020264,234.538956 386.533691,239.924561 
	C385.606018,240.530243 384.315979,240.874634 382.424713,241.379532 
	C382.424713,235.451904 382.352020,230.217697 382.450012,224.986694 
	C382.516479,221.438522 381.040100,219.930817 377.409821,220.016159 
	C370.649139,220.175049 363.881927,220.055832 356.593353,219.803986 
	C356.069275,219.555603 355.962555,219.073364 355.962555,219.073364 
z"/>
<path fill="#1CC4C4" opacity="1.000000" stroke="none" 
	d="
M216.114609,239.094757 
	C215.587708,233.677704 215.425720,228.267776 215.288467,222.857193 
	C215.178406,218.518967 213.339005,215.639755 208.394119,214.719788 
	C208.013550,214.428848 207.997955,214.013733 207.997955,214.013733 
	C216.010971,213.375031 218.627380,215.727997 218.706528,223.711853 
	C218.746109,227.704422 218.879486,231.708939 218.611145,235.683777 
	C218.531372,236.865372 217.231186,237.964600 216.114609,239.094757 
z"/>
<path fill="#FC00F8" opacity="1.000000" stroke="none" 
	d="
M63.380527,217.001236 
	C63.216061,222.689789 62.114510,228.402084 62.373867,234.051910 
	C62.560669,238.121277 66.037529,240.021759 70.258392,240.010559 
	C80.046165,239.984573 89.834152,240.038284 100.051941,240.117004 
	C98.757172,240.452408 97.034424,240.956314 95.307541,240.970917 
	C85.997627,241.049591 76.686172,241.065399 67.376289,240.983948 
	C61.811882,240.935287 59.163651,238.261353 59.017719,232.731094 
	C58.934425,229.574493 58.508060,226.301620 59.179390,223.291458 
	C59.685818,221.020706 61.689053,219.083771 63.380527,217.001236 
z"/>
<path fill="#0BE7E7" opacity="1.000000" stroke="none" 
	d="
M296.922913,208.021576 
	C296.447388,202.790405 296.276459,197.555588 296.262634,192.320358 
	C296.250702,187.793228 294.478882,184.771591 289.390167,183.716827 
	C289.019745,183.455597 289.014160,183.094711 289.014160,183.094711 
	C296.856689,182.590317 299.308411,184.820953 299.371918,192.582901 
	C299.405975,196.745667 299.510834,200.916229 299.282593,205.066727 
	C299.226685,206.083755 297.989716,207.035828 296.922913,208.021576 
z"/>
<path fill="#E000DE" opacity="1.000000" stroke="none" 
	d="
M353.635986,184.856689 
	C353.998932,192.652954 353.998932,200.445343 353.998932,209.197159 
	C363.615448,209.197159 372.528320,209.197159 381.708893,209.524139 
	C372.019958,209.851120 362.063263,209.851120 351.450684,209.851120 
	C351.450684,201.923615 351.422455,194.014496 351.528320,186.107178 
	C351.534058,185.681335 352.665558,185.270584 353.635986,184.856689 
z"/>
<path fill="#FC00F8" opacity="1.000000" stroke="none" 
	d="
M204.456573,184.916809 
	C204.887924,192.688416 204.887924,200.462799 204.887924,209.084946 
	C214.584320,209.084946 223.796432,209.084946 233.471588,209.125244 
	C229.914505,209.446548 225.897751,209.886765 221.873474,209.972168 
	C215.454071,210.108383 209.029648,210.008575 202.093521,210.008575 
	C202.093521,201.937347 202.055283,194.214798 202.176605,186.494751 
	C202.185013,185.960129 203.381317,185.444183 204.456573,184.916809 
z"/>
<path fill="#F000EE" opacity="1.000000" stroke="none" 
	d="
M11.512495,215.893738 
	C11.942772,223.650772 11.942772,231.410172 11.942772,240.066269 
	C21.660810,240.066269 30.848103,240.066269 40.499050,240.119843 
	C37.285042,240.459152 33.610840,240.919724 29.928955,240.992645 
	C23.188051,241.126160 16.442608,241.030655 9.166122,241.030655 
	C9.166122,232.948105 9.126862,225.235886 9.248629,217.526199 
	C9.257362,216.973297 10.443518,216.439011 11.512495,215.893738 
z"/>
<path fill="#FB191B" opacity="1.000000" stroke="none" 
	d="
M290.338013,239.011749 
	C289.514099,239.369263 288.690186,239.726776 287.123383,239.898651 
	C286.197845,231.779449 286.015167,223.845871 285.832489,215.912292 
	C286.652557,215.574036 287.472626,215.235779 289.034821,215.054077 
	C289.963959,223.144348 290.150970,231.078049 290.338013,239.011749 
z"/>
<path fill="#F71C25" opacity="1.000000" stroke="none" 
	d="
M161.280228,215.884674 
	C162.125076,215.547714 162.969925,215.210754 164.559784,215.044800 
	C165.551453,223.154846 165.798111,231.093872 166.044769,239.032913 
	C165.236847,239.366989 164.428925,239.701065 162.900742,239.857513 
	C161.880386,231.748138 161.580307,223.816406 161.280228,215.884674 
z"/>
<path fill="#FB191B" opacity="1.000000" stroke="none" 
	d="
M228.160995,239.000305 
	C227.365402,239.351776 226.569794,239.703247 225.044434,239.867142 
	C224.097015,231.752731 223.879364,223.825882 223.661713,215.899017 
	C224.486374,215.560974 225.311035,215.222931 226.890854,215.027832 
	C227.817657,223.113968 227.989334,231.057144 228.160995,239.000305 
z"/>
<path fill="#F000EE" opacity="1.000000" stroke="none" 
	d="
M181.797104,219.138992 
	C189.949966,219.086243 198.104660,219.117813 206.254883,218.942612 
	C209.929092,218.863602 211.265945,220.432343 211.263077,224.019836 
	C211.258881,229.285782 211.626175,234.552002 212.179291,239.993561 
	C211.199463,240.500275 209.875519,240.831528 208.155502,241.261902 
	C208.155502,235.470627 208.003571,230.325043 208.204651,225.193283 
	C208.359283,221.246979 206.696518,219.873459 202.867294,219.978287 
	C196.210770,220.160538 189.545502,220.024048 182.366165,219.785431 
	C181.848419,219.549683 181.797104,219.138992 181.797104,219.138992 
z"/>
<path fill="#F902E7" opacity="1.000000" stroke="none" 
	d="
M55.355675,184.885223 
	C55.653156,187.524429 57.081646,188.103058 59.463970,188.032059 
	C64.371719,187.885742 69.286880,187.988022 75.192757,187.988022 
	C75.192757,195.223923 75.192757,201.932922 75.556831,208.895447 
	C74.650261,209.482910 73.379616,209.816879 71.662125,210.268280 
	C71.662125,202.968811 71.662125,196.389145 71.662125,189.270264 
	C65.338699,189.270264 59.326305,189.270264 53.313915,189.270264 
	C53.005730,188.868042 52.697548,188.465820 52.389366,188.063583 
	C53.236919,187.004791 54.084469,185.945984 55.355675,184.885223 
z"/>
<path fill="#FE01EE" opacity="1.000000" stroke="none" 
	d="
M163.054642,188.137100 
	C171.350220,188.091583 179.646545,188.097427 187.941010,187.975632 
	C191.337769,187.925751 192.746475,189.542450 192.798996,192.794540 
	C192.884491,198.085571 193.060669,203.375122 193.565063,208.918823 
	C192.671494,209.481186 191.411423,209.790024 189.716095,210.205536 
	C189.716095,204.322235 189.660080,199.172409 189.735413,194.024521 
	C189.787354,190.475220 188.294968,188.891800 184.626495,188.971588 
	C177.797623,189.120132 170.963013,189.004303 163.624924,188.778320 
	C163.119064,188.558105 163.054642,188.137100 163.054642,188.137100 
z"/>
<path fill="#FC00F8" opacity="1.000000" stroke="none" 
	d="
M235.545044,215.915298 
	C235.852890,218.580368 237.346695,219.128998 239.708786,219.065948 
	C244.632721,218.934464 249.562622,219.026154 255.360336,219.026154 
	C255.360336,226.246277 255.360336,232.974564 255.740540,239.937195 
	C254.970215,240.531830 253.819702,240.892120 252.172958,241.407822 
	C252.172958,234.123917 252.172958,227.422791 252.172958,220.234802 
	C245.801895,220.234802 239.765289,220.234802 231.915741,220.234802 
	C233.529968,218.072144 234.333969,216.994980 235.545044,215.915298 
z"/>
<path fill="#0BE7E7" opacity="1.000000" stroke="none" 
	d="
M244.973022,204.774139 
	C244.835846,203.886063 244.844009,202.899368 245.183212,202.043930 
	C248.746887,193.056641 244.492874,185.643280 234.401123,183.721771 
	C234.027786,183.458771 234.033432,183.092407 234.033432,183.092407 
	C241.440140,182.618134 245.917236,184.782883 248.414825,190.046051 
	C250.833755,195.143417 249.776733,200.084351 244.973022,204.774139 
z"/>
<path fill="#F902E7" opacity="1.000000" stroke="none" 
	d="
M106.774399,185.962006 
	C106.835327,193.564438 106.527359,201.106201 106.582581,208.903046 
	C105.664627,209.504272 104.383469,209.850418 102.730240,210.297073 
	C102.730240,203.710724 102.415543,197.780014 102.898872,191.915070 
	C103.070839,189.828323 105.180405,187.901260 106.774399,185.962006 
z"/>
<path fill="#0BE7E7" opacity="1.000000" stroke="none" 
	d="
M51.239609,236.246399 
	C56.270443,224.774460 52.769619,216.727005 41.407669,214.717590 
	C41.030617,214.457291 41.036716,214.095566 41.036716,214.095566 
	C48.680561,213.597656 53.471069,216.000504 55.790180,221.495682 
	C58.074692,226.908890 56.632439,232.008621 51.239609,236.246399 
z"/>
<path fill="#0BE7E7" opacity="1.000000" stroke="none" 
	d="
M346.656677,208.028488 
	C345.310699,204.615906 344.379517,201.202606 343.301514,197.251144 
	C347.947113,191.281448 346.968353,186.743256 339.376740,183.728546 
	C339.011322,183.456619 339.002411,183.083435 339.002411,183.083435 
	C343.156738,182.280609 347.138641,183.164230 348.314209,187.359085 
	C349.099762,190.162064 347.702484,193.576736 346.251495,196.422897 
	C347.202698,199.488770 348.292725,202.523758 348.987396,205.646698 
	C349.125488,206.267624 347.749329,207.225357 346.656677,208.028488 
z"/>
<path fill="#02E5E6" opacity="1.000000" stroke="none" 
	d="
M390.484680,239.037109 
	C389.967285,233.804840 389.882935,228.575500 389.794281,223.346237 
	C389.723389,219.162262 388.145966,216.062576 383.403076,214.712463 
	C383.044525,214.433487 383.027863,214.048218 383.027863,214.048218 
	C390.055084,213.669861 392.798950,216.145233 392.890472,223.051971 
	C392.947540,227.361221 393.027496,231.678223 392.810272,235.977249 
	C392.757233,237.027405 391.577545,238.020660 390.484680,239.037109 
z"/>
<path fill="#09F2F2" opacity="1.000000" stroke="none" 
	d="
M197.541550,208.008972 
	C197.044067,202.747665 196.973709,197.493256 196.913956,192.238754 
	C196.865601,187.988281 195.138168,184.994980 190.410675,183.702408 
	C190.057739,183.440048 190.028305,183.081024 190.028305,183.081024 
	C197.147202,182.670563 199.871857,185.106964 199.944092,192.031418 
	C199.989151,196.350037 200.077240,200.675766 199.862030,204.984100 
	C199.810104,206.023544 198.632965,207.006775 197.541550,208.008972 
z"/>
<path fill="#09F2F2" opacity="1.000000" stroke="none" 
	d="
M147.675415,208.003601 
	C147.182449,202.713425 147.066147,197.420792 147.068787,192.128235 
	C147.070999,187.725754 145.173889,184.899948 140.389191,183.719299 
	C140.026749,183.459915 140.015778,183.104935 140.015778,183.104935 
	C147.435242,182.701141 149.979111,185.073532 150.015869,192.473358 
	C150.037354,196.798477 150.123260,201.128403 149.931900,205.445160 
	C149.893005,206.322464 148.741943,207.150452 147.675415,208.003601 
z"/>
<path fill="#0BE7E7" opacity="1.000000" stroke="none" 
	d="
M395.227173,203.270401 
	C394.883789,202.761765 394.619995,202.045837 394.801788,201.470795 
	C397.693604,192.323639 393.351898,185.390137 383.406097,183.709564 
	C383.024200,183.455017 383.021393,183.100418 383.021393,183.100418 
	C388.908936,182.156937 393.816284,183.721634 397.049408,188.961929 
	C399.692993,193.246735 399.595917,197.678772 397.000305,201.996216 
	C396.702057,202.492233 396.018768,202.756775 395.227173,203.270401 
z"/>
<path fill="#22DEDE" opacity="1.000000" stroke="none" 
	d="
M47.133850,206.712067 
	C46.853886,205.974670 46.832535,205.151184 46.983677,204.360703 
	C48.208366,197.955414 45.640030,194.561920 38.986423,194.390198 
	C31.413895,194.194717 23.833134,194.318100 16.328094,194.246979 
	C19.222086,194.203369 22.048071,194.319031 24.864912,194.206253 
	C30.598759,193.976700 36.327671,193.623901 42.058617,193.321899 
	C45.716446,193.083160 48.552128,194.564346 49.916084,197.919876 
	C51.276249,201.266083 50.427914,204.333130 47.133850,206.712067 
z"/>
<path fill="#02E5E6" opacity="1.000000" stroke="none" 
	d="
M166.475464,239.036346 
	C165.798111,231.093872 165.551453,223.154846 164.910095,214.976196 
	C165.790695,214.402725 167.066025,214.068863 168.881317,213.593643 
	C168.881317,221.740005 168.945984,229.118851 168.794342,236.493256 
	C168.776642,237.354675 167.564529,238.191528 166.475464,239.036346 
z"/>
<path fill="#09F2F2" opacity="1.000000" stroke="none" 
	d="
M339.498657,237.025314 
	C339.396484,231.953537 339.926117,226.864410 339.856018,221.783569 
	C339.804871,218.074371 337.434967,215.773712 333.380829,214.731979 
	C333.020142,214.463989 333.009094,214.100616 333.009094,214.100616 
	C340.292633,213.727463 342.907166,216.165848 342.943115,223.447189 
	C342.958588,226.578339 343.175476,229.757477 342.698883,232.821167 
	C342.464478,234.327988 340.858673,235.621475 339.498657,237.025314 
z"/>
<path fill="#1CC4C4" opacity="1.000000" stroke="none" 
	d="
M355.579803,219.035156 
	C355.962555,219.073364 356.069275,219.555603 356.137756,219.792877 
	C356.033966,225.267700 355.986084,230.514572 355.593658,235.735565 
	C355.505890,236.903336 354.210083,237.980301 353.096252,239.090378 
	C352.584839,233.709900 352.251312,228.330978 352.447235,222.971390 
	C352.496826,221.614868 354.234894,220.320084 355.579803,219.035156 
z"/>
<path fill="#FC00F8" opacity="1.000000" stroke="none" 
	d="
M285.398804,215.914581 
	C286.015167,223.845871 286.197845,231.779449 286.765808,239.940796 
	C285.891937,240.489395 284.632690,240.810226 283.001038,241.225952 
	C283.001038,233.176147 282.938019,225.791428 283.087433,218.411026 
	C283.104523,217.567322 284.310425,216.747665 285.398804,215.914581 
z"/>
<path fill="#F902E7" opacity="1.000000" stroke="none" 
	d="
M160.879013,215.889755 
	C161.580307,223.816406 161.880386,231.748138 162.558273,239.923737 
	C161.675476,240.488388 160.414871,240.809174 158.684158,241.249603 
	C158.684158,233.069794 158.631897,225.619614 158.762634,218.172638 
	C158.776123,217.403564 159.879913,216.653641 160.879013,215.889755 
z"/>
<path fill="#00FDFD" opacity="1.000000" stroke="none" 
	d="
M228.592514,238.999817 
	C227.989334,231.057144 227.817657,223.113968 227.240372,214.954895 
	C228.010132,214.397324 229.185532,214.055664 230.984192,213.532822 
	C230.984192,221.782822 231.034241,229.383224 230.898956,236.980347 
	C230.886780,237.664246 229.677414,238.326828 228.592514,238.999817 
z"/>
<path fill="#09F2F2" opacity="1.000000" stroke="none" 
	d="
M290.766357,239.004303 
	C290.150970,231.078049 289.963959,223.144348 289.388367,214.974609 
	C290.155487,214.383102 291.311127,214.027649 293.159363,213.459152 
	C293.159363,221.921097 293.197052,229.693207 293.074982,237.462814 
	C293.066772,237.983887 291.849640,238.485962 290.766357,239.004303 
z"/>
<path fill="#FE01EE" opacity="1.000000" stroke="none" 
	d="
M223.237885,215.900452 
	C223.879364,223.825882 224.097015,231.752731 224.692566,239.916687 
	C223.925095,240.525406 222.779739,240.897049 220.939972,241.493988 
	C220.939972,233.070221 220.901382,225.309753 221.020676,217.551727 
	C221.029266,216.992722 222.189362,216.451416 223.237885,215.900452 
z"/>
<path fill="#F902E7" opacity="1.000000" stroke="none" 
	d="
M304.091522,184.884796 
	C304.761871,192.810242 305.016235,200.738968 305.643555,208.913025 
	C304.762177,209.486038 303.507843,209.813721 301.816040,210.255692 
	C301.816040,202.054962 301.763550,194.574326 301.897247,187.097015 
	C301.910614,186.350357 303.055695,185.623917 304.091522,184.884796 
z"/>
<path fill="#E000DE" opacity="1.000000" stroke="none" 
	d="
M156.505646,185.936813 
	C156.587372,193.547302 156.314331,201.197784 156.395233,209.018478 
	C155.430710,209.527832 154.112259,209.866959 152.252747,210.345261 
	C152.252747,203.906647 151.896729,198.103271 152.431122,192.383087 
	C152.639633,190.151291 154.851471,188.106659 156.505646,185.936813 
z"/>
<path fill="#E000DE" opacity="1.000000" stroke="none" 
	d="
M349.613068,216.800980 
	C349.608002,224.542160 349.237427,232.183304 349.211090,240.002747 
	C348.250397,240.524826 346.945465,240.868561 345.116089,241.350464 
	C345.116089,234.964386 344.719757,229.192001 345.304443,223.520767 
	C345.550171,221.137299 347.870361,218.967728 349.613068,216.800980 
z"/>
<path fill="#FE01EE" opacity="1.000000" stroke="none" 
	d="
M112.707642,217.036179 
	C112.813614,224.599014 112.542763,232.128891 112.637451,239.910782 
	C111.743279,240.486725 110.483551,240.810669 108.855125,241.229416 
	C108.855125,234.740692 108.548065,228.931885 109.014442,223.185822 
	C109.187859,221.049316 111.172256,219.059784 112.707642,217.036179 
z"/>
<path fill="#FC00F8" opacity="1.000000" stroke="none" 
	d="
M255.665466,186.087708 
	C255.793350,193.628571 255.554108,201.159256 255.687775,208.934814 
	C254.811707,209.492767 253.562714,209.805832 251.949875,210.210098 
	C251.949875,203.784348 251.651596,198.016449 252.103271,192.307892 
	C252.273209,190.160278 254.182175,188.150253 255.665466,186.087708 
z"/>
<path fill="#FC00F8" opacity="1.000000" stroke="none" 
	d="
M174.703735,217.099976 
	C174.844086,224.646729 174.613342,232.180710 174.768524,239.941620 
	C173.894470,240.489700 172.634476,240.810822 171.012161,241.224289 
	C171.012161,234.821701 170.715225,229.058151 171.164276,223.353333 
	C171.334183,221.194839 173.225815,219.171906 174.703735,217.099976 
z"/>
<path fill="#C30D85" opacity="1.000000" stroke="none" 
	d="
M68.025200,233.504791 
	C67.373756,232.288437 66.722305,231.072098 65.808426,229.365738 
	C76.186813,229.365738 85.806122,229.365738 95.779968,229.590515 
	C93.122437,230.169281 90.117683,230.718994 87.096619,230.831802 
	C82.452812,231.005188 77.792381,230.752731 73.150772,230.953384 
	C71.701820,231.016037 70.290894,231.958557 68.623108,232.922302 
	C68.383659,233.346313 68.025200,233.504791 68.025200,233.504791 
z"/>
<path fill="#09F2F2" opacity="1.000000" stroke="none" 
	d="
M259.736664,239.004883 
	C259.236450,233.237762 259.198364,227.463364 259.076813,221.690720 
	C259.033783,219.647903 259.427368,218.368256 262.059204,219.735535 
	C262.235504,225.232727 262.314880,230.373032 262.064636,235.497253 
	C262.006256,236.692322 260.828552,237.832748 259.736664,239.004883 
z"/>
<path fill="#02E5E6" opacity="1.000000" stroke="none" 
	d="
M79.515305,208.041458 
	C79.009575,202.246597 78.972626,196.448761 78.827492,190.653625 
	C78.773628,188.503052 79.324837,187.411667 81.877991,188.722351 
	C82.017273,194.197189 82.055382,199.317749 81.773239,204.420624 
	C81.704880,205.656921 80.580124,206.834808 79.515305,208.041458 
z"/>
<path fill="#09F2F2" opacity="1.000000" stroke="none" 
	d="
M181.422104,219.113861 
	C181.797104,219.138992 181.848419,219.549683 181.894928,219.751343 
	C181.690109,225.143524 181.549774,230.343613 181.104843,235.517487 
	C181.001175,236.722992 179.862061,237.839432 178.771606,239.004730 
	C178.269821,233.865494 177.969666,228.705597 178.259094,223.578995 
	C178.346283,222.034698 180.071991,220.582901 181.422104,219.113861 
z"/>
<path fill="#02E5E6" opacity="1.000000" stroke="none" 
	d="
M162.640121,188.102356 
	C163.054642,188.137100 163.119064,188.558105 163.170334,188.764786 
	C163.067886,194.110458 163.031906,199.257629 162.676361,204.382629 
	C162.589203,205.638763 161.457245,206.822418 160.378189,208.035339 
	C159.855270,202.605591 159.599472,197.174438 159.784088,191.758301 
	C159.826935,190.501785 161.371857,189.296478 162.640121,188.102356 
z"/>
<path fill="#C30D85" opacity="1.000000" stroke="none" 
	d="
M118.906990,229.739853 
	C127.712852,229.611099 136.518707,229.482330 145.674744,229.569397 
	C143.846909,230.149216 141.674637,230.780029 139.489822,230.827011 
	C133.028336,230.965927 126.561897,230.874222 119.538025,230.595306 
	C118.954773,230.125229 118.930878,229.932541 118.906990,229.739853 
z"/>
<path fill="#C30D85" opacity="1.000000" stroke="none" 
	d="
M112.796455,198.765381 
	C121.606827,198.596786 130.417191,198.428207 139.594940,198.785263 
	C139.914612,199.541870 139.866913,199.772827 139.819214,200.003784 
	C131.227615,199.961731 122.636009,199.919678 113.470566,199.611115 
	C112.863297,199.151505 112.829872,198.958435 112.796455,198.765381 
z"/>
<path fill="#C30D85" opacity="1.000000" stroke="none" 
	d="
M261.939362,198.677567 
	C270.674164,198.536667 279.408997,198.395767 288.621887,198.630783 
	C289.071503,199.327606 289.002441,199.639526 288.892792,199.942459 
	C280.325714,199.920837 271.758606,199.899200 262.625305,199.582092 
	C262.019165,199.083588 261.979248,198.880585 261.939362,198.677567 
z"/>
<path fill="#F902E7" opacity="1.000000" stroke="none" 
	d="
M7.464438,186.000580 
	C4.903986,192.979416 6.049445,196.031876 12.566021,198.687714 
	C12.273971,198.991653 12.085649,199.222122 12.062423,199.587296 
	C7.799713,199.901016 4.593235,198.285370 3.410711,194.063446 
	C2.428177,190.555511 3.655449,187.677277 7.464438,186.000580 
z"/>
<path fill="#22DEDE" opacity="1.000000" stroke="none" 
	d="
M103.870171,218.166962 
	C103.101700,215.894684 102.110764,214.848236 99.396629,214.901199 
	C89.684441,215.090652 79.965355,214.926712 69.808655,214.839844 
	C72.286674,214.487152 75.202248,213.971283 78.123672,213.935730 
	C87.251961,213.824585 96.382462,213.894897 106.981026,213.894897 
	C105.766228,215.788742 105.020584,216.951187 103.870171,218.166962 
z"/>
<path fill="#F902E7" opacity="1.000000" stroke="none" 
	d="
M332.048615,198.525864 
	C339.319214,199.091858 340.824432,200.572983 342.843262,208.978912 
	C342.052734,209.540237 340.908264,209.922028 339.371460,210.434677 
	C338.945221,205.464890 337.901520,201.241043 332.409943,199.618835 
	C332.197388,199.052887 332.170685,198.784607 332.048615,198.525864 
z"/>
<path fill="#FC00F8" opacity="1.000000" stroke="none" 
	d="
M6.469118,205.908966 
	C6.721528,209.078522 8.773038,209.054764 11.106458,209.046570 
	C20.395590,209.013977 29.685154,209.105240 39.436325,209.165619 
	C36.517975,209.456589 33.140495,209.924271 29.757231,209.970718 
	C21.370611,210.085892 12.981347,210.008575 2.932580,210.008575 
	C4.431543,208.041733 5.244600,206.974884 6.469118,205.908966 
z"/>
<path fill="#C30D85" opacity="1.000000" stroke="none" 
	d="
M331.601746,198.378662 
	C332.170685,198.784607 332.197388,199.052887 332.048279,199.521301 
	C325.670654,199.765228 319.373444,199.818542 312.509094,199.594879 
	C311.913025,199.125549 311.884033,198.933212 311.855072,198.740906 
	C318.288330,198.571075 324.721588,198.401260 331.601746,198.378662 
z"/>
<path fill="#22DEDE" opacity="1.000000" stroke="none" 
	d="
M278.040802,214.602539 
	C265.529083,214.972595 252.782425,214.953812 239.580154,214.856476 
	C239.679260,214.492050 240.235001,213.954926 240.788574,213.957169 
	C253.127808,214.006805 265.466797,214.115875 278.040802,214.602539 
z"/>
<path fill="#22DEDE" opacity="1.000000" stroke="none" 
	d="
M96.858551,183.468323 
	C84.645584,183.882156 72.196678,183.926498 59.271088,183.875397 
	C59.507069,183.487274 60.219990,182.939240 60.932350,182.939972 
	C72.829140,182.952271 84.725868,183.033203 96.858551,183.468323 
z"/>
<path fill="#30D1D1" opacity="1.000000" stroke="none" 
	d="
M68.000092,233.970856 
	C68.025200,233.504791 68.383659,233.346313 68.449966,233.336487 
	C72.086578,233.827713 75.645561,234.634201 79.229523,234.767197 
	C87.038933,235.056961 94.861084,235.003723 102.914169,235.466248 
	C92.427193,235.887970 81.703827,235.975403 70.981339,235.912430 
	C69.976364,235.906540 68.976959,234.951370 68.000092,233.970856 
z"/>
<path fill="#00AEAE" opacity="1.000000" stroke="none" 
	d="
M100.435867,226.122925 
	C96.446465,225.903534 92.859375,225.470490 89.261040,225.334381 
	C82.153343,225.065521 75.039429,224.961029 67.688766,224.369064 
	C78.003670,223.967300 88.558197,223.954742 99.111580,224.058548 
	C99.985794,224.067139 103.062149,222.999710 100.435867,226.122925 
z"/>
<path fill="#00AEAE" opacity="1.000000" stroke="none" 
	d="
M150.341766,226.114014 
	C145.426758,225.930603 140.880981,225.505844 136.325562,225.327484 
	C130.262405,225.090088 124.191765,225.044540 117.909027,224.507782 
	C128.079330,224.066742 138.465118,224.003494 148.850250,224.059372 
	C149.709579,224.063995 152.615234,222.953247 150.341766,226.114014 
z"/>
<path fill="#F000EE" opacity="1.000000" stroke="none" 
	d="
M288.965546,200.400162 
	C289.002441,199.639526 289.071503,199.327606 289.073761,198.768631 
	C290.068054,199.532028 291.676147,200.381241 291.983490,201.567459 
	C292.575836,203.853638 292.432861,206.330322 292.969177,208.950363 
	C292.059265,209.506027 290.774994,209.839325 289.038300,210.290039 
	C289.038300,206.708206 289.038300,203.783035 288.965546,200.400162 
z"/>
<path fill="#FC00F8" opacity="1.000000" stroke="none" 
	d="
M139.874298,200.461578 
	C139.866913,199.772827 139.914612,199.541870 139.962860,198.956360 
	C140.958023,199.516922 142.571335,200.290237 142.820221,201.376251 
	C143.360977,203.735626 143.205109,206.254623 143.702301,208.944031 
	C142.832626,209.501740 141.594650,209.823822 139.929382,210.257065 
	C139.929382,206.706802 139.929382,203.813080 139.874298,200.461578 
z"/>
<path fill="#22DEDE" opacity="1.000000" stroke="none" 
	d="
M152.851639,214.462067 
	C142.079788,214.853256 131.071396,214.876114 119.606041,214.842560 
	C122.873543,214.489059 126.595657,213.981430 130.323013,213.939362 
	C137.752182,213.855530 145.184250,214.027451 152.851639,214.462067 
z"/>
<path fill="#30D1D1" opacity="1.000000" stroke="none" 
	d="
M40.796356,203.468658 
	C40.136471,203.783478 39.175529,204.908646 38.199348,204.922012 
	C29.105221,205.046661 20.008472,204.980240 10.450201,204.874786 
	C12.345998,204.473282 14.700051,203.942581 17.062895,203.900055 
	C24.869631,203.759491 32.679543,203.795212 40.796356,203.468658 
z"/>
<path fill="#0BE7E7" opacity="1.000000" stroke="none" 
	d="
M47.160118,183.703796 
	C36.349518,183.987808 25.271345,183.892456 13.830066,183.525818 
	C24.608822,183.277817 35.750683,183.301102 47.160118,183.703796 
z"/>
<path fill="#22DEDE" opacity="1.000000" stroke="none" 
	d="
M338.539734,183.002380 
	C339.002411,183.083435 339.011322,183.456619 339.016235,183.643204 
	C328.897583,183.873871 318.773987,183.917953 308.163452,183.869598 
	C311.039490,183.483063 314.398895,182.997971 317.766235,182.935074 
	C324.534241,182.808670 331.306549,182.912506 338.539734,183.002380 
z"/>
<path fill="#FE01EE" opacity="1.000000" stroke="none" 
	d="
M119.420883,219.950455 
	C122.628517,219.584122 126.299881,219.122025 129.978928,219.049362 
	C136.392670,218.922653 142.811157,219.035904 149.703049,219.125031 
	C146.503479,219.479950 142.831879,219.925278 139.152771,219.999939 
	C132.733643,220.130219 126.309883,220.032303 119.420883,219.950455 
z"/>
<path fill="#F902E7" opacity="1.000000" stroke="none" 
	d="
M14.439976,188.968170 
	C18.147375,188.604019 22.315836,188.167511 26.492098,188.071899 
	C31.917751,187.947723 37.349609,188.094620 43.221321,188.181335 
	C39.163391,188.515198 34.666252,188.916809 30.161606,189.036987 
	C25.079430,189.172562 19.990498,189.054932 14.439976,188.968170 
z"/>
<path fill="#FE01EE" opacity="1.000000" stroke="none" 
	d="
M70.413361,219.956467 
	C73.438087,219.598267 76.929169,219.105972 80.427002,219.052063 
	C86.817146,218.953613 93.211288,219.114578 99.990349,219.379974 
	C90.545540,219.735107 80.714142,219.877594 70.413361,219.956467 
z"/>
<path fill="#22DEDE" opacity="1.000000" stroke="none" 
	d="
M332.547180,214.012009 
	C333.009094,214.100616 333.020142,214.463989 333.020355,214.645767 
	C324.196320,214.852905 315.372101,214.878265 306.135376,214.847763 
	C311.718506,214.492889 317.712341,214.148422 323.710480,213.915024 
	C326.497742,213.806580 329.293427,213.913895 332.547180,214.012009 
z"/>
<path fill="#00AEAE" opacity="1.000000" stroke="none" 
	d="
M41.597054,193.207840 
	C36.327671,193.623901 30.598759,193.976700 24.864912,194.206253 
	C22.048071,194.319031 19.222086,194.203369 15.992435,194.124115 
	C15.111967,193.947952 14.639301,193.838760 14.044037,193.372253 
	C22.992790,193.041229 32.064144,193.067505 41.597054,193.207840 
z"/>
<path fill="#09F2F2" opacity="1.000000" stroke="none" 
	d="
M261.498047,198.627579 
	C261.979248,198.880585 262.019165,199.083588 262.175110,199.574371 
	C262.220764,201.951050 262.312561,204.065353 261.991608,206.115036 
	C261.880005,206.827713 260.747223,207.380493 259.657593,208.006943 
	C259.173035,205.546448 258.956970,203.073410 259.144958,200.631470 
	C259.201141,199.902115 260.387939,199.259796 261.498047,198.627579 
z"/>
<path fill="#02E5E6" opacity="1.000000" stroke="none" 
	d="
M112.360321,198.699371 
	C112.829872,198.958435 112.863297,199.151505 113.009659,199.615891 
	C113.042351,201.948517 113.123322,204.035828 112.797348,206.057541 
	C112.677887,206.798416 111.594063,207.383820 110.532242,208.038757 
	C110.040817,205.563705 109.814880,203.079193 109.989815,200.623199 
	C110.040085,199.917572 111.247391,199.294342 112.360321,198.699371 
z"/>
<path fill="#30D1D1" opacity="1.000000" stroke="none" 
	d="
M382.564392,213.958435 
	C383.027863,214.048218 383.044525,214.433487 383.046326,214.626297 
	C374.113495,214.818588 365.178894,214.818054 355.857178,214.586884 
	C356.160400,214.226395 356.850739,214.096527 358.045410,213.983978 
	C358.549713,214.001297 358.505371,214.016327 358.505371,214.016327 
	C366.370544,213.967102 374.235748,213.917877 382.564392,213.958435 
z"/>
<path fill="#00FDFD" opacity="1.000000" stroke="none" 
	d="
M118.467056,229.679688 
	C118.930878,229.932541 118.954773,230.125229 119.080978,230.590515 
	C119.117950,232.948013 119.212692,235.057358 118.899940,237.104446 
	C118.791328,237.815384 117.673538,238.372162 116.593704,238.998077 
	C116.115585,236.532913 115.908386,234.057068 116.100243,231.612549 
	C116.155998,230.902176 117.353172,230.281372 118.467056,229.679688 
z"/>
<path fill="#22DEDE" opacity="1.000000" stroke="none" 
	d="
M139.553467,183.014694 
	C140.015778,183.104935 140.026749,183.459915 140.024551,183.637497 
	C131.305481,183.846069 122.588615,183.877060 113.397110,183.852264 
	C119.154320,183.495956 125.384743,183.159363 131.618713,182.912689 
	C134.105469,182.814301 136.600113,182.914597 139.553467,183.014694 
z"/>
<path fill="#30D1D1" opacity="1.000000" stroke="none" 
	d="
M189.567017,182.978119 
	C190.028305,183.081024 190.057739,183.440048 190.048798,183.619934 
	C181.132980,183.805771 172.226089,183.811707 162.917877,183.624359 
	C171.379593,183.245773 180.242661,183.060501 189.567017,182.978119 
z"/>
<path fill="#22DEDE" opacity="1.000000" stroke="none" 
	d="
M288.551056,183.008820 
	C289.014160,183.094711 289.019745,183.455597 289.020935,183.636047 
	C280.400665,183.843201 271.779236,183.869873 262.709259,183.840561 
	C268.739594,183.488007 275.217468,183.165604 281.697906,182.909561 
	C283.824432,182.825546 285.957733,182.913559 288.551056,183.008820 
z"/>
<path fill="#30D1D1" opacity="1.000000" stroke="none" 
	d="
M207.534775,213.939056 
	C207.997955,214.013733 208.013550,214.428848 208.028442,214.636063 
	C199.412979,214.863373 190.782654,214.883469 181.705139,214.836761 
	C182.007034,214.494690 182.756119,214.219421 184.018738,214.009338 
	C184.532272,214.074554 184.943237,214.024490 184.943237,214.024490 
	C192.319351,213.971130 199.695480,213.917755 207.534775,213.939056 
z"/>
<path fill="#09F2F2" opacity="1.000000" stroke="none" 
	d="
M311.414368,198.680298 
	C311.884033,198.933212 311.913025,199.125549 312.050812,199.588562 
	C312.086212,201.943680 312.175568,204.053925 311.851654,206.098724 
	C311.737366,206.820389 310.613159,207.382095 309.526550,208.011749 
	C309.037750,205.532501 308.818359,203.046677 309.004547,200.591599 
	C309.057831,199.888565 310.284821,199.274551 311.414368,198.680298 
z"/>
<path fill="#22DEDE" opacity="1.000000" stroke="none" 
	d="
M40.572346,214.009277 
	C41.036716,214.095566 41.030617,214.457291 41.026192,214.638123 
	C32.694290,214.857117 24.366808,214.895279 15.583935,214.855286 
	C20.314182,214.483063 25.497248,214.123535 30.686424,213.919327 
	C33.822041,213.795914 36.967136,213.913605 40.572346,214.009277 
z"/>
<path fill="#22DEDE" opacity="1.000000" stroke="none" 
	d="
M382.557922,183.011993 
	C383.021393,183.100418 383.024200,183.455017 383.022888,183.632309 
	C374.734375,183.846649 366.447113,183.883698 357.713989,183.846283 
	C362.424316,183.479507 367.578003,183.122131 372.737762,182.919159 
	C375.851776,182.796646 378.975250,182.914001 382.557922,183.011993 
z"/>
<path fill="#C30D85" opacity="1.000000" stroke="none" 
	d="
M12.501633,199.727783 
	C12.085649,199.222122 12.273971,198.991653 12.864711,198.867981 
	C21.324194,198.975204 29.546358,199.110352 38.089088,199.587463 
	C29.920050,199.909058 21.430445,199.888672 12.501633,199.727783 
z"/>
<path fill="#22DEDE" opacity="1.000000" stroke="none" 
	d="
M233.569168,183.007492 
	C234.033432,183.092407 234.027786,183.458771 234.024658,183.641953 
	C225.983490,183.874130 217.945450,183.923141 209.444336,183.720734 
	C208.981277,183.469330 208.981369,183.164047 208.981369,183.164047 
	C217.022552,183.083557 225.063721,183.003067 233.569168,183.007492 
z"/>
<path fill="#22DEDE" opacity="1.000000" stroke="none" 
	d="
M13.639051,192.793915 
	C13.776573,191.727280 9.874636,192.420120 12.229871,189.620682 
	C12.600958,190.520432 12.945364,191.537445 13.639051,192.793915 
z"/>
<path fill="#0BE7E7" opacity="1.000000" stroke="none" 
	d="
M243.159637,206.328766 
	C243.123123,206.317047 242.984589,206.039932 242.984589,206.039932 
	C242.984589,206.039932 243.249344,205.960266 243.296173,206.026382 
	C243.343018,206.092499 243.196167,206.340485 243.159637,206.328766 
z"/>
<path fill="#02E5E6" opacity="1.000000" stroke="none" 
	d="
M358.449036,213.914032 
	C358.505371,214.016327 358.549713,214.001297 358.571899,214.010727 
	C358.594116,214.020157 358.592285,213.708542 358.592285,213.708542 
	C358.592285,213.708542 358.392731,213.811752 358.449036,213.914032 
z"/>
<path fill="#1CC4C4" opacity="1.000000" stroke="none" 
	d="
M184.860199,213.927872 
	C184.943237,214.024490 184.532272,214.074554 184.325867,214.060318 
	C184.276230,213.816437 184.495468,213.744827 184.860199,213.927872 
z"/>
<path fill="#0BE7E7" opacity="1.000000" stroke="none" 
	d="
M208.767639,183.118530 
	C208.981369,183.164047 208.981277,183.469330 208.984161,183.621948 
	C208.987045,183.774567 208.520813,183.881042 208.288727,183.818176 
	C208.101410,183.439667 208.267166,183.212234 208.767639,183.118530 
z"/>
<path fill="#E000DE" opacity="1.000000" stroke="none" 
	d="
M350.628448,216.138077 
	C350.865662,216.485168 350.680267,216.727142 350.133728,216.923157 
	C350.047333,216.695633 350.191742,216.414215 350.628448,216.138077 
z"/>
<path fill="#0BE7E7" opacity="1.000000" stroke="none" 
	d="
M50.288395,237.344269 
	C50.051472,237.052933 50.158474,236.566528 50.641914,236.000031 
	C50.889675,236.329697 50.760998,236.739456 50.288395,237.344269 
z"/>
<path fill="#020406" opacity="1.000000" stroke="none" 
	d="
M310.700714,193.109009 
	C310.895996,191.751114 311.091278,190.393219 312.109131,189.029053 
	C319.889709,189.029404 326.847687,189.045761 333.805664,189.037674 
	C336.464935,189.034592 338.932037,189.232971 338.425537,192.901016 
	C328.879639,193.017410 319.790161,193.063217 310.700714,193.109009 
z"/>
<path fill="#F902E7" opacity="1.000000" stroke="none" 
	d="
M338.881958,192.830414 
	C338.932037,189.232971 336.464935,189.034592 333.805664,189.037674 
	C326.847687,189.045761 319.889709,189.029404 312.467316,188.947449 
	C316.547882,188.579422 321.089294,188.186157 325.638916,188.024307 
	C329.629791,187.882324 333.641541,187.812912 337.622375,188.060349 
	C340.967255,188.268250 343.228760,189.595154 340.375732,193.416901 
	C339.584808,193.201630 339.233368,193.016022 338.881958,192.830414 
z"/>
<path fill="#00AEAE" opacity="1.000000" stroke="none" 
	d="
M338.425537,192.901016 
	C339.233368,193.016022 339.584808,193.201630 340.118195,193.624573 
	C330.577698,193.882553 320.855194,193.903198 310.916718,193.516418 
	C319.790161,193.063217 328.879639,193.017410 338.425537,192.901016 
z"/>
<path fill="#020406" opacity="1.000000" stroke="none" 
	d="
M111.700706,193.109009 
	C111.897316,191.745789 112.093933,190.382553 113.100723,188.991760 
	C120.885872,188.986160 127.860840,189.024246 134.835800,189.022034 
	C137.568268,189.021164 139.908707,189.423050 139.330902,192.979752 
	C129.817673,193.032669 120.759193,193.070847 111.700706,193.109009 
z"/>
<path fill="#FE01EE" opacity="1.000000" stroke="none" 
	d="
M139.785645,192.965012 
	C139.908707,189.423050 137.568268,189.021164 134.835800,189.022034 
	C127.860840,189.024246 120.885872,188.986160 113.446503,188.874329 
	C121.974922,188.563019 130.972000,188.095825 139.958252,188.252045 
	C143.147568,188.307480 143.497223,191.214508 140.462494,193.828430 
	C139.918762,193.349594 139.852203,193.157303 139.785645,192.965012 
z"/>
<path fill="#00AEAE" opacity="1.000000" stroke="none" 
	d="
M139.330902,192.979752 
	C139.852203,193.157303 139.918762,193.349594 140.094238,193.827286 
	C130.846329,194.049728 121.489532,193.986771 111.916718,193.516418 
	C120.759193,193.070847 129.817673,193.032669 139.330902,192.979752 
z"/>
<path fill="#020406" opacity="1.000000" stroke="none" 
	d="
M260.588684,193.034683 
	C260.792969,191.722702 260.997284,190.410706 261.949280,189.066437 
	C269.847290,189.032654 276.997589,189.026718 284.147888,189.031937 
	C286.847168,189.033905 289.315125,189.334946 288.427246,193.030853 
	C278.840210,193.023926 269.714447,193.029297 260.588684,193.034683 
z"/>
<path fill="#FE01EE" opacity="1.000000" stroke="none" 
	d="
M288.888519,193.043167 
	C289.315125,189.334946 286.847168,189.033905 284.147888,189.031937 
	C276.997589,189.026718 269.847290,189.032654 262.227844,188.899475 
	C270.905701,188.548325 280.052734,188.243607 289.199646,188.247787 
	C290.145935,188.248230 291.565857,189.961533 291.872559,191.117188 
	C292.081543,191.904541 290.733063,193.105255 289.574890,193.834702 
	C289.008728,193.379898 288.948608,193.211533 288.888519,193.043167 
z"/>
<path fill="#00AEAE" opacity="1.000000" stroke="none" 
	d="
M288.427246,193.030853 
	C288.948608,193.211533 289.008728,193.379898 289.173462,193.795166 
	C279.864716,193.982162 270.451294,193.922241 260.813293,193.448517 
	C269.714447,193.029297 278.840210,193.023926 288.427246,193.030853 
z"/>
<path fill="#020406" opacity="1.000000" stroke="none" 
	d="
M387.173889,203.032837 
	C386.812378,203.367462 386.450867,203.702087 385.326691,203.958176 
	C377.049530,203.884903 369.535065,203.890182 361.908112,203.447495 
	C361.840393,198.346649 361.885162,193.693771 362.402863,189.041534 
	C367.816162,189.042450 372.756592,189.030106 377.696930,189.045639 
	C387.332672,189.075943 390.644958,193.972031 387.173889,203.032837 
z"/>
<path fill="#F902E7" opacity="1.000000" stroke="none" 
	d="
M387.525513,202.991684 
	C390.644958,193.972031 387.332672,189.075943 377.696930,189.045639 
	C372.756592,189.030106 367.816162,189.042450 362.352631,189.011536 
	C361.829468,188.980865 361.720428,189.023392 361.745117,188.795853 
	C361.769806,188.568314 361.687653,188.117996 361.687653,188.117996 
	C368.826324,188.084274 375.966003,187.966827 383.103333,188.049271 
	C387.172241,188.096268 390.102814,190.107956 391.230072,194.117752 
	C392.262177,197.789108 391.611511,201.001022 387.525513,202.991684 
z"/>
<path fill="#00FDFD" opacity="1.000000" stroke="none" 
	d="
M361.879700,189.010864 
	C361.885162,193.693771 361.840393,198.346649 361.843384,203.656433 
	C361.891144,204.313309 361.989441,204.739273 361.989441,204.739273 
	C360.893127,204.180252 358.869781,203.656006 358.847321,203.056717 
	C358.668427,198.285217 358.852936,193.498978 359.004181,188.719727 
	C359.011292,188.495392 359.759064,188.294495 360.631348,188.367554 
	C361.212372,188.934479 361.418945,189.058136 361.720428,189.023392 
	C361.720428,189.023392 361.829468,188.980865 361.879700,189.010864 
z"/>
<path fill="#1CC4C4" opacity="1.000000" stroke="none" 
	d="
M362.446136,204.844498 
	C361.989441,204.739273 361.891144,204.313309 361.955872,204.104370 
	C369.535065,203.890182 377.049530,203.884903 385.067322,203.942047 
	C380.787964,204.328598 376.008514,204.720108 371.221375,204.950989 
	C368.454987,205.084412 365.676086,204.958771 362.446136,204.844498 
z"/>
<path fill="#1CC4C4" opacity="1.000000" stroke="none" 
	d="
M361.745117,188.795853 
	C361.418945,189.058136 361.212372,188.934479 361.073242,188.462250 
	C361.045776,188.272064 361.349854,188.121643 361.518738,188.119812 
	C361.687653,188.117996 361.769806,188.568314 361.745117,188.795853 
z"/>
<path fill="#02E5E6" opacity="1.000000" stroke="none" 
	d="
M18.954430,235.803055 
	C18.103704,235.138428 16.554157,234.510834 16.516655,233.803131 
	C16.288195,229.491821 16.312933,225.158279 16.504520,220.843323 
	C16.532412,220.215210 17.905815,219.646851 19.109083,219.345062 
	C19.653677,219.781021 19.745798,219.922760 19.722116,220.516525 
	C19.606316,225.519653 19.606316,230.070740 19.606316,235.033600 
	C27.091358,235.033600 33.836864,235.033600 40.163120,234.871399 
	C36.958549,234.662384 34.162552,234.440598 31.390421,234.609833 
	C27.236288,234.863434 23.098923,235.391632 18.954430,235.803055 
z"/>
<path fill="#F902E7" opacity="1.000000" stroke="none" 
	d="
M19.837917,220.064484 
	C19.745798,219.922760 19.653677,219.781021 19.487503,219.396576 
	C26.691458,219.108810 33.971539,218.942291 41.246658,219.066452 
	C45.290936,219.135468 48.199917,221.263535 49.168564,225.306488 
	C50.040981,228.947784 49.444759,232.216644 45.294762,234.202148 
	C44.974243,234.347153 44.935268,234.365082 44.935326,233.918488 
	C48.353230,225.320694 44.991676,220.119797 36.212990,220.051910 
	C30.754992,220.009720 25.296299,220.057236 19.837917,220.064484 
z"/>
<path fill="#43BEBE" opacity="1.000000" stroke="none" 
	d="
M19.416933,235.904053 
	C23.098923,235.391632 27.236288,234.863434 31.390421,234.609833 
	C34.162552,234.440598 36.958549,234.662384 40.603661,234.787048 
	C42.341377,234.911621 43.219307,234.958313 44.064137,235.008026 
	C44.031040,235.011032 44.033722,234.944626 44.033722,234.944626 
	C40.393250,235.307709 36.759693,235.842834 33.110519,235.989655 
	C28.707085,236.166840 24.290392,236.014664 19.416933,235.904053 
z"/>
<path fill="#02E5E6" opacity="1.000000" stroke="none" 
	d="
M44.955521,234.351135 
	C44.652573,234.303406 44.416389,234.387161 44.130989,234.775513 
	C44.033722,234.944626 44.031040,235.011032 44.268047,235.008759 
	C44.780117,234.880661 44.923523,234.666870 44.935268,234.365082 
	C44.935268,234.365082 44.974243,234.347153 44.955521,234.351135 
z"/>
<path fill="#FE01EE" opacity="1.000000" stroke="none" 
	d="
M306.051971,219.143265 
	C314.322693,219.088867 322.594543,219.098434 330.863586,218.950485 
	C334.485077,218.885681 336.130249,220.549927 335.879761,224.043259 
	C335.624786,227.599014 335.179932,231.141159 334.112854,234.780945 
	C333.172180,234.774734 332.936890,234.676834 332.757294,234.148590 
	C332.825592,231.068771 332.701691,228.410004 332.881744,225.771973 
	C333.172546,221.510757 331.425720,219.799713 327.078857,219.942551 
	C320.131775,220.170868 313.170715,219.975250 306.162109,219.757477 
	C306.108673,219.556091 306.051971,219.143265 306.051971,219.143265 
z"/>
<path fill="#02E5E6" opacity="1.000000" stroke="none" 
	d="
M305.644531,219.126831 
	C306.051971,219.143265 306.108673,219.556091 305.997131,220.196960 
	C306.361847,225.430420 306.838104,230.022995 307.204742,234.898270 
	C307.049072,235.377731 307.002960,235.574524 306.956818,235.771332 
	C305.899811,235.486053 304.543121,235.518951 303.840698,234.857254 
	C301.512115,232.663742 302.626495,221.415787 305.644531,219.126831 
z"/>
<path fill="#30D1D1" opacity="1.000000" stroke="none" 
	d="
M307.420258,235.867477 
	C307.002960,235.574524 307.049072,235.377731 307.645050,234.960144 
	C316.363831,234.685867 324.532684,234.632416 332.701569,234.578949 
	C332.936890,234.676834 333.172180,234.774734 333.773865,234.981934 
	C329.486816,235.390579 324.837097,235.795166 320.178955,235.957672 
	C316.085449,236.100464 311.982483,235.972183 307.420258,235.867477 
z"/>
<path fill="#F902E7" opacity="1.000000" stroke="none" 
	d="
M212.335846,188.080475 
	C219.164078,188.050827 225.992844,188.063889 232.820328,187.975891 
	C237.078796,187.920990 240.537964,189.408875 241.839386,193.592300 
	C243.136200,197.760880 242.180817,201.531937 237.494446,203.893799 
	C237.044327,203.966278 236.817612,204.008774 236.964142,203.650162 
	C241.808228,195.345490 238.284470,189.120132 229.015793,189.047455 
	C223.517929,189.004333 218.019440,189.039948 212.452545,188.972260 
	C212.383835,188.904373 212.202469,188.837891 212.273773,188.655212 
	C212.345062,188.472549 212.335846,188.080475 212.335846,188.080475 
z"/>
<path fill="#00FDFD" opacity="1.000000" stroke="none" 
	d="
M211.939728,204.778702 
	C211.063446,204.341431 209.419617,203.889450 209.427689,203.469131 
	C209.525589,198.362122 209.866669,193.259781 210.741867,188.294006 
	C211.582657,188.661316 211.870422,188.796677 212.202469,188.837891 
	C212.202469,188.837891 212.383835,188.904373 212.345428,189.421875 
	C212.347321,194.530319 212.387619,199.121277 212.266510,203.960846 
	C212.049973,204.399200 211.994843,204.588959 211.939728,204.778702 
z"/>
<path fill="#43BEBE" opacity="1.000000" stroke="none" 
	d="
M212.400162,204.891861 
	C211.994843,204.588959 212.049973,204.399200 212.701996,203.975494 
	C221.138458,203.830612 228.978043,203.919693 236.817612,204.008774 
	C236.817612,204.008774 237.044327,203.966278 237.156921,203.940994 
	C233.248932,204.289490 229.235107,204.816071 225.205872,204.994446 
	C221.098679,205.176254 216.976318,205.015686 212.400162,204.891861 
z"/>
<path fill="#43BEBE" opacity="1.000000" stroke="none" 
	d="
M212.273773,188.655212 
	C211.870422,188.796677 211.582657,188.661316 211.154816,188.275253 
	C211.196640,188.067673 211.422806,188.016617 211.992416,188.023010 
	C212.335846,188.080475 212.345062,188.472549 212.273773,188.655212 
z"/>
<path fill="#020406" opacity="1.000000" stroke="none" 
	d="
M44.935326,233.918488 
	C44.923523,234.666870 44.780117,234.880661 44.301144,235.005737 
	C43.219307,234.958313 42.341377,234.911621 41.022911,234.949249 
	C33.836864,235.033600 27.091358,235.033600 19.606316,235.033600 
	C19.606316,230.070740 19.606316,225.519653 19.722116,220.516525 
	C25.296299,220.057236 30.754992,220.009720 36.212990,220.051910 
	C44.991676,220.119797 48.353230,225.320694 44.935326,233.918488 
z"/>
<path fill="#020406" opacity="1.000000" stroke="none" 
	d="
M332.757294,234.148590 
	C324.532684,234.632416 316.363831,234.685867 307.754639,234.677460 
	C306.838104,230.022995 306.361847,225.430420 306.050598,220.398346 
	C313.170715,219.975250 320.131775,220.170868 327.078857,219.942551 
	C331.425720,219.799713 333.172546,221.510757 332.881744,225.771973 
	C332.701691,228.410004 332.825592,231.068771 332.757294,234.148590 
z"/>
<path fill="#020709" opacity="1.000000" stroke="none" 
	d="
M236.964142,203.650162 
	C228.978043,203.919693 221.138458,203.830612 212.863403,203.726898 
	C212.387619,199.121277 212.347321,194.530319 212.414139,189.489761 
	C218.019440,189.039948 223.517929,189.004333 229.015793,189.047455 
	C238.284470,189.120132 241.808228,195.345490 236.964142,203.650162 
z"/>
</svg>